%TF.GenerationSoftware,KiCad,Pcbnew,8.0.4*%
%TF.CreationDate,2024-08-01T14:56:52+02:00*%
%TF.ProjectId,\u002A,2a2e6b69-6361-4645-9f70-636258585858,rev?*%
%TF.SameCoordinates,Original*%
%TF.FileFunction,Soldermask,Bot*%
%TF.FilePolarity,Negative*%
%FSLAX46Y46*%
G04 Gerber Fmt 4.6, Leading zero omitted, Abs format (unit mm)*
G04 Created by KiCad (PCBNEW 8.0.4) date 2024-08-01 14:56:52*
%MOMM*%
%LPD*%
G01*
G04 APERTURE LIST*
%ADD10C,3.000000*%
%ADD11R,1.800000X2.600000*%
%ADD12O,1.800000X2.600000*%
%ADD13C,1.600000*%
%ADD14O,1.600000X1.600000*%
%ADD15R,1.800000X1.800000*%
%ADD16C,1.800000*%
%ADD17C,2.000000*%
%ADD18C,1.524000*%
G04 APERTURE END LIST*
D10*
%TO.C,DS2*%
X133900900Y-106500000D03*
X133900900Y-137500700D03*
X208899480Y-137500700D03*
X208900000Y-106500000D03*
D11*
X139400000Y-106500000D03*
D12*
X141940000Y-106500000D03*
X144480000Y-106500000D03*
X147020000Y-106500000D03*
X149560000Y-106500000D03*
X152100000Y-106500000D03*
X154640000Y-106500000D03*
X157180000Y-106500000D03*
X159720000Y-106500000D03*
X162260000Y-106500000D03*
X164800000Y-106500000D03*
X167340000Y-106500000D03*
X169880000Y-106500000D03*
X172420000Y-106500000D03*
X174960000Y-106500000D03*
X177500000Y-106500000D03*
%TD*%
D13*
%TO.C,R3*%
X133000000Y-93190000D03*
D14*
X133000000Y-100810000D03*
%TD*%
D15*
%TO.C,D1*%
X222500000Y-47960000D03*
D16*
X222500000Y-50500000D03*
%TD*%
D17*
%TO.C,SW1*%
X142500000Y-45000000D03*
X149000000Y-45000000D03*
X142500000Y-49500000D03*
X149000000Y-49500000D03*
%TD*%
%TO.C,SW2*%
X168500000Y-49500000D03*
X162000000Y-49500000D03*
X168500000Y-45000000D03*
X162000000Y-45000000D03*
%TD*%
D13*
%TO.C,R2*%
X183620000Y-47500000D03*
D14*
X176000000Y-47500000D03*
%TD*%
D18*
%TO.C,Esp32-Wroom-32D1*%
X140000000Y-63150000D03*
X142512000Y-63150000D03*
X140000000Y-88900000D03*
X175000000Y-63150000D03*
X172500000Y-63150000D03*
X170000000Y-63150000D03*
X167500000Y-63150000D03*
X165000000Y-63150000D03*
X162500000Y-63150000D03*
X160000000Y-63150000D03*
X157500000Y-63150000D03*
X155000000Y-63150000D03*
X152500000Y-63150000D03*
X150000000Y-63150000D03*
X147500000Y-63150000D03*
X145000000Y-63150000D03*
X145000000Y-88900000D03*
X147500000Y-88900000D03*
X150000000Y-88900000D03*
X152500000Y-88900000D03*
X155000000Y-88900000D03*
X157500000Y-88900000D03*
X160000000Y-88900000D03*
X162500000Y-88900000D03*
X165000000Y-88900000D03*
X167500000Y-88900000D03*
X170000000Y-88900000D03*
X172500000Y-88900000D03*
X175000000Y-88900000D03*
X142512000Y-88900000D03*
%TD*%
M02*
