%TF.GenerationSoftware,KiCad,Pcbnew,8.0.4*%
%TF.CreationDate,2024-08-01T14:56:52+02:00*%
%TF.ProjectId,\u002A,2a2e6b69-6361-4645-9f70-636258585858,rev?*%
%TF.SameCoordinates,Original*%
%TF.FileFunction,Legend,Top*%
%TF.FilePolarity,Positive*%
%FSLAX46Y46*%
G04 Gerber Fmt 4.6, Leading zero omitted, Abs format (unit mm)*
G04 Created by KiCad (PCBNEW 8.0.4) date 2024-08-01 14:56:52*
%MOMM*%
%LPD*%
G01*
G04 APERTURE LIST*
%ADD10C,0.150000*%
%ADD11C,0.100000*%
%ADD12C,0.120000*%
G04 APERTURE END LIST*
D10*
X132365714Y-103144819D02*
X132365714Y-102144819D01*
X132365714Y-102144819D02*
X132603809Y-102144819D01*
X132603809Y-102144819D02*
X132746666Y-102192438D01*
X132746666Y-102192438D02*
X132841904Y-102287676D01*
X132841904Y-102287676D02*
X132889523Y-102382914D01*
X132889523Y-102382914D02*
X132937142Y-102573390D01*
X132937142Y-102573390D02*
X132937142Y-102716247D01*
X132937142Y-102716247D02*
X132889523Y-102906723D01*
X132889523Y-102906723D02*
X132841904Y-103001961D01*
X132841904Y-103001961D02*
X132746666Y-103097200D01*
X132746666Y-103097200D02*
X132603809Y-103144819D01*
X132603809Y-103144819D02*
X132365714Y-103144819D01*
X133318095Y-103097200D02*
X133460952Y-103144819D01*
X133460952Y-103144819D02*
X133699047Y-103144819D01*
X133699047Y-103144819D02*
X133794285Y-103097200D01*
X133794285Y-103097200D02*
X133841904Y-103049580D01*
X133841904Y-103049580D02*
X133889523Y-102954342D01*
X133889523Y-102954342D02*
X133889523Y-102859104D01*
X133889523Y-102859104D02*
X133841904Y-102763866D01*
X133841904Y-102763866D02*
X133794285Y-102716247D01*
X133794285Y-102716247D02*
X133699047Y-102668628D01*
X133699047Y-102668628D02*
X133508571Y-102621009D01*
X133508571Y-102621009D02*
X133413333Y-102573390D01*
X133413333Y-102573390D02*
X133365714Y-102525771D01*
X133365714Y-102525771D02*
X133318095Y-102430533D01*
X133318095Y-102430533D02*
X133318095Y-102335295D01*
X133318095Y-102335295D02*
X133365714Y-102240057D01*
X133365714Y-102240057D02*
X133413333Y-102192438D01*
X133413333Y-102192438D02*
X133508571Y-102144819D01*
X133508571Y-102144819D02*
X133746666Y-102144819D01*
X133746666Y-102144819D02*
X133889523Y-102192438D01*
X134270476Y-102240057D02*
X134318095Y-102192438D01*
X134318095Y-102192438D02*
X134413333Y-102144819D01*
X134413333Y-102144819D02*
X134651428Y-102144819D01*
X134651428Y-102144819D02*
X134746666Y-102192438D01*
X134746666Y-102192438D02*
X134794285Y-102240057D01*
X134794285Y-102240057D02*
X134841904Y-102335295D01*
X134841904Y-102335295D02*
X134841904Y-102430533D01*
X134841904Y-102430533D02*
X134794285Y-102573390D01*
X134794285Y-102573390D02*
X134222857Y-103144819D01*
X134222857Y-103144819D02*
X134841904Y-103144819D01*
X135824819Y-97166666D02*
X135348628Y-97499999D01*
X135824819Y-97738094D02*
X134824819Y-97738094D01*
X134824819Y-97738094D02*
X134824819Y-97357142D01*
X134824819Y-97357142D02*
X134872438Y-97261904D01*
X134872438Y-97261904D02*
X134920057Y-97214285D01*
X134920057Y-97214285D02*
X135015295Y-97166666D01*
X135015295Y-97166666D02*
X135158152Y-97166666D01*
X135158152Y-97166666D02*
X135253390Y-97214285D01*
X135253390Y-97214285D02*
X135301009Y-97261904D01*
X135301009Y-97261904D02*
X135348628Y-97357142D01*
X135348628Y-97357142D02*
X135348628Y-97738094D01*
X134824819Y-96833332D02*
X134824819Y-96214285D01*
X134824819Y-96214285D02*
X135205771Y-96547618D01*
X135205771Y-96547618D02*
X135205771Y-96404761D01*
X135205771Y-96404761D02*
X135253390Y-96309523D01*
X135253390Y-96309523D02*
X135301009Y-96261904D01*
X135301009Y-96261904D02*
X135396247Y-96214285D01*
X135396247Y-96214285D02*
X135634342Y-96214285D01*
X135634342Y-96214285D02*
X135729580Y-96261904D01*
X135729580Y-96261904D02*
X135777200Y-96309523D01*
X135777200Y-96309523D02*
X135824819Y-96404761D01*
X135824819Y-96404761D02*
X135824819Y-96690475D01*
X135824819Y-96690475D02*
X135777200Y-96785713D01*
X135777200Y-96785713D02*
X135729580Y-96833332D01*
X226914819Y-49968094D02*
X225914819Y-49968094D01*
X225914819Y-49968094D02*
X225914819Y-49729999D01*
X225914819Y-49729999D02*
X225962438Y-49587142D01*
X225962438Y-49587142D02*
X226057676Y-49491904D01*
X226057676Y-49491904D02*
X226152914Y-49444285D01*
X226152914Y-49444285D02*
X226343390Y-49396666D01*
X226343390Y-49396666D02*
X226486247Y-49396666D01*
X226486247Y-49396666D02*
X226676723Y-49444285D01*
X226676723Y-49444285D02*
X226771961Y-49491904D01*
X226771961Y-49491904D02*
X226867200Y-49587142D01*
X226867200Y-49587142D02*
X226914819Y-49729999D01*
X226914819Y-49729999D02*
X226914819Y-49968094D01*
X226914819Y-48444285D02*
X226914819Y-49015713D01*
X226914819Y-48729999D02*
X225914819Y-48729999D01*
X225914819Y-48729999D02*
X226057676Y-48825237D01*
X226057676Y-48825237D02*
X226152914Y-48920475D01*
X226152914Y-48920475D02*
X226200533Y-49015713D01*
X144416667Y-43407200D02*
X144559524Y-43454819D01*
X144559524Y-43454819D02*
X144797619Y-43454819D01*
X144797619Y-43454819D02*
X144892857Y-43407200D01*
X144892857Y-43407200D02*
X144940476Y-43359580D01*
X144940476Y-43359580D02*
X144988095Y-43264342D01*
X144988095Y-43264342D02*
X144988095Y-43169104D01*
X144988095Y-43169104D02*
X144940476Y-43073866D01*
X144940476Y-43073866D02*
X144892857Y-43026247D01*
X144892857Y-43026247D02*
X144797619Y-42978628D01*
X144797619Y-42978628D02*
X144607143Y-42931009D01*
X144607143Y-42931009D02*
X144511905Y-42883390D01*
X144511905Y-42883390D02*
X144464286Y-42835771D01*
X144464286Y-42835771D02*
X144416667Y-42740533D01*
X144416667Y-42740533D02*
X144416667Y-42645295D01*
X144416667Y-42645295D02*
X144464286Y-42550057D01*
X144464286Y-42550057D02*
X144511905Y-42502438D01*
X144511905Y-42502438D02*
X144607143Y-42454819D01*
X144607143Y-42454819D02*
X144845238Y-42454819D01*
X144845238Y-42454819D02*
X144988095Y-42502438D01*
X145321429Y-42454819D02*
X145559524Y-43454819D01*
X145559524Y-43454819D02*
X145750000Y-42740533D01*
X145750000Y-42740533D02*
X145940476Y-43454819D01*
X145940476Y-43454819D02*
X146178572Y-42454819D01*
X147083333Y-43454819D02*
X146511905Y-43454819D01*
X146797619Y-43454819D02*
X146797619Y-42454819D01*
X146797619Y-42454819D02*
X146702381Y-42597676D01*
X146702381Y-42597676D02*
X146607143Y-42692914D01*
X146607143Y-42692914D02*
X146511905Y-42740533D01*
X163916667Y-51907200D02*
X164059524Y-51954819D01*
X164059524Y-51954819D02*
X164297619Y-51954819D01*
X164297619Y-51954819D02*
X164392857Y-51907200D01*
X164392857Y-51907200D02*
X164440476Y-51859580D01*
X164440476Y-51859580D02*
X164488095Y-51764342D01*
X164488095Y-51764342D02*
X164488095Y-51669104D01*
X164488095Y-51669104D02*
X164440476Y-51573866D01*
X164440476Y-51573866D02*
X164392857Y-51526247D01*
X164392857Y-51526247D02*
X164297619Y-51478628D01*
X164297619Y-51478628D02*
X164107143Y-51431009D01*
X164107143Y-51431009D02*
X164011905Y-51383390D01*
X164011905Y-51383390D02*
X163964286Y-51335771D01*
X163964286Y-51335771D02*
X163916667Y-51240533D01*
X163916667Y-51240533D02*
X163916667Y-51145295D01*
X163916667Y-51145295D02*
X163964286Y-51050057D01*
X163964286Y-51050057D02*
X164011905Y-51002438D01*
X164011905Y-51002438D02*
X164107143Y-50954819D01*
X164107143Y-50954819D02*
X164345238Y-50954819D01*
X164345238Y-50954819D02*
X164488095Y-51002438D01*
X164821429Y-50954819D02*
X165059524Y-51954819D01*
X165059524Y-51954819D02*
X165250000Y-51240533D01*
X165250000Y-51240533D02*
X165440476Y-51954819D01*
X165440476Y-51954819D02*
X165678572Y-50954819D01*
X166011905Y-51050057D02*
X166059524Y-51002438D01*
X166059524Y-51002438D02*
X166154762Y-50954819D01*
X166154762Y-50954819D02*
X166392857Y-50954819D01*
X166392857Y-50954819D02*
X166488095Y-51002438D01*
X166488095Y-51002438D02*
X166535714Y-51050057D01*
X166535714Y-51050057D02*
X166583333Y-51145295D01*
X166583333Y-51145295D02*
X166583333Y-51240533D01*
X166583333Y-51240533D02*
X166535714Y-51383390D01*
X166535714Y-51383390D02*
X165964286Y-51954819D01*
X165964286Y-51954819D02*
X166583333Y-51954819D01*
X179643333Y-50324819D02*
X179310000Y-49848628D01*
X179071905Y-50324819D02*
X179071905Y-49324819D01*
X179071905Y-49324819D02*
X179452857Y-49324819D01*
X179452857Y-49324819D02*
X179548095Y-49372438D01*
X179548095Y-49372438D02*
X179595714Y-49420057D01*
X179595714Y-49420057D02*
X179643333Y-49515295D01*
X179643333Y-49515295D02*
X179643333Y-49658152D01*
X179643333Y-49658152D02*
X179595714Y-49753390D01*
X179595714Y-49753390D02*
X179548095Y-49801009D01*
X179548095Y-49801009D02*
X179452857Y-49848628D01*
X179452857Y-49848628D02*
X179071905Y-49848628D01*
X180024286Y-49420057D02*
X180071905Y-49372438D01*
X180071905Y-49372438D02*
X180167143Y-49324819D01*
X180167143Y-49324819D02*
X180405238Y-49324819D01*
X180405238Y-49324819D02*
X180500476Y-49372438D01*
X180500476Y-49372438D02*
X180548095Y-49420057D01*
X180548095Y-49420057D02*
X180595714Y-49515295D01*
X180595714Y-49515295D02*
X180595714Y-49610533D01*
X180595714Y-49610533D02*
X180548095Y-49753390D01*
X180548095Y-49753390D02*
X179976667Y-50324819D01*
X179976667Y-50324819D02*
X180595714Y-50324819D01*
D11*
X149607143Y-71583609D02*
X149940476Y-71583609D01*
X150083333Y-72107419D02*
X149607143Y-72107419D01*
X149607143Y-72107419D02*
X149607143Y-71107419D01*
X149607143Y-71107419D02*
X150083333Y-71107419D01*
X150464286Y-72059800D02*
X150559524Y-72107419D01*
X150559524Y-72107419D02*
X150750000Y-72107419D01*
X150750000Y-72107419D02*
X150845238Y-72059800D01*
X150845238Y-72059800D02*
X150892857Y-71964561D01*
X150892857Y-71964561D02*
X150892857Y-71916942D01*
X150892857Y-71916942D02*
X150845238Y-71821704D01*
X150845238Y-71821704D02*
X150750000Y-71774085D01*
X150750000Y-71774085D02*
X150607143Y-71774085D01*
X150607143Y-71774085D02*
X150511905Y-71726466D01*
X150511905Y-71726466D02*
X150464286Y-71631228D01*
X150464286Y-71631228D02*
X150464286Y-71583609D01*
X150464286Y-71583609D02*
X150511905Y-71488371D01*
X150511905Y-71488371D02*
X150607143Y-71440752D01*
X150607143Y-71440752D02*
X150750000Y-71440752D01*
X150750000Y-71440752D02*
X150845238Y-71488371D01*
X151321429Y-71440752D02*
X151321429Y-72440752D01*
X151321429Y-71488371D02*
X151416667Y-71440752D01*
X151416667Y-71440752D02*
X151607143Y-71440752D01*
X151607143Y-71440752D02*
X151702381Y-71488371D01*
X151702381Y-71488371D02*
X151750000Y-71535990D01*
X151750000Y-71535990D02*
X151797619Y-71631228D01*
X151797619Y-71631228D02*
X151797619Y-71916942D01*
X151797619Y-71916942D02*
X151750000Y-72012180D01*
X151750000Y-72012180D02*
X151702381Y-72059800D01*
X151702381Y-72059800D02*
X151607143Y-72107419D01*
X151607143Y-72107419D02*
X151416667Y-72107419D01*
X151416667Y-72107419D02*
X151321429Y-72059800D01*
X152130953Y-71107419D02*
X152750000Y-71107419D01*
X152750000Y-71107419D02*
X152416667Y-71488371D01*
X152416667Y-71488371D02*
X152559524Y-71488371D01*
X152559524Y-71488371D02*
X152654762Y-71535990D01*
X152654762Y-71535990D02*
X152702381Y-71583609D01*
X152702381Y-71583609D02*
X152750000Y-71678847D01*
X152750000Y-71678847D02*
X152750000Y-71916942D01*
X152750000Y-71916942D02*
X152702381Y-72012180D01*
X152702381Y-72012180D02*
X152654762Y-72059800D01*
X152654762Y-72059800D02*
X152559524Y-72107419D01*
X152559524Y-72107419D02*
X152273810Y-72107419D01*
X152273810Y-72107419D02*
X152178572Y-72059800D01*
X152178572Y-72059800D02*
X152130953Y-72012180D01*
X153130953Y-71202657D02*
X153178572Y-71155038D01*
X153178572Y-71155038D02*
X153273810Y-71107419D01*
X153273810Y-71107419D02*
X153511905Y-71107419D01*
X153511905Y-71107419D02*
X153607143Y-71155038D01*
X153607143Y-71155038D02*
X153654762Y-71202657D01*
X153654762Y-71202657D02*
X153702381Y-71297895D01*
X153702381Y-71297895D02*
X153702381Y-71393133D01*
X153702381Y-71393133D02*
X153654762Y-71535990D01*
X153654762Y-71535990D02*
X153083334Y-72107419D01*
X153083334Y-72107419D02*
X153702381Y-72107419D01*
X154130953Y-71726466D02*
X154892858Y-71726466D01*
X155273810Y-71107419D02*
X155511905Y-72107419D01*
X155511905Y-72107419D02*
X155702381Y-71393133D01*
X155702381Y-71393133D02*
X155892857Y-72107419D01*
X155892857Y-72107419D02*
X156130953Y-71107419D01*
X156511905Y-72107419D02*
X156511905Y-71440752D01*
X156511905Y-71631228D02*
X156559524Y-71535990D01*
X156559524Y-71535990D02*
X156607143Y-71488371D01*
X156607143Y-71488371D02*
X156702381Y-71440752D01*
X156702381Y-71440752D02*
X156797619Y-71440752D01*
X157273810Y-72107419D02*
X157178572Y-72059800D01*
X157178572Y-72059800D02*
X157130953Y-72012180D01*
X157130953Y-72012180D02*
X157083334Y-71916942D01*
X157083334Y-71916942D02*
X157083334Y-71631228D01*
X157083334Y-71631228D02*
X157130953Y-71535990D01*
X157130953Y-71535990D02*
X157178572Y-71488371D01*
X157178572Y-71488371D02*
X157273810Y-71440752D01*
X157273810Y-71440752D02*
X157416667Y-71440752D01*
X157416667Y-71440752D02*
X157511905Y-71488371D01*
X157511905Y-71488371D02*
X157559524Y-71535990D01*
X157559524Y-71535990D02*
X157607143Y-71631228D01*
X157607143Y-71631228D02*
X157607143Y-71916942D01*
X157607143Y-71916942D02*
X157559524Y-72012180D01*
X157559524Y-72012180D02*
X157511905Y-72059800D01*
X157511905Y-72059800D02*
X157416667Y-72107419D01*
X157416667Y-72107419D02*
X157273810Y-72107419D01*
X158178572Y-72107419D02*
X158083334Y-72059800D01*
X158083334Y-72059800D02*
X158035715Y-72012180D01*
X158035715Y-72012180D02*
X157988096Y-71916942D01*
X157988096Y-71916942D02*
X157988096Y-71631228D01*
X157988096Y-71631228D02*
X158035715Y-71535990D01*
X158035715Y-71535990D02*
X158083334Y-71488371D01*
X158083334Y-71488371D02*
X158178572Y-71440752D01*
X158178572Y-71440752D02*
X158321429Y-71440752D01*
X158321429Y-71440752D02*
X158416667Y-71488371D01*
X158416667Y-71488371D02*
X158464286Y-71535990D01*
X158464286Y-71535990D02*
X158511905Y-71631228D01*
X158511905Y-71631228D02*
X158511905Y-71916942D01*
X158511905Y-71916942D02*
X158464286Y-72012180D01*
X158464286Y-72012180D02*
X158416667Y-72059800D01*
X158416667Y-72059800D02*
X158321429Y-72107419D01*
X158321429Y-72107419D02*
X158178572Y-72107419D01*
X158940477Y-72107419D02*
X158940477Y-71440752D01*
X158940477Y-71535990D02*
X158988096Y-71488371D01*
X158988096Y-71488371D02*
X159083334Y-71440752D01*
X159083334Y-71440752D02*
X159226191Y-71440752D01*
X159226191Y-71440752D02*
X159321429Y-71488371D01*
X159321429Y-71488371D02*
X159369048Y-71583609D01*
X159369048Y-71583609D02*
X159369048Y-72107419D01*
X159369048Y-71583609D02*
X159416667Y-71488371D01*
X159416667Y-71488371D02*
X159511905Y-71440752D01*
X159511905Y-71440752D02*
X159654762Y-71440752D01*
X159654762Y-71440752D02*
X159750001Y-71488371D01*
X159750001Y-71488371D02*
X159797620Y-71583609D01*
X159797620Y-71583609D02*
X159797620Y-72107419D01*
X160273810Y-71726466D02*
X161035715Y-71726466D01*
X161416667Y-71107419D02*
X162035714Y-71107419D01*
X162035714Y-71107419D02*
X161702381Y-71488371D01*
X161702381Y-71488371D02*
X161845238Y-71488371D01*
X161845238Y-71488371D02*
X161940476Y-71535990D01*
X161940476Y-71535990D02*
X161988095Y-71583609D01*
X161988095Y-71583609D02*
X162035714Y-71678847D01*
X162035714Y-71678847D02*
X162035714Y-71916942D01*
X162035714Y-71916942D02*
X161988095Y-72012180D01*
X161988095Y-72012180D02*
X161940476Y-72059800D01*
X161940476Y-72059800D02*
X161845238Y-72107419D01*
X161845238Y-72107419D02*
X161559524Y-72107419D01*
X161559524Y-72107419D02*
X161464286Y-72059800D01*
X161464286Y-72059800D02*
X161416667Y-72012180D01*
X162416667Y-71202657D02*
X162464286Y-71155038D01*
X162464286Y-71155038D02*
X162559524Y-71107419D01*
X162559524Y-71107419D02*
X162797619Y-71107419D01*
X162797619Y-71107419D02*
X162892857Y-71155038D01*
X162892857Y-71155038D02*
X162940476Y-71202657D01*
X162940476Y-71202657D02*
X162988095Y-71297895D01*
X162988095Y-71297895D02*
X162988095Y-71393133D01*
X162988095Y-71393133D02*
X162940476Y-71535990D01*
X162940476Y-71535990D02*
X162369048Y-72107419D01*
X162369048Y-72107419D02*
X162988095Y-72107419D01*
X163416667Y-72107419D02*
X163416667Y-71107419D01*
X163416667Y-71107419D02*
X163654762Y-71107419D01*
X163654762Y-71107419D02*
X163797619Y-71155038D01*
X163797619Y-71155038D02*
X163892857Y-71250276D01*
X163892857Y-71250276D02*
X163940476Y-71345514D01*
X163940476Y-71345514D02*
X163988095Y-71535990D01*
X163988095Y-71535990D02*
X163988095Y-71678847D01*
X163988095Y-71678847D02*
X163940476Y-71869323D01*
X163940476Y-71869323D02*
X163892857Y-71964561D01*
X163892857Y-71964561D02*
X163797619Y-72059800D01*
X163797619Y-72059800D02*
X163654762Y-72107419D01*
X163654762Y-72107419D02*
X163416667Y-72107419D01*
X164940476Y-72107419D02*
X164369048Y-72107419D01*
X164654762Y-72107419D02*
X164654762Y-71107419D01*
X164654762Y-71107419D02*
X164559524Y-71250276D01*
X164559524Y-71250276D02*
X164464286Y-71345514D01*
X164464286Y-71345514D02*
X164369048Y-71393133D01*
X131327381Y-58257419D02*
X131517857Y-58257419D01*
X131517857Y-58257419D02*
X131613095Y-58209800D01*
X131613095Y-58209800D02*
X131660714Y-58162180D01*
X131660714Y-58162180D02*
X131755952Y-58019323D01*
X131755952Y-58019323D02*
X131803571Y-57828847D01*
X131803571Y-57828847D02*
X131803571Y-57447895D01*
X131803571Y-57447895D02*
X131755952Y-57352657D01*
X131755952Y-57352657D02*
X131708333Y-57305038D01*
X131708333Y-57305038D02*
X131613095Y-57257419D01*
X131613095Y-57257419D02*
X131422619Y-57257419D01*
X131422619Y-57257419D02*
X131327381Y-57305038D01*
X131327381Y-57305038D02*
X131279762Y-57352657D01*
X131279762Y-57352657D02*
X131232143Y-57447895D01*
X131232143Y-57447895D02*
X131232143Y-57685990D01*
X131232143Y-57685990D02*
X131279762Y-57781228D01*
X131279762Y-57781228D02*
X131327381Y-57828847D01*
X131327381Y-57828847D02*
X131422619Y-57876466D01*
X131422619Y-57876466D02*
X131613095Y-57876466D01*
X131613095Y-57876466D02*
X131708333Y-57828847D01*
X131708333Y-57828847D02*
X131755952Y-57781228D01*
X131755952Y-57781228D02*
X131803571Y-57685990D01*
X132232143Y-58162180D02*
X132279762Y-58209800D01*
X132279762Y-58209800D02*
X132232143Y-58257419D01*
X132232143Y-58257419D02*
X132184524Y-58209800D01*
X132184524Y-58209800D02*
X132232143Y-58162180D01*
X132232143Y-58162180D02*
X132232143Y-58257419D01*
X132660714Y-57352657D02*
X132708333Y-57305038D01*
X132708333Y-57305038D02*
X132803571Y-57257419D01*
X132803571Y-57257419D02*
X133041666Y-57257419D01*
X133041666Y-57257419D02*
X133136904Y-57305038D01*
X133136904Y-57305038D02*
X133184523Y-57352657D01*
X133184523Y-57352657D02*
X133232142Y-57447895D01*
X133232142Y-57447895D02*
X133232142Y-57543133D01*
X133232142Y-57543133D02*
X133184523Y-57685990D01*
X133184523Y-57685990D02*
X132613095Y-58257419D01*
X132613095Y-58257419D02*
X133232142Y-58257419D01*
X134136904Y-57257419D02*
X133660714Y-57257419D01*
X133660714Y-57257419D02*
X133613095Y-57733609D01*
X133613095Y-57733609D02*
X133660714Y-57685990D01*
X133660714Y-57685990D02*
X133755952Y-57638371D01*
X133755952Y-57638371D02*
X133994047Y-57638371D01*
X133994047Y-57638371D02*
X134089285Y-57685990D01*
X134089285Y-57685990D02*
X134136904Y-57733609D01*
X134136904Y-57733609D02*
X134184523Y-57828847D01*
X134184523Y-57828847D02*
X134184523Y-58066942D01*
X134184523Y-58066942D02*
X134136904Y-58162180D01*
X134136904Y-58162180D02*
X134089285Y-58209800D01*
X134089285Y-58209800D02*
X133994047Y-58257419D01*
X133994047Y-58257419D02*
X133755952Y-58257419D01*
X133755952Y-58257419D02*
X133660714Y-58209800D01*
X133660714Y-58209800D02*
X133613095Y-58162180D01*
X134803571Y-57257419D02*
X134898809Y-57257419D01*
X134898809Y-57257419D02*
X134994047Y-57305038D01*
X134994047Y-57305038D02*
X135041666Y-57352657D01*
X135041666Y-57352657D02*
X135089285Y-57447895D01*
X135089285Y-57447895D02*
X135136904Y-57638371D01*
X135136904Y-57638371D02*
X135136904Y-57876466D01*
X135136904Y-57876466D02*
X135089285Y-58066942D01*
X135089285Y-58066942D02*
X135041666Y-58162180D01*
X135041666Y-58162180D02*
X134994047Y-58209800D01*
X134994047Y-58209800D02*
X134898809Y-58257419D01*
X134898809Y-58257419D02*
X134803571Y-58257419D01*
X134803571Y-58257419D02*
X134708333Y-58209800D01*
X134708333Y-58209800D02*
X134660714Y-58162180D01*
X134660714Y-58162180D02*
X134613095Y-58066942D01*
X134613095Y-58066942D02*
X134565476Y-57876466D01*
X134565476Y-57876466D02*
X134565476Y-57638371D01*
X134565476Y-57638371D02*
X134613095Y-57447895D01*
X134613095Y-57447895D02*
X134660714Y-57352657D01*
X134660714Y-57352657D02*
X134708333Y-57305038D01*
X134708333Y-57305038D02*
X134803571Y-57257419D01*
X135755952Y-57257419D02*
X135851190Y-57257419D01*
X135851190Y-57257419D02*
X135946428Y-57305038D01*
X135946428Y-57305038D02*
X135994047Y-57352657D01*
X135994047Y-57352657D02*
X136041666Y-57447895D01*
X136041666Y-57447895D02*
X136089285Y-57638371D01*
X136089285Y-57638371D02*
X136089285Y-57876466D01*
X136089285Y-57876466D02*
X136041666Y-58066942D01*
X136041666Y-58066942D02*
X135994047Y-58162180D01*
X135994047Y-58162180D02*
X135946428Y-58209800D01*
X135946428Y-58209800D02*
X135851190Y-58257419D01*
X135851190Y-58257419D02*
X135755952Y-58257419D01*
X135755952Y-58257419D02*
X135660714Y-58209800D01*
X135660714Y-58209800D02*
X135613095Y-58162180D01*
X135613095Y-58162180D02*
X135565476Y-58066942D01*
X135565476Y-58066942D02*
X135517857Y-57876466D01*
X135517857Y-57876466D02*
X135517857Y-57638371D01*
X135517857Y-57638371D02*
X135565476Y-57447895D01*
X135565476Y-57447895D02*
X135613095Y-57352657D01*
X135613095Y-57352657D02*
X135660714Y-57305038D01*
X135660714Y-57305038D02*
X135755952Y-57257419D01*
X137279762Y-58257419D02*
X137279762Y-57590752D01*
X137279762Y-57685990D02*
X137327381Y-57638371D01*
X137327381Y-57638371D02*
X137422619Y-57590752D01*
X137422619Y-57590752D02*
X137565476Y-57590752D01*
X137565476Y-57590752D02*
X137660714Y-57638371D01*
X137660714Y-57638371D02*
X137708333Y-57733609D01*
X137708333Y-57733609D02*
X137708333Y-58257419D01*
X137708333Y-57733609D02*
X137755952Y-57638371D01*
X137755952Y-57638371D02*
X137851190Y-57590752D01*
X137851190Y-57590752D02*
X137994047Y-57590752D01*
X137994047Y-57590752D02*
X138089286Y-57638371D01*
X138089286Y-57638371D02*
X138136905Y-57733609D01*
X138136905Y-57733609D02*
X138136905Y-58257419D01*
X138613095Y-58257419D02*
X138613095Y-57590752D01*
X138613095Y-57685990D02*
X138660714Y-57638371D01*
X138660714Y-57638371D02*
X138755952Y-57590752D01*
X138755952Y-57590752D02*
X138898809Y-57590752D01*
X138898809Y-57590752D02*
X138994047Y-57638371D01*
X138994047Y-57638371D02*
X139041666Y-57733609D01*
X139041666Y-57733609D02*
X139041666Y-58257419D01*
X139041666Y-57733609D02*
X139089285Y-57638371D01*
X139089285Y-57638371D02*
X139184523Y-57590752D01*
X139184523Y-57590752D02*
X139327380Y-57590752D01*
X139327380Y-57590752D02*
X139422619Y-57638371D01*
X139422619Y-57638371D02*
X139470238Y-57733609D01*
X139470238Y-57733609D02*
X139470238Y-58257419D01*
X152833334Y-68257419D02*
X153452381Y-68257419D01*
X153452381Y-68257419D02*
X153119048Y-68638371D01*
X153119048Y-68638371D02*
X153261905Y-68638371D01*
X153261905Y-68638371D02*
X153357143Y-68685990D01*
X153357143Y-68685990D02*
X153404762Y-68733609D01*
X153404762Y-68733609D02*
X153452381Y-68828847D01*
X153452381Y-68828847D02*
X153452381Y-69066942D01*
X153452381Y-69066942D02*
X153404762Y-69162180D01*
X153404762Y-69162180D02*
X153357143Y-69209800D01*
X153357143Y-69209800D02*
X153261905Y-69257419D01*
X153261905Y-69257419D02*
X152976191Y-69257419D01*
X152976191Y-69257419D02*
X152880953Y-69209800D01*
X152880953Y-69209800D02*
X152833334Y-69162180D01*
X154309524Y-68257419D02*
X154119048Y-68257419D01*
X154119048Y-68257419D02*
X154023810Y-68305038D01*
X154023810Y-68305038D02*
X153976191Y-68352657D01*
X153976191Y-68352657D02*
X153880953Y-68495514D01*
X153880953Y-68495514D02*
X153833334Y-68685990D01*
X153833334Y-68685990D02*
X153833334Y-69066942D01*
X153833334Y-69066942D02*
X153880953Y-69162180D01*
X153880953Y-69162180D02*
X153928572Y-69209800D01*
X153928572Y-69209800D02*
X154023810Y-69257419D01*
X154023810Y-69257419D02*
X154214286Y-69257419D01*
X154214286Y-69257419D02*
X154309524Y-69209800D01*
X154309524Y-69209800D02*
X154357143Y-69162180D01*
X154357143Y-69162180D02*
X154404762Y-69066942D01*
X154404762Y-69066942D02*
X154404762Y-68828847D01*
X154404762Y-68828847D02*
X154357143Y-68733609D01*
X154357143Y-68733609D02*
X154309524Y-68685990D01*
X154309524Y-68685990D02*
X154214286Y-68638371D01*
X154214286Y-68638371D02*
X154023810Y-68638371D01*
X154023810Y-68638371D02*
X153928572Y-68685990D01*
X153928572Y-68685990D02*
X153880953Y-68733609D01*
X153880953Y-68733609D02*
X153833334Y-68828847D01*
X154833334Y-69162180D02*
X154880953Y-69209800D01*
X154880953Y-69209800D02*
X154833334Y-69257419D01*
X154833334Y-69257419D02*
X154785715Y-69209800D01*
X154785715Y-69209800D02*
X154833334Y-69162180D01*
X154833334Y-69162180D02*
X154833334Y-69257419D01*
X155785714Y-68257419D02*
X155309524Y-68257419D01*
X155309524Y-68257419D02*
X155261905Y-68733609D01*
X155261905Y-68733609D02*
X155309524Y-68685990D01*
X155309524Y-68685990D02*
X155404762Y-68638371D01*
X155404762Y-68638371D02*
X155642857Y-68638371D01*
X155642857Y-68638371D02*
X155738095Y-68685990D01*
X155738095Y-68685990D02*
X155785714Y-68733609D01*
X155785714Y-68733609D02*
X155833333Y-68828847D01*
X155833333Y-68828847D02*
X155833333Y-69066942D01*
X155833333Y-69066942D02*
X155785714Y-69162180D01*
X155785714Y-69162180D02*
X155738095Y-69209800D01*
X155738095Y-69209800D02*
X155642857Y-69257419D01*
X155642857Y-69257419D02*
X155404762Y-69257419D01*
X155404762Y-69257419D02*
X155309524Y-69209800D01*
X155309524Y-69209800D02*
X155261905Y-69162180D01*
X156214286Y-68352657D02*
X156261905Y-68305038D01*
X156261905Y-68305038D02*
X156357143Y-68257419D01*
X156357143Y-68257419D02*
X156595238Y-68257419D01*
X156595238Y-68257419D02*
X156690476Y-68305038D01*
X156690476Y-68305038D02*
X156738095Y-68352657D01*
X156738095Y-68352657D02*
X156785714Y-68447895D01*
X156785714Y-68447895D02*
X156785714Y-68543133D01*
X156785714Y-68543133D02*
X156738095Y-68685990D01*
X156738095Y-68685990D02*
X156166667Y-69257419D01*
X156166667Y-69257419D02*
X156785714Y-69257419D01*
X157642857Y-68590752D02*
X157642857Y-69257419D01*
X157404762Y-68209800D02*
X157166667Y-68924085D01*
X157166667Y-68924085D02*
X157785714Y-68924085D01*
X158357143Y-68257419D02*
X158452381Y-68257419D01*
X158452381Y-68257419D02*
X158547619Y-68305038D01*
X158547619Y-68305038D02*
X158595238Y-68352657D01*
X158595238Y-68352657D02*
X158642857Y-68447895D01*
X158642857Y-68447895D02*
X158690476Y-68638371D01*
X158690476Y-68638371D02*
X158690476Y-68876466D01*
X158690476Y-68876466D02*
X158642857Y-69066942D01*
X158642857Y-69066942D02*
X158595238Y-69162180D01*
X158595238Y-69162180D02*
X158547619Y-69209800D01*
X158547619Y-69209800D02*
X158452381Y-69257419D01*
X158452381Y-69257419D02*
X158357143Y-69257419D01*
X158357143Y-69257419D02*
X158261905Y-69209800D01*
X158261905Y-69209800D02*
X158214286Y-69162180D01*
X158214286Y-69162180D02*
X158166667Y-69066942D01*
X158166667Y-69066942D02*
X158119048Y-68876466D01*
X158119048Y-68876466D02*
X158119048Y-68638371D01*
X158119048Y-68638371D02*
X158166667Y-68447895D01*
X158166667Y-68447895D02*
X158214286Y-68352657D01*
X158214286Y-68352657D02*
X158261905Y-68305038D01*
X158261905Y-68305038D02*
X158357143Y-68257419D01*
X159880953Y-69257419D02*
X159880953Y-68590752D01*
X159880953Y-68685990D02*
X159928572Y-68638371D01*
X159928572Y-68638371D02*
X160023810Y-68590752D01*
X160023810Y-68590752D02*
X160166667Y-68590752D01*
X160166667Y-68590752D02*
X160261905Y-68638371D01*
X160261905Y-68638371D02*
X160309524Y-68733609D01*
X160309524Y-68733609D02*
X160309524Y-69257419D01*
X160309524Y-68733609D02*
X160357143Y-68638371D01*
X160357143Y-68638371D02*
X160452381Y-68590752D01*
X160452381Y-68590752D02*
X160595238Y-68590752D01*
X160595238Y-68590752D02*
X160690477Y-68638371D01*
X160690477Y-68638371D02*
X160738096Y-68733609D01*
X160738096Y-68733609D02*
X160738096Y-69257419D01*
X161214286Y-69257419D02*
X161214286Y-68590752D01*
X161214286Y-68685990D02*
X161261905Y-68638371D01*
X161261905Y-68638371D02*
X161357143Y-68590752D01*
X161357143Y-68590752D02*
X161500000Y-68590752D01*
X161500000Y-68590752D02*
X161595238Y-68638371D01*
X161595238Y-68638371D02*
X161642857Y-68733609D01*
X161642857Y-68733609D02*
X161642857Y-69257419D01*
X161642857Y-68733609D02*
X161690476Y-68638371D01*
X161690476Y-68638371D02*
X161785714Y-68590752D01*
X161785714Y-68590752D02*
X161928571Y-68590752D01*
X161928571Y-68590752D02*
X162023810Y-68638371D01*
X162023810Y-68638371D02*
X162071429Y-68733609D01*
X162071429Y-68733609D02*
X162071429Y-69257419D01*
X174434524Y-57757419D02*
X175101190Y-57757419D01*
X175101190Y-57757419D02*
X174672619Y-58757419D01*
X175482143Y-58662180D02*
X175529762Y-58709800D01*
X175529762Y-58709800D02*
X175482143Y-58757419D01*
X175482143Y-58757419D02*
X175434524Y-58709800D01*
X175434524Y-58709800D02*
X175482143Y-58662180D01*
X175482143Y-58662180D02*
X175482143Y-58757419D01*
X175910714Y-57852657D02*
X175958333Y-57805038D01*
X175958333Y-57805038D02*
X176053571Y-57757419D01*
X176053571Y-57757419D02*
X176291666Y-57757419D01*
X176291666Y-57757419D02*
X176386904Y-57805038D01*
X176386904Y-57805038D02*
X176434523Y-57852657D01*
X176434523Y-57852657D02*
X176482142Y-57947895D01*
X176482142Y-57947895D02*
X176482142Y-58043133D01*
X176482142Y-58043133D02*
X176434523Y-58185990D01*
X176434523Y-58185990D02*
X175863095Y-58757419D01*
X175863095Y-58757419D02*
X176482142Y-58757419D01*
X177386904Y-57757419D02*
X176910714Y-57757419D01*
X176910714Y-57757419D02*
X176863095Y-58233609D01*
X176863095Y-58233609D02*
X176910714Y-58185990D01*
X176910714Y-58185990D02*
X177005952Y-58138371D01*
X177005952Y-58138371D02*
X177244047Y-58138371D01*
X177244047Y-58138371D02*
X177339285Y-58185990D01*
X177339285Y-58185990D02*
X177386904Y-58233609D01*
X177386904Y-58233609D02*
X177434523Y-58328847D01*
X177434523Y-58328847D02*
X177434523Y-58566942D01*
X177434523Y-58566942D02*
X177386904Y-58662180D01*
X177386904Y-58662180D02*
X177339285Y-58709800D01*
X177339285Y-58709800D02*
X177244047Y-58757419D01*
X177244047Y-58757419D02*
X177005952Y-58757419D01*
X177005952Y-58757419D02*
X176910714Y-58709800D01*
X176910714Y-58709800D02*
X176863095Y-58662180D01*
X178053571Y-57757419D02*
X178148809Y-57757419D01*
X178148809Y-57757419D02*
X178244047Y-57805038D01*
X178244047Y-57805038D02*
X178291666Y-57852657D01*
X178291666Y-57852657D02*
X178339285Y-57947895D01*
X178339285Y-57947895D02*
X178386904Y-58138371D01*
X178386904Y-58138371D02*
X178386904Y-58376466D01*
X178386904Y-58376466D02*
X178339285Y-58566942D01*
X178339285Y-58566942D02*
X178291666Y-58662180D01*
X178291666Y-58662180D02*
X178244047Y-58709800D01*
X178244047Y-58709800D02*
X178148809Y-58757419D01*
X178148809Y-58757419D02*
X178053571Y-58757419D01*
X178053571Y-58757419D02*
X177958333Y-58709800D01*
X177958333Y-58709800D02*
X177910714Y-58662180D01*
X177910714Y-58662180D02*
X177863095Y-58566942D01*
X177863095Y-58566942D02*
X177815476Y-58376466D01*
X177815476Y-58376466D02*
X177815476Y-58138371D01*
X177815476Y-58138371D02*
X177863095Y-57947895D01*
X177863095Y-57947895D02*
X177910714Y-57852657D01*
X177910714Y-57852657D02*
X177958333Y-57805038D01*
X177958333Y-57805038D02*
X178053571Y-57757419D01*
X179005952Y-57757419D02*
X179101190Y-57757419D01*
X179101190Y-57757419D02*
X179196428Y-57805038D01*
X179196428Y-57805038D02*
X179244047Y-57852657D01*
X179244047Y-57852657D02*
X179291666Y-57947895D01*
X179291666Y-57947895D02*
X179339285Y-58138371D01*
X179339285Y-58138371D02*
X179339285Y-58376466D01*
X179339285Y-58376466D02*
X179291666Y-58566942D01*
X179291666Y-58566942D02*
X179244047Y-58662180D01*
X179244047Y-58662180D02*
X179196428Y-58709800D01*
X179196428Y-58709800D02*
X179101190Y-58757419D01*
X179101190Y-58757419D02*
X179005952Y-58757419D01*
X179005952Y-58757419D02*
X178910714Y-58709800D01*
X178910714Y-58709800D02*
X178863095Y-58662180D01*
X178863095Y-58662180D02*
X178815476Y-58566942D01*
X178815476Y-58566942D02*
X178767857Y-58376466D01*
X178767857Y-58376466D02*
X178767857Y-58138371D01*
X178767857Y-58138371D02*
X178815476Y-57947895D01*
X178815476Y-57947895D02*
X178863095Y-57852657D01*
X178863095Y-57852657D02*
X178910714Y-57805038D01*
X178910714Y-57805038D02*
X179005952Y-57757419D01*
X180529762Y-58757419D02*
X180529762Y-58090752D01*
X180529762Y-58185990D02*
X180577381Y-58138371D01*
X180577381Y-58138371D02*
X180672619Y-58090752D01*
X180672619Y-58090752D02*
X180815476Y-58090752D01*
X180815476Y-58090752D02*
X180910714Y-58138371D01*
X180910714Y-58138371D02*
X180958333Y-58233609D01*
X180958333Y-58233609D02*
X180958333Y-58757419D01*
X180958333Y-58233609D02*
X181005952Y-58138371D01*
X181005952Y-58138371D02*
X181101190Y-58090752D01*
X181101190Y-58090752D02*
X181244047Y-58090752D01*
X181244047Y-58090752D02*
X181339286Y-58138371D01*
X181339286Y-58138371D02*
X181386905Y-58233609D01*
X181386905Y-58233609D02*
X181386905Y-58757419D01*
X181863095Y-58757419D02*
X181863095Y-58090752D01*
X181863095Y-58185990D02*
X181910714Y-58138371D01*
X181910714Y-58138371D02*
X182005952Y-58090752D01*
X182005952Y-58090752D02*
X182148809Y-58090752D01*
X182148809Y-58090752D02*
X182244047Y-58138371D01*
X182244047Y-58138371D02*
X182291666Y-58233609D01*
X182291666Y-58233609D02*
X182291666Y-58757419D01*
X182291666Y-58233609D02*
X182339285Y-58138371D01*
X182339285Y-58138371D02*
X182434523Y-58090752D01*
X182434523Y-58090752D02*
X182577380Y-58090752D01*
X182577380Y-58090752D02*
X182672619Y-58138371D01*
X182672619Y-58138371D02*
X182720238Y-58233609D01*
X182720238Y-58233609D02*
X182720238Y-58757419D01*
X169607143Y-65852657D02*
X169654762Y-65805038D01*
X169654762Y-65805038D02*
X169750000Y-65757419D01*
X169750000Y-65757419D02*
X169988095Y-65757419D01*
X169988095Y-65757419D02*
X170083333Y-65805038D01*
X170083333Y-65805038D02*
X170130952Y-65852657D01*
X170130952Y-65852657D02*
X170178571Y-65947895D01*
X170178571Y-65947895D02*
X170178571Y-66043133D01*
X170178571Y-66043133D02*
X170130952Y-66185990D01*
X170130952Y-66185990D02*
X169559524Y-66757419D01*
X169559524Y-66757419D02*
X170178571Y-66757419D01*
X170607143Y-66662180D02*
X170654762Y-66709800D01*
X170654762Y-66709800D02*
X170607143Y-66757419D01*
X170607143Y-66757419D02*
X170559524Y-66709800D01*
X170559524Y-66709800D02*
X170607143Y-66662180D01*
X170607143Y-66662180D02*
X170607143Y-66757419D01*
X171559523Y-65757419D02*
X171083333Y-65757419D01*
X171083333Y-65757419D02*
X171035714Y-66233609D01*
X171035714Y-66233609D02*
X171083333Y-66185990D01*
X171083333Y-66185990D02*
X171178571Y-66138371D01*
X171178571Y-66138371D02*
X171416666Y-66138371D01*
X171416666Y-66138371D02*
X171511904Y-66185990D01*
X171511904Y-66185990D02*
X171559523Y-66233609D01*
X171559523Y-66233609D02*
X171607142Y-66328847D01*
X171607142Y-66328847D02*
X171607142Y-66566942D01*
X171607142Y-66566942D02*
X171559523Y-66662180D01*
X171559523Y-66662180D02*
X171511904Y-66709800D01*
X171511904Y-66709800D02*
X171416666Y-66757419D01*
X171416666Y-66757419D02*
X171178571Y-66757419D01*
X171178571Y-66757419D02*
X171083333Y-66709800D01*
X171083333Y-66709800D02*
X171035714Y-66662180D01*
X172226190Y-65757419D02*
X172321428Y-65757419D01*
X172321428Y-65757419D02*
X172416666Y-65805038D01*
X172416666Y-65805038D02*
X172464285Y-65852657D01*
X172464285Y-65852657D02*
X172511904Y-65947895D01*
X172511904Y-65947895D02*
X172559523Y-66138371D01*
X172559523Y-66138371D02*
X172559523Y-66376466D01*
X172559523Y-66376466D02*
X172511904Y-66566942D01*
X172511904Y-66566942D02*
X172464285Y-66662180D01*
X172464285Y-66662180D02*
X172416666Y-66709800D01*
X172416666Y-66709800D02*
X172321428Y-66757419D01*
X172321428Y-66757419D02*
X172226190Y-66757419D01*
X172226190Y-66757419D02*
X172130952Y-66709800D01*
X172130952Y-66709800D02*
X172083333Y-66662180D01*
X172083333Y-66662180D02*
X172035714Y-66566942D01*
X172035714Y-66566942D02*
X171988095Y-66376466D01*
X171988095Y-66376466D02*
X171988095Y-66138371D01*
X171988095Y-66138371D02*
X172035714Y-65947895D01*
X172035714Y-65947895D02*
X172083333Y-65852657D01*
X172083333Y-65852657D02*
X172130952Y-65805038D01*
X172130952Y-65805038D02*
X172226190Y-65757419D01*
X173178571Y-65757419D02*
X173273809Y-65757419D01*
X173273809Y-65757419D02*
X173369047Y-65805038D01*
X173369047Y-65805038D02*
X173416666Y-65852657D01*
X173416666Y-65852657D02*
X173464285Y-65947895D01*
X173464285Y-65947895D02*
X173511904Y-66138371D01*
X173511904Y-66138371D02*
X173511904Y-66376466D01*
X173511904Y-66376466D02*
X173464285Y-66566942D01*
X173464285Y-66566942D02*
X173416666Y-66662180D01*
X173416666Y-66662180D02*
X173369047Y-66709800D01*
X173369047Y-66709800D02*
X173273809Y-66757419D01*
X173273809Y-66757419D02*
X173178571Y-66757419D01*
X173178571Y-66757419D02*
X173083333Y-66709800D01*
X173083333Y-66709800D02*
X173035714Y-66662180D01*
X173035714Y-66662180D02*
X172988095Y-66566942D01*
X172988095Y-66566942D02*
X172940476Y-66376466D01*
X172940476Y-66376466D02*
X172940476Y-66138371D01*
X172940476Y-66138371D02*
X172988095Y-65947895D01*
X172988095Y-65947895D02*
X173035714Y-65852657D01*
X173035714Y-65852657D02*
X173083333Y-65805038D01*
X173083333Y-65805038D02*
X173178571Y-65757419D01*
X174130952Y-65757419D02*
X174226190Y-65757419D01*
X174226190Y-65757419D02*
X174321428Y-65805038D01*
X174321428Y-65805038D02*
X174369047Y-65852657D01*
X174369047Y-65852657D02*
X174416666Y-65947895D01*
X174416666Y-65947895D02*
X174464285Y-66138371D01*
X174464285Y-66138371D02*
X174464285Y-66376466D01*
X174464285Y-66376466D02*
X174416666Y-66566942D01*
X174416666Y-66566942D02*
X174369047Y-66662180D01*
X174369047Y-66662180D02*
X174321428Y-66709800D01*
X174321428Y-66709800D02*
X174226190Y-66757419D01*
X174226190Y-66757419D02*
X174130952Y-66757419D01*
X174130952Y-66757419D02*
X174035714Y-66709800D01*
X174035714Y-66709800D02*
X173988095Y-66662180D01*
X173988095Y-66662180D02*
X173940476Y-66566942D01*
X173940476Y-66566942D02*
X173892857Y-66376466D01*
X173892857Y-66376466D02*
X173892857Y-66138371D01*
X173892857Y-66138371D02*
X173940476Y-65947895D01*
X173940476Y-65947895D02*
X173988095Y-65852657D01*
X173988095Y-65852657D02*
X174035714Y-65805038D01*
X174035714Y-65805038D02*
X174130952Y-65757419D01*
X175654762Y-66757419D02*
X175654762Y-66090752D01*
X175654762Y-66185990D02*
X175702381Y-66138371D01*
X175702381Y-66138371D02*
X175797619Y-66090752D01*
X175797619Y-66090752D02*
X175940476Y-66090752D01*
X175940476Y-66090752D02*
X176035714Y-66138371D01*
X176035714Y-66138371D02*
X176083333Y-66233609D01*
X176083333Y-66233609D02*
X176083333Y-66757419D01*
X176083333Y-66233609D02*
X176130952Y-66138371D01*
X176130952Y-66138371D02*
X176226190Y-66090752D01*
X176226190Y-66090752D02*
X176369047Y-66090752D01*
X176369047Y-66090752D02*
X176464286Y-66138371D01*
X176464286Y-66138371D02*
X176511905Y-66233609D01*
X176511905Y-66233609D02*
X176511905Y-66757419D01*
X176988095Y-66757419D02*
X176988095Y-66090752D01*
X176988095Y-66185990D02*
X177035714Y-66138371D01*
X177035714Y-66138371D02*
X177130952Y-66090752D01*
X177130952Y-66090752D02*
X177273809Y-66090752D01*
X177273809Y-66090752D02*
X177369047Y-66138371D01*
X177369047Y-66138371D02*
X177416666Y-66233609D01*
X177416666Y-66233609D02*
X177416666Y-66757419D01*
X177416666Y-66233609D02*
X177464285Y-66138371D01*
X177464285Y-66138371D02*
X177559523Y-66090752D01*
X177559523Y-66090752D02*
X177702380Y-66090752D01*
X177702380Y-66090752D02*
X177797619Y-66138371D01*
X177797619Y-66138371D02*
X177845238Y-66233609D01*
X177845238Y-66233609D02*
X177845238Y-66757419D01*
D12*
%TO.C,DS2*%
X131260000Y-103860000D02*
X131260000Y-140140000D01*
X131260000Y-140140000D02*
X211540000Y-140140000D01*
X131270000Y-103860000D02*
X132060000Y-103860000D01*
X134400000Y-109500000D02*
X207400000Y-109500000D01*
X134400000Y-134500000D02*
X134400000Y-109500000D01*
X137900000Y-103500000D02*
X140900000Y-103500000D01*
X139100280Y-128999320D02*
X139100280Y-115000000D01*
X139600000Y-114500000D02*
X203100000Y-114500000D01*
X203100660Y-129500000D02*
X139600000Y-129500000D01*
X203600000Y-115000000D02*
X203600000Y-129000000D01*
X207400000Y-109500000D02*
X207400000Y-134500000D01*
X207400000Y-134500000D02*
X134400000Y-134500000D01*
X211540000Y-103860000D02*
X132060000Y-103860000D01*
X211540000Y-140140000D02*
X211540000Y-103860000D01*
X139100280Y-114998840D02*
G75*
G02*
X139600660Y-114498460I500380J0D01*
G01*
X139600660Y-129499700D02*
G75*
G02*
X139100280Y-128999320I0J500380D01*
G01*
X203100000Y-114500000D02*
G75*
G02*
X203600000Y-115000000I0J-500000D01*
G01*
X203601040Y-128999320D02*
G75*
G02*
X203100660Y-129499740I-500440J20D01*
G01*
%TO.C,R3*%
X131630000Y-93730000D02*
X131630000Y-100270000D01*
X131630000Y-100270000D02*
X131960000Y-100270000D01*
X131960000Y-93730000D02*
X131630000Y-93730000D01*
X134040000Y-93730000D02*
X134370000Y-93730000D01*
X134370000Y-93730000D02*
X134370000Y-100270000D01*
X134370000Y-100270000D02*
X134040000Y-100270000D01*
%TO.C,D1*%
X224045000Y-46670000D02*
X220955000Y-46670000D01*
X222500462Y-52220000D02*
G75*
G02*
X220955170Y-46670000I-462J2990000D01*
G01*
X224044830Y-46670000D02*
G75*
G02*
X222499538Y-52220000I-1544830J-2560000D01*
G01*
X225000000Y-49230000D02*
G75*
G02*
X220000000Y-49230000I-2500000J0D01*
G01*
X220000000Y-49230000D02*
G75*
G02*
X225000000Y-49230000I2500000J0D01*
G01*
%TO.C,SW1*%
X142250000Y-46500000D02*
X142250000Y-48000000D01*
X143500000Y-50500000D02*
X148000000Y-50500000D01*
X148000000Y-44000000D02*
X143500000Y-44000000D01*
X149250000Y-48000000D02*
X149250000Y-46500000D01*
%TO.C,SW2*%
X161750000Y-46500000D02*
X161750000Y-48000000D01*
X163000000Y-50500000D02*
X167500000Y-50500000D01*
X167500000Y-44000000D02*
X163000000Y-44000000D01*
X168750000Y-48000000D02*
X168750000Y-46500000D01*
%TO.C,R2*%
X176540000Y-46130000D02*
X176540000Y-46460000D01*
X176540000Y-48870000D02*
X176540000Y-48540000D01*
X183080000Y-46130000D02*
X176540000Y-46130000D01*
X183080000Y-46460000D02*
X183080000Y-46130000D01*
X183080000Y-48540000D02*
X183080000Y-48870000D01*
X183080000Y-48870000D02*
X176540000Y-48870000D01*
%TO.C,Esp32-Wroom-32D1*%
D10*
X130650000Y-61650000D02*
X182350000Y-61650000D01*
X182350000Y-90350000D01*
X130650000Y-90350000D01*
X130650000Y-61650000D01*
D11*
X134500000Y-63900000D02*
G75*
G02*
X131500000Y-63900000I-1500000J0D01*
G01*
X131500000Y-63900000D02*
G75*
G02*
X134500000Y-63900000I1500000J0D01*
G01*
X134500000Y-87900000D02*
G75*
G02*
X131500000Y-87900000I-1500000J0D01*
G01*
X131500000Y-87900000D02*
G75*
G02*
X134500000Y-87900000I1500000J0D01*
G01*
X181250000Y-87900000D02*
G75*
G02*
X178250000Y-87900000I-1500000J0D01*
G01*
X178250000Y-87900000D02*
G75*
G02*
X181250000Y-87900000I1500000J0D01*
G01*
X131327381Y-58257419D02*
X131517857Y-58257419D01*
X131517857Y-58257419D02*
X131613095Y-58209800D01*
X131613095Y-58209800D02*
X131660714Y-58162180D01*
X131660714Y-58162180D02*
X131755952Y-58019323D01*
X131755952Y-58019323D02*
X131803571Y-57828847D01*
X131803571Y-57828847D02*
X131803571Y-57447895D01*
X131803571Y-57447895D02*
X131755952Y-57352657D01*
X131755952Y-57352657D02*
X131708333Y-57305038D01*
X131708333Y-57305038D02*
X131613095Y-57257419D01*
X131613095Y-57257419D02*
X131422619Y-57257419D01*
X131422619Y-57257419D02*
X131327381Y-57305038D01*
X131327381Y-57305038D02*
X131279762Y-57352657D01*
X131279762Y-57352657D02*
X131232143Y-57447895D01*
X131232143Y-57447895D02*
X131232143Y-57685990D01*
X131232143Y-57685990D02*
X131279762Y-57781228D01*
X131279762Y-57781228D02*
X131327381Y-57828847D01*
X131327381Y-57828847D02*
X131422619Y-57876466D01*
X131422619Y-57876466D02*
X131613095Y-57876466D01*
X131613095Y-57876466D02*
X131708333Y-57828847D01*
X131708333Y-57828847D02*
X131755952Y-57781228D01*
X131755952Y-57781228D02*
X131803571Y-57685990D01*
X132232143Y-58162180D02*
X132279762Y-58209800D01*
X132279762Y-58209800D02*
X132232143Y-58257419D01*
X132232143Y-58257419D02*
X132184524Y-58209800D01*
X132184524Y-58209800D02*
X132232143Y-58162180D01*
X132232143Y-58162180D02*
X132232143Y-58257419D01*
X132660714Y-57352657D02*
X132708333Y-57305038D01*
X132708333Y-57305038D02*
X132803571Y-57257419D01*
X132803571Y-57257419D02*
X133041666Y-57257419D01*
X133041666Y-57257419D02*
X133136904Y-57305038D01*
X133136904Y-57305038D02*
X133184523Y-57352657D01*
X133184523Y-57352657D02*
X133232142Y-57447895D01*
X133232142Y-57447895D02*
X133232142Y-57543133D01*
X133232142Y-57543133D02*
X133184523Y-57685990D01*
X133184523Y-57685990D02*
X132613095Y-58257419D01*
X132613095Y-58257419D02*
X133232142Y-58257419D01*
X134136904Y-57257419D02*
X133660714Y-57257419D01*
X133660714Y-57257419D02*
X133613095Y-57733609D01*
X133613095Y-57733609D02*
X133660714Y-57685990D01*
X133660714Y-57685990D02*
X133755952Y-57638371D01*
X133755952Y-57638371D02*
X133994047Y-57638371D01*
X133994047Y-57638371D02*
X134089285Y-57685990D01*
X134089285Y-57685990D02*
X134136904Y-57733609D01*
X134136904Y-57733609D02*
X134184523Y-57828847D01*
X134184523Y-57828847D02*
X134184523Y-58066942D01*
X134184523Y-58066942D02*
X134136904Y-58162180D01*
X134136904Y-58162180D02*
X134089285Y-58209800D01*
X134089285Y-58209800D02*
X133994047Y-58257419D01*
X133994047Y-58257419D02*
X133755952Y-58257419D01*
X133755952Y-58257419D02*
X133660714Y-58209800D01*
X133660714Y-58209800D02*
X133613095Y-58162180D01*
X134803571Y-57257419D02*
X134898809Y-57257419D01*
X134898809Y-57257419D02*
X134994047Y-57305038D01*
X134994047Y-57305038D02*
X135041666Y-57352657D01*
X135041666Y-57352657D02*
X135089285Y-57447895D01*
X135089285Y-57447895D02*
X135136904Y-57638371D01*
X135136904Y-57638371D02*
X135136904Y-57876466D01*
X135136904Y-57876466D02*
X135089285Y-58066942D01*
X135089285Y-58066942D02*
X135041666Y-58162180D01*
X135041666Y-58162180D02*
X134994047Y-58209800D01*
X134994047Y-58209800D02*
X134898809Y-58257419D01*
X134898809Y-58257419D02*
X134803571Y-58257419D01*
X134803571Y-58257419D02*
X134708333Y-58209800D01*
X134708333Y-58209800D02*
X134660714Y-58162180D01*
X134660714Y-58162180D02*
X134613095Y-58066942D01*
X134613095Y-58066942D02*
X134565476Y-57876466D01*
X134565476Y-57876466D02*
X134565476Y-57638371D01*
X134565476Y-57638371D02*
X134613095Y-57447895D01*
X134613095Y-57447895D02*
X134660714Y-57352657D01*
X134660714Y-57352657D02*
X134708333Y-57305038D01*
X134708333Y-57305038D02*
X134803571Y-57257419D01*
X135755952Y-57257419D02*
X135851190Y-57257419D01*
X135851190Y-57257419D02*
X135946428Y-57305038D01*
X135946428Y-57305038D02*
X135994047Y-57352657D01*
X135994047Y-57352657D02*
X136041666Y-57447895D01*
X136041666Y-57447895D02*
X136089285Y-57638371D01*
X136089285Y-57638371D02*
X136089285Y-57876466D01*
X136089285Y-57876466D02*
X136041666Y-58066942D01*
X136041666Y-58066942D02*
X135994047Y-58162180D01*
X135994047Y-58162180D02*
X135946428Y-58209800D01*
X135946428Y-58209800D02*
X135851190Y-58257419D01*
X135851190Y-58257419D02*
X135755952Y-58257419D01*
X135755952Y-58257419D02*
X135660714Y-58209800D01*
X135660714Y-58209800D02*
X135613095Y-58162180D01*
X135613095Y-58162180D02*
X135565476Y-58066942D01*
X135565476Y-58066942D02*
X135517857Y-57876466D01*
X135517857Y-57876466D02*
X135517857Y-57638371D01*
X135517857Y-57638371D02*
X135565476Y-57447895D01*
X135565476Y-57447895D02*
X135613095Y-57352657D01*
X135613095Y-57352657D02*
X135660714Y-57305038D01*
X135660714Y-57305038D02*
X135755952Y-57257419D01*
X137279762Y-58257419D02*
X137279762Y-57590752D01*
X137279762Y-57685990D02*
X137327381Y-57638371D01*
X137327381Y-57638371D02*
X137422619Y-57590752D01*
X137422619Y-57590752D02*
X137565476Y-57590752D01*
X137565476Y-57590752D02*
X137660714Y-57638371D01*
X137660714Y-57638371D02*
X137708333Y-57733609D01*
X137708333Y-57733609D02*
X137708333Y-58257419D01*
X137708333Y-57733609D02*
X137755952Y-57638371D01*
X137755952Y-57638371D02*
X137851190Y-57590752D01*
X137851190Y-57590752D02*
X137994047Y-57590752D01*
X137994047Y-57590752D02*
X138089286Y-57638371D01*
X138089286Y-57638371D02*
X138136905Y-57733609D01*
X138136905Y-57733609D02*
X138136905Y-58257419D01*
X138613095Y-58257419D02*
X138613095Y-57590752D01*
X138613095Y-57685990D02*
X138660714Y-57638371D01*
X138660714Y-57638371D02*
X138755952Y-57590752D01*
X138755952Y-57590752D02*
X138898809Y-57590752D01*
X138898809Y-57590752D02*
X138994047Y-57638371D01*
X138994047Y-57638371D02*
X139041666Y-57733609D01*
X139041666Y-57733609D02*
X139041666Y-58257419D01*
X139041666Y-57733609D02*
X139089285Y-57638371D01*
X139089285Y-57638371D02*
X139184523Y-57590752D01*
X139184523Y-57590752D02*
X139327380Y-57590752D01*
X139327380Y-57590752D02*
X139422619Y-57638371D01*
X139422619Y-57638371D02*
X139470238Y-57733609D01*
X139470238Y-57733609D02*
X139470238Y-58257419D01*
X140000000Y-62650000D02*
X140000000Y-58313580D01*
X130750000Y-62650000D02*
X130750000Y-58313580D01*
X140000000Y-58900000D02*
X130750000Y-58900000D01*
X140000000Y-58900000D02*
X130750000Y-58900000D01*
X140000000Y-58900000D02*
X138873496Y-59486421D01*
X140000000Y-58900000D02*
X138873496Y-58313579D01*
X130750000Y-58900000D02*
X131876504Y-58313579D01*
X130750000Y-58900000D02*
X131876504Y-59486421D01*
X152833334Y-68257419D02*
X153452381Y-68257419D01*
X153452381Y-68257419D02*
X153119048Y-68638371D01*
X153119048Y-68638371D02*
X153261905Y-68638371D01*
X153261905Y-68638371D02*
X153357143Y-68685990D01*
X153357143Y-68685990D02*
X153404762Y-68733609D01*
X153404762Y-68733609D02*
X153452381Y-68828847D01*
X153452381Y-68828847D02*
X153452381Y-69066942D01*
X153452381Y-69066942D02*
X153404762Y-69162180D01*
X153404762Y-69162180D02*
X153357143Y-69209800D01*
X153357143Y-69209800D02*
X153261905Y-69257419D01*
X153261905Y-69257419D02*
X152976191Y-69257419D01*
X152976191Y-69257419D02*
X152880953Y-69209800D01*
X152880953Y-69209800D02*
X152833334Y-69162180D01*
X154309524Y-68257419D02*
X154119048Y-68257419D01*
X154119048Y-68257419D02*
X154023810Y-68305038D01*
X154023810Y-68305038D02*
X153976191Y-68352657D01*
X153976191Y-68352657D02*
X153880953Y-68495514D01*
X153880953Y-68495514D02*
X153833334Y-68685990D01*
X153833334Y-68685990D02*
X153833334Y-69066942D01*
X153833334Y-69066942D02*
X153880953Y-69162180D01*
X153880953Y-69162180D02*
X153928572Y-69209800D01*
X153928572Y-69209800D02*
X154023810Y-69257419D01*
X154023810Y-69257419D02*
X154214286Y-69257419D01*
X154214286Y-69257419D02*
X154309524Y-69209800D01*
X154309524Y-69209800D02*
X154357143Y-69162180D01*
X154357143Y-69162180D02*
X154404762Y-69066942D01*
X154404762Y-69066942D02*
X154404762Y-68828847D01*
X154404762Y-68828847D02*
X154357143Y-68733609D01*
X154357143Y-68733609D02*
X154309524Y-68685990D01*
X154309524Y-68685990D02*
X154214286Y-68638371D01*
X154214286Y-68638371D02*
X154023810Y-68638371D01*
X154023810Y-68638371D02*
X153928572Y-68685990D01*
X153928572Y-68685990D02*
X153880953Y-68733609D01*
X153880953Y-68733609D02*
X153833334Y-68828847D01*
X154833334Y-69162180D02*
X154880953Y-69209800D01*
X154880953Y-69209800D02*
X154833334Y-69257419D01*
X154833334Y-69257419D02*
X154785715Y-69209800D01*
X154785715Y-69209800D02*
X154833334Y-69162180D01*
X154833334Y-69162180D02*
X154833334Y-69257419D01*
X155785714Y-68257419D02*
X155309524Y-68257419D01*
X155309524Y-68257419D02*
X155261905Y-68733609D01*
X155261905Y-68733609D02*
X155309524Y-68685990D01*
X155309524Y-68685990D02*
X155404762Y-68638371D01*
X155404762Y-68638371D02*
X155642857Y-68638371D01*
X155642857Y-68638371D02*
X155738095Y-68685990D01*
X155738095Y-68685990D02*
X155785714Y-68733609D01*
X155785714Y-68733609D02*
X155833333Y-68828847D01*
X155833333Y-68828847D02*
X155833333Y-69066942D01*
X155833333Y-69066942D02*
X155785714Y-69162180D01*
X155785714Y-69162180D02*
X155738095Y-69209800D01*
X155738095Y-69209800D02*
X155642857Y-69257419D01*
X155642857Y-69257419D02*
X155404762Y-69257419D01*
X155404762Y-69257419D02*
X155309524Y-69209800D01*
X155309524Y-69209800D02*
X155261905Y-69162180D01*
X156214286Y-68352657D02*
X156261905Y-68305038D01*
X156261905Y-68305038D02*
X156357143Y-68257419D01*
X156357143Y-68257419D02*
X156595238Y-68257419D01*
X156595238Y-68257419D02*
X156690476Y-68305038D01*
X156690476Y-68305038D02*
X156738095Y-68352657D01*
X156738095Y-68352657D02*
X156785714Y-68447895D01*
X156785714Y-68447895D02*
X156785714Y-68543133D01*
X156785714Y-68543133D02*
X156738095Y-68685990D01*
X156738095Y-68685990D02*
X156166667Y-69257419D01*
X156166667Y-69257419D02*
X156785714Y-69257419D01*
X157642857Y-68590752D02*
X157642857Y-69257419D01*
X157404762Y-68209800D02*
X157166667Y-68924085D01*
X157166667Y-68924085D02*
X157785714Y-68924085D01*
X158357143Y-68257419D02*
X158452381Y-68257419D01*
X158452381Y-68257419D02*
X158547619Y-68305038D01*
X158547619Y-68305038D02*
X158595238Y-68352657D01*
X158595238Y-68352657D02*
X158642857Y-68447895D01*
X158642857Y-68447895D02*
X158690476Y-68638371D01*
X158690476Y-68638371D02*
X158690476Y-68876466D01*
X158690476Y-68876466D02*
X158642857Y-69066942D01*
X158642857Y-69066942D02*
X158595238Y-69162180D01*
X158595238Y-69162180D02*
X158547619Y-69209800D01*
X158547619Y-69209800D02*
X158452381Y-69257419D01*
X158452381Y-69257419D02*
X158357143Y-69257419D01*
X158357143Y-69257419D02*
X158261905Y-69209800D01*
X158261905Y-69209800D02*
X158214286Y-69162180D01*
X158214286Y-69162180D02*
X158166667Y-69066942D01*
X158166667Y-69066942D02*
X158119048Y-68876466D01*
X158119048Y-68876466D02*
X158119048Y-68638371D01*
X158119048Y-68638371D02*
X158166667Y-68447895D01*
X158166667Y-68447895D02*
X158214286Y-68352657D01*
X158214286Y-68352657D02*
X158261905Y-68305038D01*
X158261905Y-68305038D02*
X158357143Y-68257419D01*
X159880953Y-69257419D02*
X159880953Y-68590752D01*
X159880953Y-68685990D02*
X159928572Y-68638371D01*
X159928572Y-68638371D02*
X160023810Y-68590752D01*
X160023810Y-68590752D02*
X160166667Y-68590752D01*
X160166667Y-68590752D02*
X160261905Y-68638371D01*
X160261905Y-68638371D02*
X160309524Y-68733609D01*
X160309524Y-68733609D02*
X160309524Y-69257419D01*
X160309524Y-68733609D02*
X160357143Y-68638371D01*
X160357143Y-68638371D02*
X160452381Y-68590752D01*
X160452381Y-68590752D02*
X160595238Y-68590752D01*
X160595238Y-68590752D02*
X160690477Y-68638371D01*
X160690477Y-68638371D02*
X160738096Y-68733609D01*
X160738096Y-68733609D02*
X160738096Y-69257419D01*
X161214286Y-69257419D02*
X161214286Y-68590752D01*
X161214286Y-68685990D02*
X161261905Y-68638371D01*
X161261905Y-68638371D02*
X161357143Y-68590752D01*
X161357143Y-68590752D02*
X161500000Y-68590752D01*
X161500000Y-68590752D02*
X161595238Y-68638371D01*
X161595238Y-68638371D02*
X161642857Y-68733609D01*
X161642857Y-68733609D02*
X161642857Y-69257419D01*
X161642857Y-68733609D02*
X161690476Y-68638371D01*
X161690476Y-68638371D02*
X161785714Y-68590752D01*
X161785714Y-68590752D02*
X161928571Y-68590752D01*
X161928571Y-68590752D02*
X162023810Y-68638371D01*
X162023810Y-68638371D02*
X162071429Y-68733609D01*
X162071429Y-68733609D02*
X162071429Y-69257419D01*
X139238000Y-63650000D02*
X139238000Y-70486420D01*
X175762000Y-63650000D02*
X175762000Y-70486420D01*
X139238000Y-69900000D02*
X175762000Y-69900000D01*
X139238000Y-69900000D02*
X175762000Y-69900000D01*
X139238000Y-69900000D02*
X140364504Y-69313579D01*
X139238000Y-69900000D02*
X140364504Y-70486421D01*
X175762000Y-69900000D02*
X174635496Y-70486421D01*
X175762000Y-69900000D02*
X174635496Y-69313579D01*
X174434524Y-57757419D02*
X175101190Y-57757419D01*
X175101190Y-57757419D02*
X174672619Y-58757419D01*
X175482143Y-58662180D02*
X175529762Y-58709800D01*
X175529762Y-58709800D02*
X175482143Y-58757419D01*
X175482143Y-58757419D02*
X175434524Y-58709800D01*
X175434524Y-58709800D02*
X175482143Y-58662180D01*
X175482143Y-58662180D02*
X175482143Y-58757419D01*
X175910714Y-57852657D02*
X175958333Y-57805038D01*
X175958333Y-57805038D02*
X176053571Y-57757419D01*
X176053571Y-57757419D02*
X176291666Y-57757419D01*
X176291666Y-57757419D02*
X176386904Y-57805038D01*
X176386904Y-57805038D02*
X176434523Y-57852657D01*
X176434523Y-57852657D02*
X176482142Y-57947895D01*
X176482142Y-57947895D02*
X176482142Y-58043133D01*
X176482142Y-58043133D02*
X176434523Y-58185990D01*
X176434523Y-58185990D02*
X175863095Y-58757419D01*
X175863095Y-58757419D02*
X176482142Y-58757419D01*
X177386904Y-57757419D02*
X176910714Y-57757419D01*
X176910714Y-57757419D02*
X176863095Y-58233609D01*
X176863095Y-58233609D02*
X176910714Y-58185990D01*
X176910714Y-58185990D02*
X177005952Y-58138371D01*
X177005952Y-58138371D02*
X177244047Y-58138371D01*
X177244047Y-58138371D02*
X177339285Y-58185990D01*
X177339285Y-58185990D02*
X177386904Y-58233609D01*
X177386904Y-58233609D02*
X177434523Y-58328847D01*
X177434523Y-58328847D02*
X177434523Y-58566942D01*
X177434523Y-58566942D02*
X177386904Y-58662180D01*
X177386904Y-58662180D02*
X177339285Y-58709800D01*
X177339285Y-58709800D02*
X177244047Y-58757419D01*
X177244047Y-58757419D02*
X177005952Y-58757419D01*
X177005952Y-58757419D02*
X176910714Y-58709800D01*
X176910714Y-58709800D02*
X176863095Y-58662180D01*
X178053571Y-57757419D02*
X178148809Y-57757419D01*
X178148809Y-57757419D02*
X178244047Y-57805038D01*
X178244047Y-57805038D02*
X178291666Y-57852657D01*
X178291666Y-57852657D02*
X178339285Y-57947895D01*
X178339285Y-57947895D02*
X178386904Y-58138371D01*
X178386904Y-58138371D02*
X178386904Y-58376466D01*
X178386904Y-58376466D02*
X178339285Y-58566942D01*
X178339285Y-58566942D02*
X178291666Y-58662180D01*
X178291666Y-58662180D02*
X178244047Y-58709800D01*
X178244047Y-58709800D02*
X178148809Y-58757419D01*
X178148809Y-58757419D02*
X178053571Y-58757419D01*
X178053571Y-58757419D02*
X177958333Y-58709800D01*
X177958333Y-58709800D02*
X177910714Y-58662180D01*
X177910714Y-58662180D02*
X177863095Y-58566942D01*
X177863095Y-58566942D02*
X177815476Y-58376466D01*
X177815476Y-58376466D02*
X177815476Y-58138371D01*
X177815476Y-58138371D02*
X177863095Y-57947895D01*
X177863095Y-57947895D02*
X177910714Y-57852657D01*
X177910714Y-57852657D02*
X177958333Y-57805038D01*
X177958333Y-57805038D02*
X178053571Y-57757419D01*
X179005952Y-57757419D02*
X179101190Y-57757419D01*
X179101190Y-57757419D02*
X179196428Y-57805038D01*
X179196428Y-57805038D02*
X179244047Y-57852657D01*
X179244047Y-57852657D02*
X179291666Y-57947895D01*
X179291666Y-57947895D02*
X179339285Y-58138371D01*
X179339285Y-58138371D02*
X179339285Y-58376466D01*
X179339285Y-58376466D02*
X179291666Y-58566942D01*
X179291666Y-58566942D02*
X179244047Y-58662180D01*
X179244047Y-58662180D02*
X179196428Y-58709800D01*
X179196428Y-58709800D02*
X179101190Y-58757419D01*
X179101190Y-58757419D02*
X179005952Y-58757419D01*
X179005952Y-58757419D02*
X178910714Y-58709800D01*
X178910714Y-58709800D02*
X178863095Y-58662180D01*
X178863095Y-58662180D02*
X178815476Y-58566942D01*
X178815476Y-58566942D02*
X178767857Y-58376466D01*
X178767857Y-58376466D02*
X178767857Y-58138371D01*
X178767857Y-58138371D02*
X178815476Y-57947895D01*
X178815476Y-57947895D02*
X178863095Y-57852657D01*
X178863095Y-57852657D02*
X178910714Y-57805038D01*
X178910714Y-57805038D02*
X179005952Y-57757419D01*
X180529762Y-58757419D02*
X180529762Y-58090752D01*
X180529762Y-58185990D02*
X180577381Y-58138371D01*
X180577381Y-58138371D02*
X180672619Y-58090752D01*
X180672619Y-58090752D02*
X180815476Y-58090752D01*
X180815476Y-58090752D02*
X180910714Y-58138371D01*
X180910714Y-58138371D02*
X180958333Y-58233609D01*
X180958333Y-58233609D02*
X180958333Y-58757419D01*
X180958333Y-58233609D02*
X181005952Y-58138371D01*
X181005952Y-58138371D02*
X181101190Y-58090752D01*
X181101190Y-58090752D02*
X181244047Y-58090752D01*
X181244047Y-58090752D02*
X181339286Y-58138371D01*
X181339286Y-58138371D02*
X181386905Y-58233609D01*
X181386905Y-58233609D02*
X181386905Y-58757419D01*
X181863095Y-58757419D02*
X181863095Y-58090752D01*
X181863095Y-58185990D02*
X181910714Y-58138371D01*
X181910714Y-58138371D02*
X182005952Y-58090752D01*
X182005952Y-58090752D02*
X182148809Y-58090752D01*
X182148809Y-58090752D02*
X182244047Y-58138371D01*
X182244047Y-58138371D02*
X182291666Y-58233609D01*
X182291666Y-58233609D02*
X182291666Y-58757419D01*
X182291666Y-58233609D02*
X182339285Y-58138371D01*
X182339285Y-58138371D02*
X182434523Y-58090752D01*
X182434523Y-58090752D02*
X182577380Y-58090752D01*
X182577380Y-58090752D02*
X182672619Y-58138371D01*
X182672619Y-58138371D02*
X182720238Y-58233609D01*
X182720238Y-58233609D02*
X182720238Y-58757419D01*
X175000000Y-62650000D02*
X175000000Y-58813580D01*
X182250000Y-62650000D02*
X182250000Y-58813580D01*
X175000000Y-59400000D02*
X182250000Y-59400000D01*
X175000000Y-59400000D02*
X182250000Y-59400000D01*
X175000000Y-59400000D02*
X176126504Y-58813579D01*
X175000000Y-59400000D02*
X176126504Y-59986421D01*
X182250000Y-59400000D02*
X181123496Y-59986421D01*
X182250000Y-59400000D02*
X181123496Y-58813579D01*
X169607143Y-65852657D02*
X169654762Y-65805038D01*
X169654762Y-65805038D02*
X169750000Y-65757419D01*
X169750000Y-65757419D02*
X169988095Y-65757419D01*
X169988095Y-65757419D02*
X170083333Y-65805038D01*
X170083333Y-65805038D02*
X170130952Y-65852657D01*
X170130952Y-65852657D02*
X170178571Y-65947895D01*
X170178571Y-65947895D02*
X170178571Y-66043133D01*
X170178571Y-66043133D02*
X170130952Y-66185990D01*
X170130952Y-66185990D02*
X169559524Y-66757419D01*
X169559524Y-66757419D02*
X170178571Y-66757419D01*
X170607143Y-66662180D02*
X170654762Y-66709800D01*
X170654762Y-66709800D02*
X170607143Y-66757419D01*
X170607143Y-66757419D02*
X170559524Y-66709800D01*
X170559524Y-66709800D02*
X170607143Y-66662180D01*
X170607143Y-66662180D02*
X170607143Y-66757419D01*
X171559523Y-65757419D02*
X171083333Y-65757419D01*
X171083333Y-65757419D02*
X171035714Y-66233609D01*
X171035714Y-66233609D02*
X171083333Y-66185990D01*
X171083333Y-66185990D02*
X171178571Y-66138371D01*
X171178571Y-66138371D02*
X171416666Y-66138371D01*
X171416666Y-66138371D02*
X171511904Y-66185990D01*
X171511904Y-66185990D02*
X171559523Y-66233609D01*
X171559523Y-66233609D02*
X171607142Y-66328847D01*
X171607142Y-66328847D02*
X171607142Y-66566942D01*
X171607142Y-66566942D02*
X171559523Y-66662180D01*
X171559523Y-66662180D02*
X171511904Y-66709800D01*
X171511904Y-66709800D02*
X171416666Y-66757419D01*
X171416666Y-66757419D02*
X171178571Y-66757419D01*
X171178571Y-66757419D02*
X171083333Y-66709800D01*
X171083333Y-66709800D02*
X171035714Y-66662180D01*
X172226190Y-65757419D02*
X172321428Y-65757419D01*
X172321428Y-65757419D02*
X172416666Y-65805038D01*
X172416666Y-65805038D02*
X172464285Y-65852657D01*
X172464285Y-65852657D02*
X172511904Y-65947895D01*
X172511904Y-65947895D02*
X172559523Y-66138371D01*
X172559523Y-66138371D02*
X172559523Y-66376466D01*
X172559523Y-66376466D02*
X172511904Y-66566942D01*
X172511904Y-66566942D02*
X172464285Y-66662180D01*
X172464285Y-66662180D02*
X172416666Y-66709800D01*
X172416666Y-66709800D02*
X172321428Y-66757419D01*
X172321428Y-66757419D02*
X172226190Y-66757419D01*
X172226190Y-66757419D02*
X172130952Y-66709800D01*
X172130952Y-66709800D02*
X172083333Y-66662180D01*
X172083333Y-66662180D02*
X172035714Y-66566942D01*
X172035714Y-66566942D02*
X171988095Y-66376466D01*
X171988095Y-66376466D02*
X171988095Y-66138371D01*
X171988095Y-66138371D02*
X172035714Y-65947895D01*
X172035714Y-65947895D02*
X172083333Y-65852657D01*
X172083333Y-65852657D02*
X172130952Y-65805038D01*
X172130952Y-65805038D02*
X172226190Y-65757419D01*
X173178571Y-65757419D02*
X173273809Y-65757419D01*
X173273809Y-65757419D02*
X173369047Y-65805038D01*
X173369047Y-65805038D02*
X173416666Y-65852657D01*
X173416666Y-65852657D02*
X173464285Y-65947895D01*
X173464285Y-65947895D02*
X173511904Y-66138371D01*
X173511904Y-66138371D02*
X173511904Y-66376466D01*
X173511904Y-66376466D02*
X173464285Y-66566942D01*
X173464285Y-66566942D02*
X173416666Y-66662180D01*
X173416666Y-66662180D02*
X173369047Y-66709800D01*
X173369047Y-66709800D02*
X173273809Y-66757419D01*
X173273809Y-66757419D02*
X173178571Y-66757419D01*
X173178571Y-66757419D02*
X173083333Y-66709800D01*
X173083333Y-66709800D02*
X173035714Y-66662180D01*
X173035714Y-66662180D02*
X172988095Y-66566942D01*
X172988095Y-66566942D02*
X172940476Y-66376466D01*
X172940476Y-66376466D02*
X172940476Y-66138371D01*
X172940476Y-66138371D02*
X172988095Y-65947895D01*
X172988095Y-65947895D02*
X173035714Y-65852657D01*
X173035714Y-65852657D02*
X173083333Y-65805038D01*
X173083333Y-65805038D02*
X173178571Y-65757419D01*
X174130952Y-65757419D02*
X174226190Y-65757419D01*
X174226190Y-65757419D02*
X174321428Y-65805038D01*
X174321428Y-65805038D02*
X174369047Y-65852657D01*
X174369047Y-65852657D02*
X174416666Y-65947895D01*
X174416666Y-65947895D02*
X174464285Y-66138371D01*
X174464285Y-66138371D02*
X174464285Y-66376466D01*
X174464285Y-66376466D02*
X174416666Y-66566942D01*
X174416666Y-66566942D02*
X174369047Y-66662180D01*
X174369047Y-66662180D02*
X174321428Y-66709800D01*
X174321428Y-66709800D02*
X174226190Y-66757419D01*
X174226190Y-66757419D02*
X174130952Y-66757419D01*
X174130952Y-66757419D02*
X174035714Y-66709800D01*
X174035714Y-66709800D02*
X173988095Y-66662180D01*
X173988095Y-66662180D02*
X173940476Y-66566942D01*
X173940476Y-66566942D02*
X173892857Y-66376466D01*
X173892857Y-66376466D02*
X173892857Y-66138371D01*
X173892857Y-66138371D02*
X173940476Y-65947895D01*
X173940476Y-65947895D02*
X173988095Y-65852657D01*
X173988095Y-65852657D02*
X174035714Y-65805038D01*
X174035714Y-65805038D02*
X174130952Y-65757419D01*
X175654762Y-66757419D02*
X175654762Y-66090752D01*
X175654762Y-66185990D02*
X175702381Y-66138371D01*
X175702381Y-66138371D02*
X175797619Y-66090752D01*
X175797619Y-66090752D02*
X175940476Y-66090752D01*
X175940476Y-66090752D02*
X176035714Y-66138371D01*
X176035714Y-66138371D02*
X176083333Y-66233609D01*
X176083333Y-66233609D02*
X176083333Y-66757419D01*
X176083333Y-66233609D02*
X176130952Y-66138371D01*
X176130952Y-66138371D02*
X176226190Y-66090752D01*
X176226190Y-66090752D02*
X176369047Y-66090752D01*
X176369047Y-66090752D02*
X176464286Y-66138371D01*
X176464286Y-66138371D02*
X176511905Y-66233609D01*
X176511905Y-66233609D02*
X176511905Y-66757419D01*
X176988095Y-66757419D02*
X176988095Y-66090752D01*
X176988095Y-66185990D02*
X177035714Y-66138371D01*
X177035714Y-66138371D02*
X177130952Y-66090752D01*
X177130952Y-66090752D02*
X177273809Y-66090752D01*
X177273809Y-66090752D02*
X177369047Y-66138371D01*
X177369047Y-66138371D02*
X177416666Y-66233609D01*
X177416666Y-66233609D02*
X177416666Y-66757419D01*
X177416666Y-66233609D02*
X177464285Y-66138371D01*
X177464285Y-66138371D02*
X177559523Y-66090752D01*
X177559523Y-66090752D02*
X177702380Y-66090752D01*
X177702380Y-66090752D02*
X177797619Y-66138371D01*
X177797619Y-66138371D02*
X177845238Y-66233609D01*
X177845238Y-66233609D02*
X177845238Y-66757419D01*
X172500000Y-63650000D02*
X172500000Y-67986420D01*
X175000000Y-63650000D02*
X175000000Y-67986420D01*
X172500000Y-67400000D02*
X175000000Y-67400000D01*
X172500000Y-67400000D02*
X175000000Y-67400000D01*
X172500000Y-67400000D02*
X173626504Y-66813579D01*
X172500000Y-67400000D02*
X173626504Y-67986421D01*
X175000000Y-67400000D02*
X173873496Y-67986421D01*
X175000000Y-67400000D02*
X173873496Y-66813579D01*
%TD*%
M02*
