%TF.GenerationSoftware,KiCad,Pcbnew,8.0.4*%
%TF.CreationDate,2024-08-01T14:56:52+02:00*%
%TF.ProjectId,\u002A,2a2e6b69-6361-4645-9f70-636258585858,rev?*%
%TF.SameCoordinates,Original*%
%TF.FileFunction,Copper,L1,Top*%
%TF.FilePolarity,Positive*%
%FSLAX46Y46*%
G04 Gerber Fmt 4.6, Leading zero omitted, Abs format (unit mm)*
G04 Created by KiCad (PCBNEW 8.0.4) date 2024-08-01 14:56:52*
%MOMM*%
%LPD*%
G01*
G04 APERTURE LIST*
%TA.AperFunction,ComponentPad*%
%ADD10C,3.000000*%
%TD*%
%TA.AperFunction,ComponentPad*%
%ADD11R,1.800000X2.600000*%
%TD*%
%TA.AperFunction,ComponentPad*%
%ADD12O,1.800000X2.600000*%
%TD*%
%TA.AperFunction,ComponentPad*%
%ADD13C,1.600000*%
%TD*%
%TA.AperFunction,ComponentPad*%
%ADD14O,1.600000X1.600000*%
%TD*%
%TA.AperFunction,ComponentPad*%
%ADD15R,1.800000X1.800000*%
%TD*%
%TA.AperFunction,ComponentPad*%
%ADD16C,1.800000*%
%TD*%
%TA.AperFunction,ComponentPad*%
%ADD17C,2.000000*%
%TD*%
%TA.AperFunction,ComponentPad*%
%ADD18C,1.524000*%
%TD*%
%TA.AperFunction,Conductor*%
%ADD19C,0.200000*%
%TD*%
G04 APERTURE END LIST*
D10*
%TO.P,DS2,*%
%TO.N,*%
X133900900Y-106500000D03*
X133900900Y-137500700D03*
X208899480Y-137500700D03*
X208900000Y-106500000D03*
D11*
%TO.P,DS2,1,VSS*%
%TO.N,GND*%
X139400000Y-106500000D03*
D12*
%TO.P,DS2,2,VDD*%
%TO.N,Net-(DS2-LED(+))*%
X141940000Y-106500000D03*
%TO.P,DS2,3,VO*%
%TO.N,Net-(DS2-VO)*%
X144480000Y-106500000D03*
%TO.P,DS2,4,RS*%
%TO.N,Net-(DS2-RS)*%
X147020000Y-106500000D03*
%TO.P,DS2,5,R/W*%
%TO.N,GND*%
X149560000Y-106500000D03*
%TO.P,DS2,6,E*%
%TO.N,Net-(DS2-E)*%
X152100000Y-106500000D03*
%TO.P,DS2,7,D0*%
%TO.N,unconnected-(DS2-D0-Pad7)*%
X154640000Y-106500000D03*
%TO.P,DS2,8,D1*%
%TO.N,unconnected-(DS2-D1-Pad8)*%
X157180000Y-106500000D03*
%TO.P,DS2,9,D2*%
%TO.N,unconnected-(DS2-D2-Pad9)*%
X159720000Y-106500000D03*
%TO.P,DS2,10,D3*%
%TO.N,unconnected-(DS2-D3-Pad10)*%
X162260000Y-106500000D03*
%TO.P,DS2,11,D4*%
%TO.N,Net-(DS2-D4)*%
X164800000Y-106500000D03*
%TO.P,DS2,12,D5*%
%TO.N,Net-(DS2-D5)*%
X167340000Y-106500000D03*
%TO.P,DS2,13,D6*%
%TO.N,Net-(DS2-D6)*%
X169880000Y-106500000D03*
%TO.P,DS2,14,D7*%
%TO.N,Net-(DS2-D7)*%
X172420000Y-106500000D03*
%TO.P,DS2,15,LED(+)*%
%TO.N,Net-(DS2-LED(+))*%
X174960000Y-106500000D03*
%TO.P,DS2,16,LED(-)*%
%TO.N,GND*%
X177500000Y-106500000D03*
%TD*%
D13*
%TO.P,R3,1*%
%TO.N,GND*%
X133000000Y-93190000D03*
D14*
%TO.P,R3,2*%
%TO.N,Net-(DS2-VO)*%
X133000000Y-100810000D03*
%TD*%
D15*
%TO.P,D1,1,K*%
%TO.N,Net-(D1-K)*%
X222500000Y-47960000D03*
D16*
%TO.P,D1,2,A*%
%TO.N,Net-(D1-A)*%
X222500000Y-50500000D03*
%TD*%
D17*
%TO.P,SW1,1,1*%
%TO.N,Net-(Esp32-Wroom-32D1-D14)*%
X142500000Y-45000000D03*
X149000000Y-45000000D03*
%TO.P,SW1,2,2*%
%TO.N,GND*%
X142500000Y-49500000D03*
X149000000Y-49500000D03*
%TD*%
%TO.P,SW2,1,1*%
%TO.N,Net-(Esp32-Wroom-32D1-D32)*%
X168500000Y-49500000D03*
X162000000Y-49500000D03*
%TO.P,SW2,2,2*%
%TO.N,GND*%
X168500000Y-45000000D03*
X162000000Y-45000000D03*
%TD*%
D13*
%TO.P,R2,1*%
%TO.N,Net-(D1-K)*%
X183620000Y-47500000D03*
D14*
%TO.P,R2,2*%
%TO.N,GND*%
X176000000Y-47500000D03*
%TD*%
D18*
%TO.P,Esp32-Wroom-32D1,0,VIN*%
%TO.N,unconnected-(Esp32-Wroom-32D1-VIN-Pad0)*%
X140000000Y-63150000D03*
%TO.P,Esp32-Wroom-32D1,1,GND*%
%TO.N,GND*%
X142512000Y-63150000D03*
%TO.P,Esp32-Wroom-32D1,2,3V3*%
%TO.N,Net-(DS2-LED(+))*%
X140000000Y-88900000D03*
%TO.P,Esp32-Wroom-32D1,3,EN*%
%TO.N,unconnected-(Esp32-Wroom-32D1-EN-Pad3)*%
X175000000Y-63150000D03*
%TO.P,Esp32-Wroom-32D1,4,VP*%
%TO.N,unconnected-(Esp32-Wroom-32D1-VP-Pad4)*%
X172500000Y-63150000D03*
%TO.P,Esp32-Wroom-32D1,5,VN*%
%TO.N,unconnected-(Esp32-Wroom-32D1-VN-Pad5)*%
X170000000Y-63150000D03*
%TO.P,Esp32-Wroom-32D1,6,D34*%
%TO.N,unconnected-(Esp32-Wroom-32D1-D34-Pad6)*%
X167500000Y-63150000D03*
%TO.P,Esp32-Wroom-32D1,7,D35*%
%TO.N,unconnected-(Esp32-Wroom-32D1-D35-Pad7)*%
X165000000Y-63150000D03*
%TO.P,Esp32-Wroom-32D1,8,D32*%
%TO.N,Net-(Esp32-Wroom-32D1-D32)*%
X162500000Y-63150000D03*
%TO.P,Esp32-Wroom-32D1,9,D33*%
%TO.N,unconnected-(Esp32-Wroom-32D1-D33-Pad9)*%
X160000000Y-63150000D03*
%TO.P,Esp32-Wroom-32D1,10,D25*%
%TO.N,unconnected-(Esp32-Wroom-32D1-D25-Pad10)*%
X157500000Y-63150000D03*
%TO.P,Esp32-Wroom-32D1,11,D26*%
%TO.N,unconnected-(Esp32-Wroom-32D1-D26-Pad11)*%
X155000000Y-63150000D03*
%TO.P,Esp32-Wroom-32D1,12,D27*%
%TO.N,Net-(D1-A)*%
X152500000Y-63150000D03*
%TO.P,Esp32-Wroom-32D1,13,D14*%
%TO.N,Net-(Esp32-Wroom-32D1-D14)*%
X150000000Y-63150000D03*
%TO.P,Esp32-Wroom-32D1,14,D12*%
%TO.N,unconnected-(Esp32-Wroom-32D1-D12-Pad14)*%
X147500000Y-63150000D03*
%TO.P,Esp32-Wroom-32D1,16,D13*%
%TO.N,unconnected-(Esp32-Wroom-32D1-D13-Pad16)*%
X145000000Y-63150000D03*
%TO.P,Esp32-Wroom-32D1,23,D15*%
%TO.N,Net-(DS2-RS)*%
X145000000Y-88900000D03*
%TO.P,Esp32-Wroom-32D1,24,D2*%
%TO.N,Net-(DS2-E)*%
X147500000Y-88900000D03*
%TO.P,Esp32-Wroom-32D1,26,D4*%
%TO.N,Net-(DS2-D4)*%
X150000000Y-88900000D03*
%TO.P,Esp32-Wroom-32D1,27,D16*%
%TO.N,Net-(DS2-D5)*%
X152500000Y-88900000D03*
%TO.P,Esp32-Wroom-32D1,28,D17*%
%TO.N,Net-(DS2-D6)*%
X155000000Y-88900000D03*
%TO.P,Esp32-Wroom-32D1,29,D5*%
%TO.N,Net-(DS2-D7)*%
X157500000Y-88900000D03*
%TO.P,Esp32-Wroom-32D1,30,D18*%
%TO.N,unconnected-(Esp32-Wroom-32D1-D18-Pad30)*%
X160000000Y-88900000D03*
%TO.P,Esp32-Wroom-32D1,31,D19*%
%TO.N,unconnected-(Esp32-Wroom-32D1-D19-Pad31)*%
X162500000Y-88900000D03*
%TO.P,Esp32-Wroom-32D1,33,D21*%
%TO.N,unconnected-(Esp32-Wroom-32D1-D21-Pad33)*%
X165000000Y-88900000D03*
%TO.P,Esp32-Wroom-32D1,34,RX0*%
%TO.N,unconnected-(Esp32-Wroom-32D1-RX0-Pad34)*%
X167500000Y-88900000D03*
%TO.P,Esp32-Wroom-32D1,35,TX0*%
%TO.N,unconnected-(Esp32-Wroom-32D1-TX0-Pad35)*%
X170000000Y-88900000D03*
%TO.P,Esp32-Wroom-32D1,36,D22*%
%TO.N,unconnected-(Esp32-Wroom-32D1-D22-Pad36)*%
X172500000Y-88900000D03*
%TO.P,Esp32-Wroom-32D1,37,D23*%
%TO.N,unconnected-(Esp32-Wroom-32D1-D23-Pad37)*%
X175000000Y-88900000D03*
%TO.P,Esp32-Wroom-32D1,38,GND*%
%TO.N,GND*%
X142512000Y-88900000D03*
%TD*%
D19*
%TO.N,Net-(D1-K)*%
X220838300Y-47500000D02*
X221298300Y-47960000D01*
X183620000Y-47500000D02*
X220838300Y-47500000D01*
X222500000Y-47960000D02*
X221298300Y-47960000D01*
%TO.N,Net-(D1-A)*%
X216552000Y-56448000D02*
X222500000Y-50500000D01*
X159202000Y-56448000D02*
X216552000Y-56448000D01*
X152500000Y-63150000D02*
X159202000Y-56448000D01*
%TO.N,Net-(DS2-LED(+))*%
X174960000Y-106500000D02*
X173758300Y-106500000D01*
X172911900Y-108132100D02*
X173758300Y-107285700D01*
X141940000Y-106500000D02*
X143572100Y-108132100D01*
X143572100Y-108132100D02*
X172911900Y-108132100D01*
X173758300Y-107285700D02*
X173758300Y-106500000D01*
%TO.N,Net-(DS2-VO)*%
X133000000Y-100810000D02*
X138374000Y-100810000D01*
X138374000Y-100810000D02*
X143278300Y-105714300D01*
X143278300Y-105714300D02*
X143278300Y-106500000D01*
X144480000Y-106500000D02*
X143278300Y-106500000D01*
%TO.N,GND*%
X138222000Y-93190000D02*
X142512000Y-88900000D01*
X133000000Y-93190000D02*
X138222000Y-93190000D01*
X157500000Y-49500000D02*
X149000000Y-49500000D01*
X168500000Y-45000000D02*
X162000000Y-45000000D01*
X171000000Y-47500000D02*
X174898300Y-47500000D01*
X162000000Y-45000000D02*
X157500000Y-49500000D01*
X168500000Y-45000000D02*
X171000000Y-47500000D01*
X176000000Y-47500000D02*
X174898300Y-47500000D01*
%TO.N,Net-(Esp32-Wroom-32D1-D14)*%
X149000000Y-45000000D02*
X142500000Y-45000000D01*
%TD*%
%TA.AperFunction,Conductor*%
%TO.N,GND*%
G36*
X141695546Y-43520185D02*
G01*
X141741301Y-43572989D01*
X141751245Y-43642147D01*
X141722220Y-43705703D01*
X141687526Y-43733554D01*
X141684785Y-43735037D01*
X141676493Y-43739524D01*
X141480257Y-43892261D01*
X141311833Y-44075217D01*
X141175826Y-44283393D01*
X141075936Y-44511118D01*
X141014892Y-44752175D01*
X141014890Y-44752187D01*
X140994357Y-44999994D01*
X140994357Y-45000005D01*
X141014890Y-45247812D01*
X141014892Y-45247824D01*
X141075936Y-45488881D01*
X141175826Y-45716606D01*
X141311833Y-45924782D01*
X141311836Y-45924785D01*
X141480256Y-46107738D01*
X141676491Y-46260474D01*
X141676493Y-46260475D01*
X141894332Y-46378364D01*
X141895190Y-46378828D01*
X142114141Y-46453994D01*
X142128964Y-46459083D01*
X142130386Y-46459571D01*
X142375665Y-46500500D01*
X142624335Y-46500500D01*
X142869614Y-46459571D01*
X143104810Y-46378828D01*
X143323509Y-46260474D01*
X143519744Y-46107738D01*
X143688164Y-45924785D01*
X143824173Y-45716607D01*
X143842560Y-45674689D01*
X143887517Y-45621204D01*
X143954253Y-45600514D01*
X143956116Y-45600500D01*
X147543884Y-45600500D01*
X147610923Y-45620185D01*
X147656678Y-45672989D01*
X147657440Y-45674689D01*
X147675827Y-45716608D01*
X147811833Y-45924782D01*
X147811836Y-45924785D01*
X147980256Y-46107738D01*
X148176491Y-46260474D01*
X148176493Y-46260475D01*
X148394332Y-46378364D01*
X148395190Y-46378828D01*
X148614141Y-46453994D01*
X148628964Y-46459083D01*
X148630386Y-46459571D01*
X148875665Y-46500500D01*
X149124335Y-46500500D01*
X149369614Y-46459571D01*
X149604810Y-46378828D01*
X149823509Y-46260474D01*
X150019744Y-46107738D01*
X150188164Y-45924785D01*
X150324173Y-45716607D01*
X150424063Y-45488881D01*
X150485108Y-45247821D01*
X150505643Y-45000000D01*
X150485108Y-44752179D01*
X150485107Y-44752175D01*
X150424063Y-44511118D01*
X150324173Y-44283393D01*
X150188166Y-44075217D01*
X150166557Y-44051744D01*
X150019744Y-43892262D01*
X149823509Y-43739526D01*
X149823507Y-43739525D01*
X149823506Y-43739524D01*
X149817395Y-43736217D01*
X149812474Y-43733554D01*
X149762885Y-43684335D01*
X149747777Y-43616119D01*
X149771947Y-43550563D01*
X149827723Y-43508482D01*
X149871493Y-43500500D01*
X161129559Y-43500500D01*
X161196598Y-43520185D01*
X161242353Y-43572989D01*
X161252297Y-43642147D01*
X161223272Y-43705703D01*
X161188577Y-43733555D01*
X161176761Y-43739949D01*
X161129942Y-43776388D01*
X161129942Y-43776390D01*
X161829765Y-44476212D01*
X161787708Y-44487482D01*
X161662292Y-44559890D01*
X161559890Y-44662292D01*
X161487482Y-44787708D01*
X161476212Y-44829764D01*
X160776564Y-44130116D01*
X160676267Y-44283632D01*
X160576412Y-44511282D01*
X160515387Y-44752261D01*
X160515385Y-44752270D01*
X160494859Y-44999994D01*
X160494859Y-45000005D01*
X160515385Y-45247729D01*
X160515387Y-45247738D01*
X160576412Y-45488717D01*
X160676266Y-45716364D01*
X160776564Y-45869882D01*
X161476212Y-45170234D01*
X161487482Y-45212292D01*
X161559890Y-45337708D01*
X161662292Y-45440110D01*
X161787708Y-45512518D01*
X161829765Y-45523787D01*
X161129942Y-46223609D01*
X161176768Y-46260055D01*
X161176770Y-46260056D01*
X161395385Y-46378364D01*
X161395396Y-46378369D01*
X161630506Y-46459083D01*
X161875707Y-46500000D01*
X162124293Y-46500000D01*
X162369493Y-46459083D01*
X162604603Y-46378369D01*
X162604614Y-46378364D01*
X162823228Y-46260057D01*
X162823231Y-46260055D01*
X162870056Y-46223609D01*
X162170234Y-45523787D01*
X162212292Y-45512518D01*
X162337708Y-45440110D01*
X162440110Y-45337708D01*
X162512518Y-45212292D01*
X162523787Y-45170235D01*
X163223434Y-45869882D01*
X163323731Y-45716369D01*
X163423587Y-45488717D01*
X163484612Y-45247738D01*
X163484614Y-45247729D01*
X163505141Y-45000005D01*
X163505141Y-44999994D01*
X163484614Y-44752270D01*
X163484612Y-44752261D01*
X163423587Y-44511282D01*
X163323731Y-44283630D01*
X163223434Y-44130116D01*
X162523787Y-44829764D01*
X162512518Y-44787708D01*
X162440110Y-44662292D01*
X162337708Y-44559890D01*
X162212292Y-44487482D01*
X162170235Y-44476212D01*
X162870057Y-43776390D01*
X162870056Y-43776389D01*
X162823231Y-43739945D01*
X162811424Y-43733555D01*
X162761834Y-43684335D01*
X162746726Y-43616118D01*
X162770897Y-43550563D01*
X162826672Y-43508482D01*
X162870442Y-43500500D01*
X167629559Y-43500500D01*
X167696598Y-43520185D01*
X167742353Y-43572989D01*
X167752297Y-43642147D01*
X167723272Y-43705703D01*
X167688577Y-43733555D01*
X167676761Y-43739949D01*
X167629942Y-43776388D01*
X167629942Y-43776390D01*
X168329765Y-44476212D01*
X168287708Y-44487482D01*
X168162292Y-44559890D01*
X168059890Y-44662292D01*
X167987482Y-44787708D01*
X167976212Y-44829764D01*
X167276564Y-44130116D01*
X167176267Y-44283632D01*
X167076412Y-44511282D01*
X167015387Y-44752261D01*
X167015385Y-44752270D01*
X166994859Y-44999994D01*
X166994859Y-45000005D01*
X167015385Y-45247729D01*
X167015387Y-45247738D01*
X167076412Y-45488717D01*
X167176266Y-45716364D01*
X167276564Y-45869882D01*
X167976212Y-45170234D01*
X167987482Y-45212292D01*
X168059890Y-45337708D01*
X168162292Y-45440110D01*
X168287708Y-45512518D01*
X168329765Y-45523787D01*
X167629942Y-46223609D01*
X167676768Y-46260055D01*
X167676770Y-46260056D01*
X167895385Y-46378364D01*
X167895396Y-46378369D01*
X168130506Y-46459083D01*
X168375707Y-46500000D01*
X168624293Y-46500000D01*
X168869493Y-46459083D01*
X169104603Y-46378369D01*
X169104614Y-46378364D01*
X169323228Y-46260057D01*
X169323231Y-46260055D01*
X169370056Y-46223609D01*
X168670234Y-45523787D01*
X168712292Y-45512518D01*
X168837708Y-45440110D01*
X168940110Y-45337708D01*
X169012518Y-45212292D01*
X169023787Y-45170235D01*
X169723434Y-45869882D01*
X169823731Y-45716369D01*
X169923587Y-45488717D01*
X169984612Y-45247738D01*
X169984614Y-45247729D01*
X170005141Y-45000005D01*
X170005141Y-44999994D01*
X169984614Y-44752270D01*
X169984612Y-44752261D01*
X169923587Y-44511282D01*
X169823731Y-44283630D01*
X169723434Y-44130116D01*
X169023787Y-44829764D01*
X169012518Y-44787708D01*
X168940110Y-44662292D01*
X168837708Y-44559890D01*
X168712292Y-44487482D01*
X168670235Y-44476212D01*
X169370057Y-43776390D01*
X169370056Y-43776389D01*
X169323231Y-43739945D01*
X169311424Y-43733555D01*
X169261834Y-43684335D01*
X169246726Y-43616118D01*
X169270897Y-43550563D01*
X169326672Y-43508482D01*
X169370442Y-43500500D01*
X228375500Y-43500500D01*
X228442539Y-43520185D01*
X228488294Y-43572989D01*
X228499500Y-43624500D01*
X228499500Y-141875500D01*
X228479815Y-141942539D01*
X228427011Y-141988294D01*
X228375500Y-141999500D01*
X130124500Y-141999500D01*
X130057461Y-141979815D01*
X130011706Y-141927011D01*
X130000500Y-141875500D01*
X130000500Y-137500698D01*
X131895290Y-137500698D01*
X131895290Y-137500701D01*
X131915704Y-137786133D01*
X131976528Y-138065737D01*
X132076535Y-138333866D01*
X132213670Y-138585009D01*
X132213675Y-138585017D01*
X132385154Y-138814087D01*
X132385170Y-138814105D01*
X132587494Y-139016429D01*
X132587512Y-139016445D01*
X132816582Y-139187924D01*
X132816590Y-139187929D01*
X133067733Y-139325064D01*
X133067732Y-139325064D01*
X133067736Y-139325065D01*
X133067739Y-139325067D01*
X133335854Y-139425069D01*
X133335860Y-139425070D01*
X133335862Y-139425071D01*
X133615466Y-139485895D01*
X133615468Y-139485895D01*
X133615472Y-139485896D01*
X133869120Y-139504037D01*
X133900899Y-139506310D01*
X133900900Y-139506310D01*
X133900901Y-139506310D01*
X133929495Y-139504264D01*
X134186328Y-139485896D01*
X134465946Y-139425069D01*
X134734061Y-139325067D01*
X134985215Y-139187926D01*
X135214295Y-139016439D01*
X135416639Y-138814095D01*
X135588126Y-138585015D01*
X135725267Y-138333861D01*
X135825269Y-138065746D01*
X135886096Y-137786128D01*
X135906510Y-137500700D01*
X135906510Y-137500698D01*
X206893870Y-137500698D01*
X206893870Y-137500701D01*
X206914284Y-137786133D01*
X206975108Y-138065737D01*
X207075115Y-138333866D01*
X207212250Y-138585009D01*
X207212255Y-138585017D01*
X207383734Y-138814087D01*
X207383750Y-138814105D01*
X207586074Y-139016429D01*
X207586092Y-139016445D01*
X207815162Y-139187924D01*
X207815170Y-139187929D01*
X208066313Y-139325064D01*
X208066312Y-139325064D01*
X208066316Y-139325065D01*
X208066319Y-139325067D01*
X208334434Y-139425069D01*
X208334440Y-139425070D01*
X208334442Y-139425071D01*
X208614046Y-139485895D01*
X208614048Y-139485895D01*
X208614052Y-139485896D01*
X208867700Y-139504037D01*
X208899479Y-139506310D01*
X208899480Y-139506310D01*
X208899481Y-139506310D01*
X208928075Y-139504264D01*
X209184908Y-139485896D01*
X209464526Y-139425069D01*
X209732641Y-139325067D01*
X209983795Y-139187926D01*
X210212875Y-139016439D01*
X210415219Y-138814095D01*
X210586706Y-138585015D01*
X210723847Y-138333861D01*
X210823849Y-138065746D01*
X210884676Y-137786128D01*
X210905090Y-137500700D01*
X210884676Y-137215272D01*
X210823849Y-136935654D01*
X210723847Y-136667539D01*
X210586706Y-136416385D01*
X210586704Y-136416382D01*
X210415225Y-136187312D01*
X210415209Y-136187294D01*
X210212885Y-135984970D01*
X210212867Y-135984954D01*
X209983797Y-135813475D01*
X209983789Y-135813470D01*
X209732646Y-135676335D01*
X209732647Y-135676335D01*
X209625395Y-135636332D01*
X209464526Y-135576331D01*
X209464523Y-135576330D01*
X209464517Y-135576328D01*
X209184913Y-135515504D01*
X208899481Y-135495090D01*
X208899479Y-135495090D01*
X208614046Y-135515504D01*
X208334442Y-135576328D01*
X208066313Y-135676335D01*
X207815170Y-135813470D01*
X207815162Y-135813475D01*
X207586092Y-135984954D01*
X207586074Y-135984970D01*
X207383750Y-136187294D01*
X207383734Y-136187312D01*
X207212255Y-136416382D01*
X207212250Y-136416390D01*
X207075115Y-136667533D01*
X206975108Y-136935662D01*
X206914284Y-137215266D01*
X206893870Y-137500698D01*
X135906510Y-137500698D01*
X135886096Y-137215272D01*
X135825269Y-136935654D01*
X135725267Y-136667539D01*
X135588126Y-136416385D01*
X135588124Y-136416382D01*
X135416645Y-136187312D01*
X135416629Y-136187294D01*
X135214305Y-135984970D01*
X135214287Y-135984954D01*
X134985217Y-135813475D01*
X134985209Y-135813470D01*
X134734066Y-135676335D01*
X134734067Y-135676335D01*
X134626815Y-135636332D01*
X134465946Y-135576331D01*
X134465943Y-135576330D01*
X134465937Y-135576328D01*
X134186333Y-135515504D01*
X133900901Y-135495090D01*
X133900899Y-135495090D01*
X133615466Y-135515504D01*
X133335862Y-135576328D01*
X133067733Y-135676335D01*
X132816590Y-135813470D01*
X132816582Y-135813475D01*
X132587512Y-135984954D01*
X132587494Y-135984970D01*
X132385170Y-136187294D01*
X132385154Y-136187312D01*
X132213675Y-136416382D01*
X132213670Y-136416390D01*
X132076535Y-136667533D01*
X131976528Y-136935662D01*
X131915704Y-137215266D01*
X131895290Y-137500698D01*
X130000500Y-137500698D01*
X130000500Y-106499998D01*
X131895290Y-106499998D01*
X131895290Y-106500001D01*
X131915704Y-106785433D01*
X131976528Y-107065037D01*
X131976530Y-107065043D01*
X131976531Y-107065046D01*
X132037292Y-107227951D01*
X132076535Y-107333166D01*
X132213670Y-107584309D01*
X132213675Y-107584317D01*
X132385154Y-107813387D01*
X132385170Y-107813405D01*
X132587494Y-108015729D01*
X132587512Y-108015745D01*
X132816582Y-108187224D01*
X132816590Y-108187229D01*
X133067733Y-108324364D01*
X133067732Y-108324364D01*
X133067736Y-108324365D01*
X133067739Y-108324367D01*
X133335854Y-108424369D01*
X133335860Y-108424370D01*
X133335862Y-108424371D01*
X133615466Y-108485195D01*
X133615468Y-108485195D01*
X133615472Y-108485196D01*
X133869120Y-108503337D01*
X133900899Y-108505610D01*
X133900900Y-108505610D01*
X133900901Y-108505610D01*
X133929495Y-108503564D01*
X134186328Y-108485196D01*
X134465946Y-108424369D01*
X134734061Y-108324367D01*
X134985215Y-108187226D01*
X135214295Y-108015739D01*
X135416639Y-107813395D01*
X135588126Y-107584315D01*
X135725267Y-107333161D01*
X135825269Y-107065046D01*
X135886096Y-106785428D01*
X135906510Y-106500000D01*
X135886096Y-106214572D01*
X135825269Y-105934954D01*
X135725267Y-105666839D01*
X135668235Y-105562394D01*
X135588129Y-105415690D01*
X135588124Y-105415682D01*
X135416645Y-105186612D01*
X135416629Y-105186594D01*
X135214305Y-104984270D01*
X135214287Y-104984254D01*
X134985217Y-104812775D01*
X134985209Y-104812770D01*
X134734066Y-104675635D01*
X134734067Y-104675635D01*
X134626815Y-104635632D01*
X134465946Y-104575631D01*
X134465943Y-104575630D01*
X134465937Y-104575628D01*
X134186333Y-104514804D01*
X133900901Y-104494390D01*
X133900899Y-104494390D01*
X133615466Y-104514804D01*
X133335862Y-104575628D01*
X133067733Y-104675635D01*
X132816590Y-104812770D01*
X132816582Y-104812775D01*
X132587512Y-104984254D01*
X132587494Y-104984270D01*
X132385170Y-105186594D01*
X132385154Y-105186612D01*
X132213675Y-105415682D01*
X132213670Y-105415690D01*
X132076535Y-105666833D01*
X131976528Y-105934962D01*
X131915704Y-106214566D01*
X131895290Y-106499998D01*
X130000500Y-106499998D01*
X130000500Y-100809998D01*
X131694532Y-100809998D01*
X131694532Y-100810001D01*
X131714364Y-101036686D01*
X131714366Y-101036697D01*
X131773258Y-101256488D01*
X131773261Y-101256497D01*
X131869431Y-101462732D01*
X131869432Y-101462734D01*
X131999954Y-101649141D01*
X132160858Y-101810045D01*
X132160861Y-101810047D01*
X132347266Y-101940568D01*
X132553504Y-102036739D01*
X132773308Y-102095635D01*
X132935230Y-102109801D01*
X132999998Y-102115468D01*
X133000000Y-102115468D01*
X133000002Y-102115468D01*
X133056673Y-102110509D01*
X133226692Y-102095635D01*
X133446496Y-102036739D01*
X133652734Y-101940568D01*
X133839139Y-101810047D01*
X134000047Y-101649139D01*
X134130118Y-101463375D01*
X134184693Y-101419752D01*
X134231692Y-101410500D01*
X138073903Y-101410500D01*
X138140942Y-101430185D01*
X138161584Y-101446819D01*
X141357546Y-104642782D01*
X141391031Y-104704105D01*
X141386047Y-104773797D01*
X141344175Y-104829730D01*
X141326161Y-104840947D01*
X141205976Y-104902185D01*
X141027641Y-105031752D01*
X141027636Y-105031756D01*
X140977075Y-105082317D01*
X140915752Y-105115801D01*
X140846060Y-105110816D01*
X140790127Y-105068945D01*
X140773213Y-105037968D01*
X140743354Y-104957913D01*
X140743350Y-104957906D01*
X140657190Y-104842812D01*
X140657187Y-104842809D01*
X140542093Y-104756649D01*
X140542086Y-104756645D01*
X140407379Y-104706403D01*
X140407372Y-104706401D01*
X140347844Y-104700000D01*
X139650000Y-104700000D01*
X139650000Y-105951517D01*
X139631591Y-105940889D01*
X139478991Y-105900000D01*
X139321009Y-105900000D01*
X139168409Y-105940889D01*
X139150000Y-105951517D01*
X139150000Y-104700000D01*
X138452155Y-104700000D01*
X138392627Y-104706401D01*
X138392620Y-104706403D01*
X138257913Y-104756645D01*
X138257906Y-104756649D01*
X138142812Y-104842809D01*
X138142809Y-104842812D01*
X138056649Y-104957906D01*
X138056645Y-104957913D01*
X138006403Y-105092620D01*
X138006401Y-105092627D01*
X138000000Y-105152155D01*
X138000000Y-106250000D01*
X138851518Y-106250000D01*
X138840889Y-106268409D01*
X138800000Y-106421009D01*
X138800000Y-106578991D01*
X138840889Y-106731591D01*
X138851518Y-106750000D01*
X138000000Y-106750000D01*
X138000000Y-107847844D01*
X138006401Y-107907372D01*
X138006403Y-107907379D01*
X138056645Y-108042086D01*
X138056649Y-108042093D01*
X138142809Y-108157187D01*
X138142812Y-108157190D01*
X138257906Y-108243350D01*
X138257913Y-108243354D01*
X138392620Y-108293596D01*
X138392627Y-108293598D01*
X138452155Y-108299999D01*
X138452172Y-108300000D01*
X139150000Y-108300000D01*
X139150000Y-107048482D01*
X139168409Y-107059111D01*
X139321009Y-107100000D01*
X139478991Y-107100000D01*
X139631591Y-107059111D01*
X139650000Y-107048482D01*
X139650000Y-108300000D01*
X140347828Y-108300000D01*
X140347844Y-108299999D01*
X140407372Y-108293598D01*
X140407379Y-108293596D01*
X140542086Y-108243354D01*
X140542093Y-108243350D01*
X140657187Y-108157190D01*
X140657190Y-108157187D01*
X140743350Y-108042093D01*
X140743354Y-108042086D01*
X140773213Y-107962031D01*
X140815084Y-107906097D01*
X140880548Y-107881680D01*
X140948821Y-107896531D01*
X140977076Y-107917683D01*
X141027636Y-107968243D01*
X141027641Y-107968247D01*
X141183192Y-108081260D01*
X141205978Y-108097815D01*
X141321359Y-108156605D01*
X141402393Y-108197895D01*
X141402396Y-108197896D01*
X141507221Y-108231955D01*
X141612049Y-108266015D01*
X141829778Y-108300500D01*
X141829779Y-108300500D01*
X142050221Y-108300500D01*
X142050222Y-108300500D01*
X142267951Y-108266015D01*
X142477606Y-108197895D01*
X142603395Y-108133801D01*
X142672062Y-108120905D01*
X142736803Y-108147180D01*
X142747370Y-108156605D01*
X143087239Y-108496474D01*
X143087249Y-108496485D01*
X143091579Y-108500815D01*
X143091580Y-108500816D01*
X143203384Y-108612620D01*
X143290195Y-108662739D01*
X143290197Y-108662741D01*
X143328251Y-108684711D01*
X143340315Y-108691677D01*
X143493043Y-108732601D01*
X143493046Y-108732601D01*
X143658753Y-108732601D01*
X143658769Y-108732600D01*
X172825231Y-108732600D01*
X172825247Y-108732601D01*
X172832843Y-108732601D01*
X172990954Y-108732601D01*
X172990957Y-108732601D01*
X173143685Y-108691677D01*
X173193804Y-108662739D01*
X173280616Y-108612620D01*
X173392420Y-108500816D01*
X173392420Y-108500814D01*
X173402628Y-108490607D01*
X173402629Y-108490604D01*
X173901715Y-107991518D01*
X173963037Y-107958035D01*
X174032729Y-107963019D01*
X174062280Y-107978883D01*
X174209667Y-108085964D01*
X174225978Y-108097815D01*
X174341359Y-108156605D01*
X174422393Y-108197895D01*
X174422396Y-108197896D01*
X174527221Y-108231955D01*
X174632049Y-108266015D01*
X174849778Y-108300500D01*
X174849779Y-108300500D01*
X175070221Y-108300500D01*
X175070222Y-108300500D01*
X175287951Y-108266015D01*
X175497606Y-108197895D01*
X175694022Y-108097815D01*
X175872365Y-107968242D01*
X176028242Y-107812365D01*
X176129991Y-107672317D01*
X176185320Y-107629653D01*
X176254933Y-107623674D01*
X176316729Y-107656279D01*
X176330627Y-107672318D01*
X176432142Y-107812041D01*
X176587958Y-107967857D01*
X176766239Y-108097386D01*
X176962589Y-108197432D01*
X177172163Y-108265526D01*
X177249999Y-108277854D01*
X177250000Y-108277854D01*
X177250000Y-107048482D01*
X177268409Y-107059111D01*
X177421009Y-107100000D01*
X177578991Y-107100000D01*
X177731591Y-107059111D01*
X177750000Y-107048482D01*
X177750000Y-108277854D01*
X177827834Y-108265526D01*
X177827837Y-108265526D01*
X178037410Y-108197432D01*
X178233760Y-108097386D01*
X178412041Y-107967857D01*
X178567857Y-107812041D01*
X178697386Y-107633760D01*
X178797432Y-107437410D01*
X178865526Y-107227835D01*
X178900000Y-107010181D01*
X178900000Y-106750000D01*
X178048482Y-106750000D01*
X178059111Y-106731591D01*
X178100000Y-106578991D01*
X178100000Y-106499998D01*
X206894390Y-106499998D01*
X206894390Y-106500001D01*
X206914804Y-106785433D01*
X206975628Y-107065037D01*
X206975630Y-107065043D01*
X206975631Y-107065046D01*
X207036392Y-107227951D01*
X207075635Y-107333166D01*
X207212770Y-107584309D01*
X207212775Y-107584317D01*
X207384254Y-107813387D01*
X207384270Y-107813405D01*
X207586594Y-108015729D01*
X207586612Y-108015745D01*
X207815682Y-108187224D01*
X207815690Y-108187229D01*
X208066833Y-108324364D01*
X208066832Y-108324364D01*
X208066836Y-108324365D01*
X208066839Y-108324367D01*
X208334954Y-108424369D01*
X208334960Y-108424370D01*
X208334962Y-108424371D01*
X208614566Y-108485195D01*
X208614568Y-108485195D01*
X208614572Y-108485196D01*
X208868220Y-108503337D01*
X208899999Y-108505610D01*
X208900000Y-108505610D01*
X208900001Y-108505610D01*
X208928595Y-108503564D01*
X209185428Y-108485196D01*
X209465046Y-108424369D01*
X209733161Y-108324367D01*
X209984315Y-108187226D01*
X210213395Y-108015739D01*
X210415739Y-107813395D01*
X210587226Y-107584315D01*
X210724367Y-107333161D01*
X210824369Y-107065046D01*
X210885196Y-106785428D01*
X210905610Y-106500000D01*
X210885196Y-106214572D01*
X210824369Y-105934954D01*
X210724367Y-105666839D01*
X210667335Y-105562394D01*
X210587229Y-105415690D01*
X210587224Y-105415682D01*
X210415745Y-105186612D01*
X210415729Y-105186594D01*
X210213405Y-104984270D01*
X210213387Y-104984254D01*
X209984317Y-104812775D01*
X209984309Y-104812770D01*
X209733166Y-104675635D01*
X209733167Y-104675635D01*
X209625915Y-104635632D01*
X209465046Y-104575631D01*
X209465043Y-104575630D01*
X209465037Y-104575628D01*
X209185433Y-104514804D01*
X208900001Y-104494390D01*
X208899999Y-104494390D01*
X208614566Y-104514804D01*
X208334962Y-104575628D01*
X208066833Y-104675635D01*
X207815690Y-104812770D01*
X207815682Y-104812775D01*
X207586612Y-104984254D01*
X207586594Y-104984270D01*
X207384270Y-105186594D01*
X207384254Y-105186612D01*
X207212775Y-105415682D01*
X207212770Y-105415690D01*
X207075635Y-105666833D01*
X206975628Y-105934962D01*
X206914804Y-106214566D01*
X206894390Y-106499998D01*
X178100000Y-106499998D01*
X178100000Y-106421009D01*
X178059111Y-106268409D01*
X178048482Y-106250000D01*
X178900000Y-106250000D01*
X178900000Y-105989818D01*
X178865526Y-105772164D01*
X178797432Y-105562589D01*
X178697386Y-105366239D01*
X178567857Y-105187958D01*
X178412041Y-105032142D01*
X178233760Y-104902613D01*
X178037410Y-104802567D01*
X177827836Y-104734473D01*
X177750000Y-104722144D01*
X177750000Y-105951517D01*
X177731591Y-105940889D01*
X177578991Y-105900000D01*
X177421009Y-105900000D01*
X177268409Y-105940889D01*
X177250000Y-105951517D01*
X177250000Y-104722144D01*
X177172164Y-104734473D01*
X177172161Y-104734473D01*
X176962589Y-104802567D01*
X176766239Y-104902613D01*
X176587958Y-105032142D01*
X176432142Y-105187958D01*
X176432142Y-105187959D01*
X176330627Y-105327681D01*
X176275297Y-105370346D01*
X176205683Y-105376325D01*
X176143888Y-105343719D01*
X176129991Y-105327680D01*
X176028247Y-105187641D01*
X176028243Y-105187636D01*
X175872363Y-105031756D01*
X175872358Y-105031752D01*
X175694025Y-104902187D01*
X175694024Y-104902186D01*
X175694022Y-104902185D01*
X175631096Y-104870122D01*
X175497606Y-104802104D01*
X175497603Y-104802103D01*
X175287952Y-104733985D01*
X175179086Y-104716742D01*
X175070222Y-104699500D01*
X174849778Y-104699500D01*
X174777201Y-104710995D01*
X174632047Y-104733985D01*
X174422396Y-104802103D01*
X174422393Y-104802104D01*
X174225974Y-104902187D01*
X174047641Y-105031752D01*
X174047636Y-105031756D01*
X173891756Y-105187636D01*
X173891752Y-105187641D01*
X173790318Y-105327254D01*
X173734988Y-105369920D01*
X173665375Y-105375899D01*
X173603580Y-105343293D01*
X173589682Y-105327254D01*
X173488247Y-105187641D01*
X173488243Y-105187636D01*
X173332363Y-105031756D01*
X173332358Y-105031752D01*
X173154025Y-104902187D01*
X173154024Y-104902186D01*
X173154022Y-104902185D01*
X173091096Y-104870122D01*
X172957606Y-104802104D01*
X172957603Y-104802103D01*
X172747952Y-104733985D01*
X172639086Y-104716742D01*
X172530222Y-104699500D01*
X172309778Y-104699500D01*
X172237201Y-104710995D01*
X172092047Y-104733985D01*
X171882396Y-104802103D01*
X171882393Y-104802104D01*
X171685974Y-104902187D01*
X171507641Y-105031752D01*
X171507636Y-105031756D01*
X171351756Y-105187636D01*
X171351752Y-105187641D01*
X171250318Y-105327254D01*
X171194988Y-105369920D01*
X171125375Y-105375899D01*
X171063580Y-105343293D01*
X171049682Y-105327254D01*
X170948247Y-105187641D01*
X170948243Y-105187636D01*
X170792363Y-105031756D01*
X170792358Y-105031752D01*
X170614025Y-104902187D01*
X170614024Y-104902186D01*
X170614022Y-104902185D01*
X170551096Y-104870122D01*
X170417606Y-104802104D01*
X170417603Y-104802103D01*
X170207952Y-104733985D01*
X170099086Y-104716742D01*
X169990222Y-104699500D01*
X169769778Y-104699500D01*
X169697201Y-104710995D01*
X169552047Y-104733985D01*
X169342396Y-104802103D01*
X169342393Y-104802104D01*
X169145974Y-104902187D01*
X168967641Y-105031752D01*
X168967636Y-105031756D01*
X168811756Y-105187636D01*
X168811752Y-105187641D01*
X168710318Y-105327254D01*
X168654988Y-105369920D01*
X168585375Y-105375899D01*
X168523580Y-105343293D01*
X168509682Y-105327254D01*
X168408247Y-105187641D01*
X168408243Y-105187636D01*
X168252363Y-105031756D01*
X168252358Y-105031752D01*
X168074025Y-104902187D01*
X168074024Y-104902186D01*
X168074022Y-104902185D01*
X168011096Y-104870122D01*
X167877606Y-104802104D01*
X167877603Y-104802103D01*
X167667952Y-104733985D01*
X167559086Y-104716742D01*
X167450222Y-104699500D01*
X167229778Y-104699500D01*
X167157201Y-104710995D01*
X167012047Y-104733985D01*
X166802396Y-104802103D01*
X166802393Y-104802104D01*
X166605974Y-104902187D01*
X166427641Y-105031752D01*
X166427636Y-105031756D01*
X166271756Y-105187636D01*
X166271752Y-105187641D01*
X166170318Y-105327254D01*
X166114988Y-105369920D01*
X166045375Y-105375899D01*
X165983580Y-105343293D01*
X165969682Y-105327254D01*
X165868247Y-105187641D01*
X165868243Y-105187636D01*
X165712363Y-105031756D01*
X165712358Y-105031752D01*
X165534025Y-104902187D01*
X165534024Y-104902186D01*
X165534022Y-104902185D01*
X165471096Y-104870122D01*
X165337606Y-104802104D01*
X165337603Y-104802103D01*
X165127952Y-104733985D01*
X165019086Y-104716742D01*
X164910222Y-104699500D01*
X164689778Y-104699500D01*
X164617201Y-104710995D01*
X164472047Y-104733985D01*
X164262396Y-104802103D01*
X164262393Y-104802104D01*
X164065974Y-104902187D01*
X163887641Y-105031752D01*
X163887636Y-105031756D01*
X163731756Y-105187636D01*
X163731752Y-105187641D01*
X163630318Y-105327254D01*
X163574988Y-105369920D01*
X163505375Y-105375899D01*
X163443580Y-105343293D01*
X163429682Y-105327254D01*
X163328247Y-105187641D01*
X163328243Y-105187636D01*
X163172363Y-105031756D01*
X163172358Y-105031752D01*
X162994025Y-104902187D01*
X162994024Y-104902186D01*
X162994022Y-104902185D01*
X162931096Y-104870122D01*
X162797606Y-104802104D01*
X162797603Y-104802103D01*
X162587952Y-104733985D01*
X162479086Y-104716742D01*
X162370222Y-104699500D01*
X162149778Y-104699500D01*
X162077201Y-104710995D01*
X161932047Y-104733985D01*
X161722396Y-104802103D01*
X161722393Y-104802104D01*
X161525974Y-104902187D01*
X161347641Y-105031752D01*
X161347636Y-105031756D01*
X161191756Y-105187636D01*
X161191752Y-105187641D01*
X161090318Y-105327254D01*
X161034988Y-105369920D01*
X160965375Y-105375899D01*
X160903580Y-105343293D01*
X160889682Y-105327254D01*
X160788247Y-105187641D01*
X160788243Y-105187636D01*
X160632363Y-105031756D01*
X160632358Y-105031752D01*
X160454025Y-104902187D01*
X160454024Y-104902186D01*
X160454022Y-104902185D01*
X160391096Y-104870122D01*
X160257606Y-104802104D01*
X160257603Y-104802103D01*
X160047952Y-104733985D01*
X159939086Y-104716742D01*
X159830222Y-104699500D01*
X159609778Y-104699500D01*
X159537201Y-104710995D01*
X159392047Y-104733985D01*
X159182396Y-104802103D01*
X159182393Y-104802104D01*
X158985974Y-104902187D01*
X158807641Y-105031752D01*
X158807636Y-105031756D01*
X158651756Y-105187636D01*
X158651752Y-105187641D01*
X158550318Y-105327254D01*
X158494988Y-105369920D01*
X158425375Y-105375899D01*
X158363580Y-105343293D01*
X158349682Y-105327254D01*
X158248247Y-105187641D01*
X158248243Y-105187636D01*
X158092363Y-105031756D01*
X158092358Y-105031752D01*
X157914025Y-104902187D01*
X157914024Y-104902186D01*
X157914022Y-104902185D01*
X157851096Y-104870122D01*
X157717606Y-104802104D01*
X157717603Y-104802103D01*
X157507952Y-104733985D01*
X157399086Y-104716742D01*
X157290222Y-104699500D01*
X157069778Y-104699500D01*
X156997201Y-104710995D01*
X156852047Y-104733985D01*
X156642396Y-104802103D01*
X156642393Y-104802104D01*
X156445974Y-104902187D01*
X156267641Y-105031752D01*
X156267636Y-105031756D01*
X156111756Y-105187636D01*
X156111752Y-105187641D01*
X156010318Y-105327254D01*
X155954988Y-105369920D01*
X155885375Y-105375899D01*
X155823580Y-105343293D01*
X155809682Y-105327254D01*
X155708247Y-105187641D01*
X155708243Y-105187636D01*
X155552363Y-105031756D01*
X155552358Y-105031752D01*
X155374025Y-104902187D01*
X155374024Y-104902186D01*
X155374022Y-104902185D01*
X155311096Y-104870122D01*
X155177606Y-104802104D01*
X155177603Y-104802103D01*
X154967952Y-104733985D01*
X154859086Y-104716742D01*
X154750222Y-104699500D01*
X154529778Y-104699500D01*
X154457201Y-104710995D01*
X154312047Y-104733985D01*
X154102396Y-104802103D01*
X154102393Y-104802104D01*
X153905974Y-104902187D01*
X153727641Y-105031752D01*
X153727636Y-105031756D01*
X153571756Y-105187636D01*
X153571752Y-105187641D01*
X153470318Y-105327254D01*
X153414988Y-105369920D01*
X153345375Y-105375899D01*
X153283580Y-105343293D01*
X153269682Y-105327254D01*
X153168247Y-105187641D01*
X153168243Y-105187636D01*
X153012363Y-105031756D01*
X153012358Y-105031752D01*
X152834025Y-104902187D01*
X152834024Y-104902186D01*
X152834022Y-104902185D01*
X152771096Y-104870122D01*
X152637606Y-104802104D01*
X152637603Y-104802103D01*
X152427952Y-104733985D01*
X152319086Y-104716742D01*
X152210222Y-104699500D01*
X151989778Y-104699500D01*
X151917201Y-104710995D01*
X151772047Y-104733985D01*
X151562396Y-104802103D01*
X151562393Y-104802104D01*
X151365974Y-104902187D01*
X151187641Y-105031752D01*
X151187636Y-105031756D01*
X151031756Y-105187636D01*
X150930008Y-105327681D01*
X150874678Y-105370346D01*
X150805065Y-105376325D01*
X150743270Y-105343719D01*
X150729372Y-105327680D01*
X150627862Y-105187964D01*
X150627857Y-105187958D01*
X150472041Y-105032142D01*
X150293760Y-104902613D01*
X150097410Y-104802567D01*
X149887836Y-104734473D01*
X149810000Y-104722144D01*
X149810000Y-105951517D01*
X149791591Y-105940889D01*
X149638991Y-105900000D01*
X149481009Y-105900000D01*
X149328409Y-105940889D01*
X149310000Y-105951517D01*
X149310000Y-104722144D01*
X149232164Y-104734473D01*
X149232161Y-104734473D01*
X149022589Y-104802567D01*
X148826239Y-104902613D01*
X148647958Y-105032142D01*
X148492142Y-105187958D01*
X148492142Y-105187959D01*
X148390627Y-105327681D01*
X148335297Y-105370346D01*
X148265683Y-105376325D01*
X148203888Y-105343719D01*
X148189991Y-105327680D01*
X148088247Y-105187641D01*
X148088243Y-105187636D01*
X147932363Y-105031756D01*
X147932358Y-105031752D01*
X147754025Y-104902187D01*
X147754024Y-104902186D01*
X147754022Y-104902185D01*
X147691096Y-104870122D01*
X147557606Y-104802104D01*
X147557603Y-104802103D01*
X147347952Y-104733985D01*
X147239086Y-104716742D01*
X147130222Y-104699500D01*
X146909778Y-104699500D01*
X146837201Y-104710995D01*
X146692047Y-104733985D01*
X146482396Y-104802103D01*
X146482393Y-104802104D01*
X146285974Y-104902187D01*
X146107641Y-105031752D01*
X146107636Y-105031756D01*
X145951756Y-105187636D01*
X145951752Y-105187641D01*
X145850318Y-105327254D01*
X145794988Y-105369920D01*
X145725375Y-105375899D01*
X145663580Y-105343293D01*
X145649682Y-105327254D01*
X145548247Y-105187641D01*
X145548243Y-105187636D01*
X145392363Y-105031756D01*
X145392358Y-105031752D01*
X145214025Y-104902187D01*
X145214024Y-104902186D01*
X145214022Y-104902185D01*
X145151096Y-104870122D01*
X145017606Y-104802104D01*
X145017603Y-104802103D01*
X144807952Y-104733985D01*
X144699086Y-104716742D01*
X144590222Y-104699500D01*
X144369778Y-104699500D01*
X144297201Y-104710995D01*
X144152047Y-104733985D01*
X143942396Y-104802103D01*
X143942393Y-104802104D01*
X143745974Y-104902187D01*
X143582281Y-105021116D01*
X143516474Y-105044596D01*
X143448421Y-105028770D01*
X143421715Y-105008479D01*
X138861590Y-100448355D01*
X138861588Y-100448352D01*
X138742717Y-100329481D01*
X138742716Y-100329480D01*
X138655904Y-100279360D01*
X138655904Y-100279359D01*
X138655900Y-100279358D01*
X138605785Y-100250423D01*
X138453057Y-100209499D01*
X138294943Y-100209499D01*
X138287347Y-100209499D01*
X138287331Y-100209500D01*
X134231692Y-100209500D01*
X134164653Y-100189815D01*
X134130119Y-100156625D01*
X134000047Y-99970861D01*
X134000045Y-99970858D01*
X133839141Y-99809954D01*
X133652734Y-99679432D01*
X133652732Y-99679431D01*
X133446497Y-99583261D01*
X133446488Y-99583258D01*
X133226697Y-99524366D01*
X133226693Y-99524365D01*
X133226692Y-99524365D01*
X133226691Y-99524364D01*
X133226686Y-99524364D01*
X133000002Y-99504532D01*
X132999998Y-99504532D01*
X132773313Y-99524364D01*
X132773302Y-99524366D01*
X132553511Y-99583258D01*
X132553502Y-99583261D01*
X132347267Y-99679431D01*
X132347265Y-99679432D01*
X132160858Y-99809954D01*
X131999954Y-99970858D01*
X131869432Y-100157265D01*
X131869431Y-100157267D01*
X131773261Y-100363502D01*
X131773258Y-100363511D01*
X131714366Y-100583302D01*
X131714364Y-100583313D01*
X131694532Y-100809998D01*
X130000500Y-100809998D01*
X130000500Y-93189997D01*
X131695034Y-93189997D01*
X131695034Y-93190002D01*
X131714858Y-93416599D01*
X131714860Y-93416610D01*
X131773730Y-93636317D01*
X131773735Y-93636331D01*
X131869863Y-93842478D01*
X131920974Y-93915472D01*
X132600000Y-93236446D01*
X132600000Y-93242661D01*
X132627259Y-93344394D01*
X132679920Y-93435606D01*
X132754394Y-93510080D01*
X132845606Y-93562741D01*
X132947339Y-93590000D01*
X132953553Y-93590000D01*
X132274526Y-94269025D01*
X132347513Y-94320132D01*
X132347521Y-94320136D01*
X132553668Y-94416264D01*
X132553682Y-94416269D01*
X132773389Y-94475139D01*
X132773400Y-94475141D01*
X132999998Y-94494966D01*
X133000002Y-94494966D01*
X133226599Y-94475141D01*
X133226610Y-94475139D01*
X133446317Y-94416269D01*
X133446331Y-94416264D01*
X133652478Y-94320136D01*
X133725471Y-94269024D01*
X133046447Y-93590000D01*
X133052661Y-93590000D01*
X133154394Y-93562741D01*
X133245606Y-93510080D01*
X133320080Y-93435606D01*
X133372741Y-93344394D01*
X133400000Y-93242661D01*
X133400000Y-93236447D01*
X134079024Y-93915471D01*
X134130136Y-93842478D01*
X134226264Y-93636331D01*
X134226269Y-93636317D01*
X134285139Y-93416610D01*
X134285141Y-93416599D01*
X134304966Y-93190002D01*
X134304966Y-93189997D01*
X134285141Y-92963400D01*
X134285139Y-92963389D01*
X134226269Y-92743682D01*
X134226264Y-92743668D01*
X134130136Y-92537521D01*
X134130132Y-92537513D01*
X134079025Y-92464526D01*
X133400000Y-93143551D01*
X133400000Y-93137339D01*
X133372741Y-93035606D01*
X133320080Y-92944394D01*
X133245606Y-92869920D01*
X133154394Y-92817259D01*
X133052661Y-92790000D01*
X133046448Y-92790000D01*
X133725472Y-92110974D01*
X133652478Y-92059863D01*
X133446331Y-91963735D01*
X133446317Y-91963730D01*
X133226610Y-91904860D01*
X133226599Y-91904858D01*
X133000002Y-91885034D01*
X132999998Y-91885034D01*
X132773400Y-91904858D01*
X132773389Y-91904860D01*
X132553682Y-91963730D01*
X132553673Y-91963734D01*
X132347516Y-92059866D01*
X132347512Y-92059868D01*
X132274526Y-92110973D01*
X132274526Y-92110974D01*
X132953553Y-92790000D01*
X132947339Y-92790000D01*
X132845606Y-92817259D01*
X132754394Y-92869920D01*
X132679920Y-92944394D01*
X132627259Y-93035606D01*
X132600000Y-93137339D01*
X132600000Y-93143552D01*
X131920974Y-92464526D01*
X131920973Y-92464526D01*
X131869868Y-92537512D01*
X131869866Y-92537516D01*
X131773734Y-92743673D01*
X131773730Y-92743682D01*
X131714860Y-92963389D01*
X131714858Y-92963400D01*
X131695034Y-93189997D01*
X130000500Y-93189997D01*
X130000500Y-88899997D01*
X138732677Y-88899997D01*
X138732677Y-88900002D01*
X138751929Y-89120062D01*
X138751930Y-89120070D01*
X138809104Y-89333445D01*
X138809105Y-89333447D01*
X138809106Y-89333450D01*
X138868106Y-89459977D01*
X138902466Y-89533662D01*
X138902468Y-89533666D01*
X139029170Y-89714615D01*
X139029175Y-89714621D01*
X139185378Y-89870824D01*
X139185384Y-89870829D01*
X139366333Y-89997531D01*
X139366335Y-89997532D01*
X139366338Y-89997534D01*
X139566550Y-90090894D01*
X139779932Y-90148070D01*
X139937123Y-90161822D01*
X139999998Y-90167323D01*
X140000000Y-90167323D01*
X140000002Y-90167323D01*
X140055017Y-90162509D01*
X140220068Y-90148070D01*
X140433450Y-90090894D01*
X140633662Y-89997534D01*
X140814620Y-89870826D01*
X140970826Y-89714620D01*
X141097534Y-89533662D01*
X141143894Y-89434241D01*
X141190066Y-89381802D01*
X141257259Y-89362650D01*
X141324141Y-89382865D01*
X141368658Y-89434242D01*
X141414898Y-89533405D01*
X141414901Y-89533411D01*
X141460258Y-89598187D01*
X141460259Y-89598188D01*
X142131000Y-88927447D01*
X142131000Y-88950160D01*
X142156964Y-89047061D01*
X142207124Y-89133940D01*
X142278060Y-89204876D01*
X142364939Y-89255036D01*
X142461840Y-89281000D01*
X142484553Y-89281000D01*
X141813810Y-89951740D01*
X141878590Y-89997099D01*
X141878592Y-89997100D01*
X142078715Y-90090419D01*
X142078729Y-90090424D01*
X142292013Y-90147573D01*
X142292023Y-90147575D01*
X142511999Y-90166821D01*
X142512001Y-90166821D01*
X142731976Y-90147575D01*
X142731986Y-90147573D01*
X142945270Y-90090424D01*
X142945284Y-90090419D01*
X143145407Y-89997100D01*
X143145417Y-89997094D01*
X143210188Y-89951741D01*
X142539448Y-89281000D01*
X142562160Y-89281000D01*
X142659061Y-89255036D01*
X142745940Y-89204876D01*
X142816876Y-89133940D01*
X142867036Y-89047061D01*
X142893000Y-88950160D01*
X142893000Y-88927447D01*
X143563741Y-89598188D01*
X143609094Y-89533417D01*
X143609097Y-89533412D01*
X143643340Y-89459977D01*
X143689512Y-89407537D01*
X143756705Y-89388384D01*
X143823586Y-89408599D01*
X143868105Y-89459975D01*
X143902464Y-89533658D01*
X143902466Y-89533661D01*
X143902468Y-89533666D01*
X144029170Y-89714615D01*
X144029175Y-89714621D01*
X144185378Y-89870824D01*
X144185384Y-89870829D01*
X144366333Y-89997531D01*
X144366335Y-89997532D01*
X144366338Y-89997534D01*
X144566550Y-90090894D01*
X144779932Y-90148070D01*
X144937123Y-90161822D01*
X144999998Y-90167323D01*
X145000000Y-90167323D01*
X145000002Y-90167323D01*
X145055017Y-90162509D01*
X145220068Y-90148070D01*
X145433450Y-90090894D01*
X145633662Y-89997534D01*
X145814620Y-89870826D01*
X145970826Y-89714620D01*
X146097534Y-89533662D01*
X146137618Y-89447700D01*
X146183790Y-89395261D01*
X146250983Y-89376109D01*
X146317864Y-89396324D01*
X146362382Y-89447701D01*
X146402464Y-89533658D01*
X146402468Y-89533666D01*
X146529170Y-89714615D01*
X146529175Y-89714621D01*
X146685378Y-89870824D01*
X146685384Y-89870829D01*
X146866333Y-89997531D01*
X146866335Y-89997532D01*
X146866338Y-89997534D01*
X147066550Y-90090894D01*
X147279932Y-90148070D01*
X147437123Y-90161822D01*
X147499998Y-90167323D01*
X147500000Y-90167323D01*
X147500002Y-90167323D01*
X147555017Y-90162509D01*
X147720068Y-90148070D01*
X147933450Y-90090894D01*
X148133662Y-89997534D01*
X148314620Y-89870826D01*
X148470826Y-89714620D01*
X148597534Y-89533662D01*
X148637618Y-89447700D01*
X148683790Y-89395261D01*
X148750983Y-89376109D01*
X148817864Y-89396324D01*
X148862382Y-89447701D01*
X148902464Y-89533658D01*
X148902468Y-89533666D01*
X149029170Y-89714615D01*
X149029175Y-89714621D01*
X149185378Y-89870824D01*
X149185384Y-89870829D01*
X149366333Y-89997531D01*
X149366335Y-89997532D01*
X149366338Y-89997534D01*
X149566550Y-90090894D01*
X149779932Y-90148070D01*
X149937123Y-90161822D01*
X149999998Y-90167323D01*
X150000000Y-90167323D01*
X150000002Y-90167323D01*
X150055017Y-90162509D01*
X150220068Y-90148070D01*
X150433450Y-90090894D01*
X150633662Y-89997534D01*
X150814620Y-89870826D01*
X150970826Y-89714620D01*
X151097534Y-89533662D01*
X151137618Y-89447700D01*
X151183790Y-89395261D01*
X151250983Y-89376109D01*
X151317864Y-89396324D01*
X151362382Y-89447701D01*
X151402464Y-89533658D01*
X151402468Y-89533666D01*
X151529170Y-89714615D01*
X151529175Y-89714621D01*
X151685378Y-89870824D01*
X151685384Y-89870829D01*
X151866333Y-89997531D01*
X151866335Y-89997532D01*
X151866338Y-89997534D01*
X152066550Y-90090894D01*
X152279932Y-90148070D01*
X152437123Y-90161822D01*
X152499998Y-90167323D01*
X152500000Y-90167323D01*
X152500002Y-90167323D01*
X152555017Y-90162509D01*
X152720068Y-90148070D01*
X152933450Y-90090894D01*
X153133662Y-89997534D01*
X153314620Y-89870826D01*
X153470826Y-89714620D01*
X153597534Y-89533662D01*
X153637618Y-89447700D01*
X153683790Y-89395261D01*
X153750983Y-89376109D01*
X153817864Y-89396324D01*
X153862382Y-89447701D01*
X153902464Y-89533658D01*
X153902468Y-89533666D01*
X154029170Y-89714615D01*
X154029175Y-89714621D01*
X154185378Y-89870824D01*
X154185384Y-89870829D01*
X154366333Y-89997531D01*
X154366335Y-89997532D01*
X154366338Y-89997534D01*
X154566550Y-90090894D01*
X154779932Y-90148070D01*
X154937123Y-90161822D01*
X154999998Y-90167323D01*
X155000000Y-90167323D01*
X155000002Y-90167323D01*
X155055017Y-90162509D01*
X155220068Y-90148070D01*
X155433450Y-90090894D01*
X155633662Y-89997534D01*
X155814620Y-89870826D01*
X155970826Y-89714620D01*
X156097534Y-89533662D01*
X156137618Y-89447700D01*
X156183790Y-89395261D01*
X156250983Y-89376109D01*
X156317864Y-89396324D01*
X156362382Y-89447701D01*
X156402464Y-89533658D01*
X156402468Y-89533666D01*
X156529170Y-89714615D01*
X156529175Y-89714621D01*
X156685378Y-89870824D01*
X156685384Y-89870829D01*
X156866333Y-89997531D01*
X156866335Y-89997532D01*
X156866338Y-89997534D01*
X157066550Y-90090894D01*
X157279932Y-90148070D01*
X157437123Y-90161822D01*
X157499998Y-90167323D01*
X157500000Y-90167323D01*
X157500002Y-90167323D01*
X157555017Y-90162509D01*
X157720068Y-90148070D01*
X157933450Y-90090894D01*
X158133662Y-89997534D01*
X158314620Y-89870826D01*
X158470826Y-89714620D01*
X158597534Y-89533662D01*
X158637618Y-89447700D01*
X158683790Y-89395261D01*
X158750983Y-89376109D01*
X158817864Y-89396324D01*
X158862382Y-89447701D01*
X158902464Y-89533658D01*
X158902468Y-89533666D01*
X159029170Y-89714615D01*
X159029175Y-89714621D01*
X159185378Y-89870824D01*
X159185384Y-89870829D01*
X159366333Y-89997531D01*
X159366335Y-89997532D01*
X159366338Y-89997534D01*
X159566550Y-90090894D01*
X159779932Y-90148070D01*
X159937123Y-90161822D01*
X159999998Y-90167323D01*
X160000000Y-90167323D01*
X160000002Y-90167323D01*
X160055017Y-90162509D01*
X160220068Y-90148070D01*
X160433450Y-90090894D01*
X160633662Y-89997534D01*
X160814620Y-89870826D01*
X160970826Y-89714620D01*
X161097534Y-89533662D01*
X161137618Y-89447700D01*
X161183790Y-89395261D01*
X161250983Y-89376109D01*
X161317864Y-89396324D01*
X161362382Y-89447701D01*
X161402464Y-89533658D01*
X161402468Y-89533666D01*
X161529170Y-89714615D01*
X161529175Y-89714621D01*
X161685378Y-89870824D01*
X161685384Y-89870829D01*
X161866333Y-89997531D01*
X161866335Y-89997532D01*
X161866338Y-89997534D01*
X162066550Y-90090894D01*
X162279932Y-90148070D01*
X162437123Y-90161822D01*
X162499998Y-90167323D01*
X162500000Y-90167323D01*
X162500002Y-90167323D01*
X162555017Y-90162509D01*
X162720068Y-90148070D01*
X162933450Y-90090894D01*
X163133662Y-89997534D01*
X163314620Y-89870826D01*
X163470826Y-89714620D01*
X163597534Y-89533662D01*
X163637618Y-89447700D01*
X163683790Y-89395261D01*
X163750983Y-89376109D01*
X163817864Y-89396324D01*
X163862382Y-89447701D01*
X163902464Y-89533658D01*
X163902468Y-89533666D01*
X164029170Y-89714615D01*
X164029175Y-89714621D01*
X164185378Y-89870824D01*
X164185384Y-89870829D01*
X164366333Y-89997531D01*
X164366335Y-89997532D01*
X164366338Y-89997534D01*
X164566550Y-90090894D01*
X164779932Y-90148070D01*
X164937123Y-90161822D01*
X164999998Y-90167323D01*
X165000000Y-90167323D01*
X165000002Y-90167323D01*
X165055017Y-90162509D01*
X165220068Y-90148070D01*
X165433450Y-90090894D01*
X165633662Y-89997534D01*
X165814620Y-89870826D01*
X165970826Y-89714620D01*
X166097534Y-89533662D01*
X166137618Y-89447700D01*
X166183790Y-89395261D01*
X166250983Y-89376109D01*
X166317864Y-89396324D01*
X166362382Y-89447701D01*
X166402464Y-89533658D01*
X166402468Y-89533666D01*
X166529170Y-89714615D01*
X166529175Y-89714621D01*
X166685378Y-89870824D01*
X166685384Y-89870829D01*
X166866333Y-89997531D01*
X166866335Y-89997532D01*
X166866338Y-89997534D01*
X167066550Y-90090894D01*
X167279932Y-90148070D01*
X167437123Y-90161822D01*
X167499998Y-90167323D01*
X167500000Y-90167323D01*
X167500002Y-90167323D01*
X167555017Y-90162509D01*
X167720068Y-90148070D01*
X167933450Y-90090894D01*
X168133662Y-89997534D01*
X168314620Y-89870826D01*
X168470826Y-89714620D01*
X168597534Y-89533662D01*
X168637618Y-89447700D01*
X168683790Y-89395261D01*
X168750983Y-89376109D01*
X168817864Y-89396324D01*
X168862382Y-89447701D01*
X168902464Y-89533658D01*
X168902468Y-89533666D01*
X169029170Y-89714615D01*
X169029175Y-89714621D01*
X169185378Y-89870824D01*
X169185384Y-89870829D01*
X169366333Y-89997531D01*
X169366335Y-89997532D01*
X169366338Y-89997534D01*
X169566550Y-90090894D01*
X169779932Y-90148070D01*
X169937123Y-90161822D01*
X169999998Y-90167323D01*
X170000000Y-90167323D01*
X170000002Y-90167323D01*
X170055017Y-90162509D01*
X170220068Y-90148070D01*
X170433450Y-90090894D01*
X170633662Y-89997534D01*
X170814620Y-89870826D01*
X170970826Y-89714620D01*
X171097534Y-89533662D01*
X171137618Y-89447700D01*
X171183790Y-89395261D01*
X171250983Y-89376109D01*
X171317864Y-89396324D01*
X171362382Y-89447701D01*
X171402464Y-89533658D01*
X171402468Y-89533666D01*
X171529170Y-89714615D01*
X171529175Y-89714621D01*
X171685378Y-89870824D01*
X171685384Y-89870829D01*
X171866333Y-89997531D01*
X171866335Y-89997532D01*
X171866338Y-89997534D01*
X172066550Y-90090894D01*
X172279932Y-90148070D01*
X172437123Y-90161822D01*
X172499998Y-90167323D01*
X172500000Y-90167323D01*
X172500002Y-90167323D01*
X172555017Y-90162509D01*
X172720068Y-90148070D01*
X172933450Y-90090894D01*
X173133662Y-89997534D01*
X173314620Y-89870826D01*
X173470826Y-89714620D01*
X173597534Y-89533662D01*
X173637618Y-89447700D01*
X173683790Y-89395261D01*
X173750983Y-89376109D01*
X173817864Y-89396324D01*
X173862382Y-89447701D01*
X173902464Y-89533658D01*
X173902468Y-89533666D01*
X174029170Y-89714615D01*
X174029175Y-89714621D01*
X174185378Y-89870824D01*
X174185384Y-89870829D01*
X174366333Y-89997531D01*
X174366335Y-89997532D01*
X174366338Y-89997534D01*
X174566550Y-90090894D01*
X174779932Y-90148070D01*
X174937123Y-90161822D01*
X174999998Y-90167323D01*
X175000000Y-90167323D01*
X175000002Y-90167323D01*
X175055017Y-90162509D01*
X175220068Y-90148070D01*
X175433450Y-90090894D01*
X175633662Y-89997534D01*
X175814620Y-89870826D01*
X175970826Y-89714620D01*
X176097534Y-89533662D01*
X176190894Y-89333450D01*
X176248070Y-89120068D01*
X176267323Y-88900000D01*
X176248070Y-88679932D01*
X176190894Y-88466550D01*
X176097534Y-88266339D01*
X175970826Y-88085380D01*
X175814620Y-87929174D01*
X175814616Y-87929171D01*
X175814615Y-87929170D01*
X175633666Y-87802468D01*
X175633662Y-87802466D01*
X175633660Y-87802465D01*
X175433450Y-87709106D01*
X175433447Y-87709105D01*
X175433445Y-87709104D01*
X175220070Y-87651930D01*
X175220062Y-87651929D01*
X175000002Y-87632677D01*
X174999998Y-87632677D01*
X174779937Y-87651929D01*
X174779929Y-87651930D01*
X174566554Y-87709104D01*
X174566548Y-87709107D01*
X174366340Y-87802465D01*
X174366338Y-87802466D01*
X174185377Y-87929175D01*
X174029175Y-88085377D01*
X173902466Y-88266338D01*
X173902465Y-88266340D01*
X173862382Y-88352299D01*
X173816209Y-88404738D01*
X173749016Y-88423890D01*
X173682135Y-88403674D01*
X173637618Y-88352299D01*
X173597650Y-88266588D01*
X173597534Y-88266339D01*
X173470826Y-88085380D01*
X173314620Y-87929174D01*
X173314616Y-87929171D01*
X173314615Y-87929170D01*
X173133666Y-87802468D01*
X173133662Y-87802466D01*
X173133660Y-87802465D01*
X172933450Y-87709106D01*
X172933447Y-87709105D01*
X172933445Y-87709104D01*
X172720070Y-87651930D01*
X172720062Y-87651929D01*
X172500002Y-87632677D01*
X172499998Y-87632677D01*
X172279937Y-87651929D01*
X172279929Y-87651930D01*
X172066554Y-87709104D01*
X172066548Y-87709107D01*
X171866340Y-87802465D01*
X171866338Y-87802466D01*
X171685377Y-87929175D01*
X171529175Y-88085377D01*
X171402466Y-88266338D01*
X171402465Y-88266340D01*
X171362382Y-88352299D01*
X171316209Y-88404738D01*
X171249016Y-88423890D01*
X171182135Y-88403674D01*
X171137618Y-88352299D01*
X171097650Y-88266588D01*
X171097534Y-88266339D01*
X170970826Y-88085380D01*
X170814620Y-87929174D01*
X170814616Y-87929171D01*
X170814615Y-87929170D01*
X170633666Y-87802468D01*
X170633662Y-87802466D01*
X170633660Y-87802465D01*
X170433450Y-87709106D01*
X170433447Y-87709105D01*
X170433445Y-87709104D01*
X170220070Y-87651930D01*
X170220062Y-87651929D01*
X170000002Y-87632677D01*
X169999998Y-87632677D01*
X169779937Y-87651929D01*
X169779929Y-87651930D01*
X169566554Y-87709104D01*
X169566548Y-87709107D01*
X169366340Y-87802465D01*
X169366338Y-87802466D01*
X169185377Y-87929175D01*
X169029175Y-88085377D01*
X168902466Y-88266338D01*
X168902465Y-88266340D01*
X168862382Y-88352299D01*
X168816209Y-88404738D01*
X168749016Y-88423890D01*
X168682135Y-88403674D01*
X168637618Y-88352299D01*
X168597650Y-88266588D01*
X168597534Y-88266339D01*
X168470826Y-88085380D01*
X168314620Y-87929174D01*
X168314616Y-87929171D01*
X168314615Y-87929170D01*
X168133666Y-87802468D01*
X168133662Y-87802466D01*
X168133660Y-87802465D01*
X167933450Y-87709106D01*
X167933447Y-87709105D01*
X167933445Y-87709104D01*
X167720070Y-87651930D01*
X167720062Y-87651929D01*
X167500002Y-87632677D01*
X167499998Y-87632677D01*
X167279937Y-87651929D01*
X167279929Y-87651930D01*
X167066554Y-87709104D01*
X167066548Y-87709107D01*
X166866340Y-87802465D01*
X166866338Y-87802466D01*
X166685377Y-87929175D01*
X166529175Y-88085377D01*
X166402466Y-88266338D01*
X166402465Y-88266340D01*
X166362382Y-88352299D01*
X166316209Y-88404738D01*
X166249016Y-88423890D01*
X166182135Y-88403674D01*
X166137618Y-88352299D01*
X166097650Y-88266588D01*
X166097534Y-88266339D01*
X165970826Y-88085380D01*
X165814620Y-87929174D01*
X165814616Y-87929171D01*
X165814615Y-87929170D01*
X165633666Y-87802468D01*
X165633662Y-87802466D01*
X165633660Y-87802465D01*
X165433450Y-87709106D01*
X165433447Y-87709105D01*
X165433445Y-87709104D01*
X165220070Y-87651930D01*
X165220062Y-87651929D01*
X165000002Y-87632677D01*
X164999998Y-87632677D01*
X164779937Y-87651929D01*
X164779929Y-87651930D01*
X164566554Y-87709104D01*
X164566548Y-87709107D01*
X164366340Y-87802465D01*
X164366338Y-87802466D01*
X164185377Y-87929175D01*
X164029175Y-88085377D01*
X163902466Y-88266338D01*
X163902465Y-88266340D01*
X163862382Y-88352299D01*
X163816209Y-88404738D01*
X163749016Y-88423890D01*
X163682135Y-88403674D01*
X163637618Y-88352299D01*
X163597650Y-88266588D01*
X163597534Y-88266339D01*
X163470826Y-88085380D01*
X163314620Y-87929174D01*
X163314616Y-87929171D01*
X163314615Y-87929170D01*
X163133666Y-87802468D01*
X163133662Y-87802466D01*
X163133660Y-87802465D01*
X162933450Y-87709106D01*
X162933447Y-87709105D01*
X162933445Y-87709104D01*
X162720070Y-87651930D01*
X162720062Y-87651929D01*
X162500002Y-87632677D01*
X162499998Y-87632677D01*
X162279937Y-87651929D01*
X162279929Y-87651930D01*
X162066554Y-87709104D01*
X162066548Y-87709107D01*
X161866340Y-87802465D01*
X161866338Y-87802466D01*
X161685377Y-87929175D01*
X161529175Y-88085377D01*
X161402466Y-88266338D01*
X161402465Y-88266340D01*
X161362382Y-88352299D01*
X161316209Y-88404738D01*
X161249016Y-88423890D01*
X161182135Y-88403674D01*
X161137618Y-88352299D01*
X161097650Y-88266588D01*
X161097534Y-88266339D01*
X160970826Y-88085380D01*
X160814620Y-87929174D01*
X160814616Y-87929171D01*
X160814615Y-87929170D01*
X160633666Y-87802468D01*
X160633662Y-87802466D01*
X160633660Y-87802465D01*
X160433450Y-87709106D01*
X160433447Y-87709105D01*
X160433445Y-87709104D01*
X160220070Y-87651930D01*
X160220062Y-87651929D01*
X160000002Y-87632677D01*
X159999998Y-87632677D01*
X159779937Y-87651929D01*
X159779929Y-87651930D01*
X159566554Y-87709104D01*
X159566548Y-87709107D01*
X159366340Y-87802465D01*
X159366338Y-87802466D01*
X159185377Y-87929175D01*
X159029175Y-88085377D01*
X158902466Y-88266338D01*
X158902465Y-88266340D01*
X158862382Y-88352299D01*
X158816209Y-88404738D01*
X158749016Y-88423890D01*
X158682135Y-88403674D01*
X158637618Y-88352299D01*
X158597650Y-88266588D01*
X158597534Y-88266339D01*
X158470826Y-88085380D01*
X158314620Y-87929174D01*
X158314616Y-87929171D01*
X158314615Y-87929170D01*
X158133666Y-87802468D01*
X158133662Y-87802466D01*
X158133660Y-87802465D01*
X157933450Y-87709106D01*
X157933447Y-87709105D01*
X157933445Y-87709104D01*
X157720070Y-87651930D01*
X157720062Y-87651929D01*
X157500002Y-87632677D01*
X157499998Y-87632677D01*
X157279937Y-87651929D01*
X157279929Y-87651930D01*
X157066554Y-87709104D01*
X157066548Y-87709107D01*
X156866340Y-87802465D01*
X156866338Y-87802466D01*
X156685377Y-87929175D01*
X156529175Y-88085377D01*
X156402466Y-88266338D01*
X156402465Y-88266340D01*
X156362382Y-88352299D01*
X156316209Y-88404738D01*
X156249016Y-88423890D01*
X156182135Y-88403674D01*
X156137618Y-88352299D01*
X156097650Y-88266588D01*
X156097534Y-88266339D01*
X155970826Y-88085380D01*
X155814620Y-87929174D01*
X155814616Y-87929171D01*
X155814615Y-87929170D01*
X155633666Y-87802468D01*
X155633662Y-87802466D01*
X155633660Y-87802465D01*
X155433450Y-87709106D01*
X155433447Y-87709105D01*
X155433445Y-87709104D01*
X155220070Y-87651930D01*
X155220062Y-87651929D01*
X155000002Y-87632677D01*
X154999998Y-87632677D01*
X154779937Y-87651929D01*
X154779929Y-87651930D01*
X154566554Y-87709104D01*
X154566548Y-87709107D01*
X154366340Y-87802465D01*
X154366338Y-87802466D01*
X154185377Y-87929175D01*
X154029175Y-88085377D01*
X153902466Y-88266338D01*
X153902465Y-88266340D01*
X153862382Y-88352299D01*
X153816209Y-88404738D01*
X153749016Y-88423890D01*
X153682135Y-88403674D01*
X153637618Y-88352299D01*
X153597650Y-88266588D01*
X153597534Y-88266339D01*
X153470826Y-88085380D01*
X153314620Y-87929174D01*
X153314616Y-87929171D01*
X153314615Y-87929170D01*
X153133666Y-87802468D01*
X153133662Y-87802466D01*
X153133660Y-87802465D01*
X152933450Y-87709106D01*
X152933447Y-87709105D01*
X152933445Y-87709104D01*
X152720070Y-87651930D01*
X152720062Y-87651929D01*
X152500002Y-87632677D01*
X152499998Y-87632677D01*
X152279937Y-87651929D01*
X152279929Y-87651930D01*
X152066554Y-87709104D01*
X152066548Y-87709107D01*
X151866340Y-87802465D01*
X151866338Y-87802466D01*
X151685377Y-87929175D01*
X151529175Y-88085377D01*
X151402466Y-88266338D01*
X151402465Y-88266340D01*
X151362382Y-88352299D01*
X151316209Y-88404738D01*
X151249016Y-88423890D01*
X151182135Y-88403674D01*
X151137618Y-88352299D01*
X151097650Y-88266588D01*
X151097534Y-88266339D01*
X150970826Y-88085380D01*
X150814620Y-87929174D01*
X150814616Y-87929171D01*
X150814615Y-87929170D01*
X150633666Y-87802468D01*
X150633662Y-87802466D01*
X150633660Y-87802465D01*
X150433450Y-87709106D01*
X150433447Y-87709105D01*
X150433445Y-87709104D01*
X150220070Y-87651930D01*
X150220062Y-87651929D01*
X150000002Y-87632677D01*
X149999998Y-87632677D01*
X149779937Y-87651929D01*
X149779929Y-87651930D01*
X149566554Y-87709104D01*
X149566548Y-87709107D01*
X149366340Y-87802465D01*
X149366338Y-87802466D01*
X149185377Y-87929175D01*
X149029175Y-88085377D01*
X148902466Y-88266338D01*
X148902465Y-88266340D01*
X148862382Y-88352299D01*
X148816209Y-88404738D01*
X148749016Y-88423890D01*
X148682135Y-88403674D01*
X148637618Y-88352299D01*
X148597650Y-88266588D01*
X148597534Y-88266339D01*
X148470826Y-88085380D01*
X148314620Y-87929174D01*
X148314616Y-87929171D01*
X148314615Y-87929170D01*
X148133666Y-87802468D01*
X148133662Y-87802466D01*
X148133660Y-87802465D01*
X147933450Y-87709106D01*
X147933447Y-87709105D01*
X147933445Y-87709104D01*
X147720070Y-87651930D01*
X147720062Y-87651929D01*
X147500002Y-87632677D01*
X147499998Y-87632677D01*
X147279937Y-87651929D01*
X147279929Y-87651930D01*
X147066554Y-87709104D01*
X147066548Y-87709107D01*
X146866340Y-87802465D01*
X146866338Y-87802466D01*
X146685377Y-87929175D01*
X146529175Y-88085377D01*
X146402466Y-88266338D01*
X146402465Y-88266340D01*
X146362382Y-88352299D01*
X146316209Y-88404738D01*
X146249016Y-88423890D01*
X146182135Y-88403674D01*
X146137618Y-88352299D01*
X146097650Y-88266588D01*
X146097534Y-88266339D01*
X145970826Y-88085380D01*
X145814620Y-87929174D01*
X145814616Y-87929171D01*
X145814615Y-87929170D01*
X145633666Y-87802468D01*
X145633662Y-87802466D01*
X145633660Y-87802465D01*
X145433450Y-87709106D01*
X145433447Y-87709105D01*
X145433445Y-87709104D01*
X145220070Y-87651930D01*
X145220062Y-87651929D01*
X145000002Y-87632677D01*
X144999998Y-87632677D01*
X144779937Y-87651929D01*
X144779929Y-87651930D01*
X144566554Y-87709104D01*
X144566548Y-87709107D01*
X144366340Y-87802465D01*
X144366338Y-87802466D01*
X144185377Y-87929175D01*
X144029175Y-88085377D01*
X143902466Y-88266338D01*
X143902462Y-88266345D01*
X143868104Y-88340025D01*
X143821931Y-88392464D01*
X143754737Y-88411615D01*
X143687857Y-88391398D01*
X143643341Y-88340023D01*
X143609098Y-88266588D01*
X143609097Y-88266587D01*
X143563741Y-88201811D01*
X143563740Y-88201810D01*
X142893000Y-88872551D01*
X142893000Y-88849840D01*
X142867036Y-88752939D01*
X142816876Y-88666060D01*
X142745940Y-88595124D01*
X142659061Y-88544964D01*
X142562160Y-88519000D01*
X142539448Y-88519000D01*
X143210188Y-87848259D01*
X143210187Y-87848258D01*
X143145411Y-87802901D01*
X143145405Y-87802898D01*
X142945284Y-87709580D01*
X142945270Y-87709575D01*
X142731986Y-87652426D01*
X142731976Y-87652424D01*
X142512001Y-87633179D01*
X142511999Y-87633179D01*
X142292023Y-87652424D01*
X142292013Y-87652426D01*
X142078729Y-87709575D01*
X142078720Y-87709579D01*
X141878590Y-87802901D01*
X141813811Y-87848258D01*
X142484553Y-88519000D01*
X142461840Y-88519000D01*
X142364939Y-88544964D01*
X142278060Y-88595124D01*
X142207124Y-88666060D01*
X142156964Y-88752939D01*
X142131000Y-88849840D01*
X142131000Y-88872553D01*
X141460258Y-88201811D01*
X141414901Y-88266590D01*
X141368658Y-88365758D01*
X141322485Y-88418197D01*
X141255292Y-88437349D01*
X141188411Y-88417133D01*
X141143894Y-88365758D01*
X141097650Y-88266588D01*
X141097534Y-88266339D01*
X140970826Y-88085380D01*
X140814620Y-87929174D01*
X140814616Y-87929171D01*
X140814615Y-87929170D01*
X140633666Y-87802468D01*
X140633662Y-87802466D01*
X140633660Y-87802465D01*
X140433450Y-87709106D01*
X140433447Y-87709105D01*
X140433445Y-87709104D01*
X140220070Y-87651930D01*
X140220062Y-87651929D01*
X140000002Y-87632677D01*
X139999998Y-87632677D01*
X139779937Y-87651929D01*
X139779929Y-87651930D01*
X139566554Y-87709104D01*
X139566548Y-87709107D01*
X139366340Y-87802465D01*
X139366338Y-87802466D01*
X139185377Y-87929175D01*
X139029175Y-88085377D01*
X138902466Y-88266338D01*
X138902465Y-88266340D01*
X138809107Y-88466548D01*
X138809104Y-88466554D01*
X138751930Y-88679929D01*
X138751929Y-88679937D01*
X138732677Y-88899997D01*
X130000500Y-88899997D01*
X130000500Y-81961651D01*
X192208660Y-81961651D01*
X217894326Y-81961651D01*
X217894326Y-67750075D01*
X192208660Y-67750075D01*
X192208660Y-81961651D01*
X130000500Y-81961651D01*
X130000500Y-63149997D01*
X138732677Y-63149997D01*
X138732677Y-63150002D01*
X138751929Y-63370062D01*
X138751930Y-63370070D01*
X138809104Y-63583445D01*
X138809105Y-63583447D01*
X138809106Y-63583450D01*
X138868106Y-63709977D01*
X138902466Y-63783662D01*
X138902468Y-63783666D01*
X139029170Y-63964615D01*
X139029175Y-63964621D01*
X139185378Y-64120824D01*
X139185384Y-64120829D01*
X139366333Y-64247531D01*
X139366335Y-64247532D01*
X139366338Y-64247534D01*
X139566550Y-64340894D01*
X139779932Y-64398070D01*
X139937123Y-64411822D01*
X139999998Y-64417323D01*
X140000000Y-64417323D01*
X140000002Y-64417323D01*
X140055017Y-64412509D01*
X140220068Y-64398070D01*
X140433450Y-64340894D01*
X140633662Y-64247534D01*
X140814620Y-64120826D01*
X140970826Y-63964620D01*
X141097534Y-63783662D01*
X141143894Y-63684241D01*
X141190066Y-63631802D01*
X141257259Y-63612650D01*
X141324141Y-63632865D01*
X141368658Y-63684242D01*
X141414898Y-63783405D01*
X141414901Y-63783411D01*
X141460258Y-63848187D01*
X141460259Y-63848188D01*
X142131000Y-63177447D01*
X142131000Y-63200160D01*
X142156964Y-63297061D01*
X142207124Y-63383940D01*
X142278060Y-63454876D01*
X142364939Y-63505036D01*
X142461840Y-63531000D01*
X142484553Y-63531000D01*
X141813810Y-64201740D01*
X141878590Y-64247099D01*
X141878592Y-64247100D01*
X142078715Y-64340419D01*
X142078729Y-64340424D01*
X142292013Y-64397573D01*
X142292023Y-64397575D01*
X142511999Y-64416821D01*
X142512001Y-64416821D01*
X142731976Y-64397575D01*
X142731986Y-64397573D01*
X142945270Y-64340424D01*
X142945284Y-64340419D01*
X143145407Y-64247100D01*
X143145417Y-64247094D01*
X143210188Y-64201741D01*
X142539448Y-63531000D01*
X142562160Y-63531000D01*
X142659061Y-63505036D01*
X142745940Y-63454876D01*
X142816876Y-63383940D01*
X142867036Y-63297061D01*
X142893000Y-63200160D01*
X142893000Y-63177447D01*
X143563741Y-63848188D01*
X143609094Y-63783417D01*
X143609097Y-63783412D01*
X143643340Y-63709977D01*
X143689512Y-63657537D01*
X143756705Y-63638384D01*
X143823586Y-63658599D01*
X143868105Y-63709975D01*
X143902464Y-63783658D01*
X143902466Y-63783661D01*
X143902468Y-63783666D01*
X144029170Y-63964615D01*
X144029175Y-63964621D01*
X144185378Y-64120824D01*
X144185384Y-64120829D01*
X144366333Y-64247531D01*
X144366335Y-64247532D01*
X144366338Y-64247534D01*
X144566550Y-64340894D01*
X144779932Y-64398070D01*
X144937123Y-64411822D01*
X144999998Y-64417323D01*
X145000000Y-64417323D01*
X145000002Y-64417323D01*
X145055017Y-64412509D01*
X145220068Y-64398070D01*
X145433450Y-64340894D01*
X145633662Y-64247534D01*
X145814620Y-64120826D01*
X145970826Y-63964620D01*
X146097534Y-63783662D01*
X146137618Y-63697700D01*
X146183790Y-63645261D01*
X146250983Y-63626109D01*
X146317864Y-63646324D01*
X146362382Y-63697701D01*
X146402464Y-63783658D01*
X146402468Y-63783666D01*
X146529170Y-63964615D01*
X146529175Y-63964621D01*
X146685378Y-64120824D01*
X146685384Y-64120829D01*
X146866333Y-64247531D01*
X146866335Y-64247532D01*
X146866338Y-64247534D01*
X147066550Y-64340894D01*
X147279932Y-64398070D01*
X147437123Y-64411822D01*
X147499998Y-64417323D01*
X147500000Y-64417323D01*
X147500002Y-64417323D01*
X147555017Y-64412509D01*
X147720068Y-64398070D01*
X147933450Y-64340894D01*
X148133662Y-64247534D01*
X148314620Y-64120826D01*
X148470826Y-63964620D01*
X148597534Y-63783662D01*
X148637618Y-63697700D01*
X148683790Y-63645261D01*
X148750983Y-63626109D01*
X148817864Y-63646324D01*
X148862382Y-63697701D01*
X148902464Y-63783658D01*
X148902468Y-63783666D01*
X149029170Y-63964615D01*
X149029175Y-63964621D01*
X149185378Y-64120824D01*
X149185384Y-64120829D01*
X149366333Y-64247531D01*
X149366335Y-64247532D01*
X149366338Y-64247534D01*
X149566550Y-64340894D01*
X149779932Y-64398070D01*
X149937123Y-64411822D01*
X149999998Y-64417323D01*
X150000000Y-64417323D01*
X150000002Y-64417323D01*
X150055017Y-64412509D01*
X150220068Y-64398070D01*
X150433450Y-64340894D01*
X150633662Y-64247534D01*
X150814620Y-64120826D01*
X150970826Y-63964620D01*
X151097534Y-63783662D01*
X151137618Y-63697700D01*
X151183790Y-63645261D01*
X151250983Y-63626109D01*
X151317864Y-63646324D01*
X151362382Y-63697701D01*
X151402464Y-63783658D01*
X151402468Y-63783666D01*
X151529170Y-63964615D01*
X151529175Y-63964621D01*
X151685378Y-64120824D01*
X151685384Y-64120829D01*
X151866333Y-64247531D01*
X151866335Y-64247532D01*
X151866338Y-64247534D01*
X152066550Y-64340894D01*
X152279932Y-64398070D01*
X152437123Y-64411822D01*
X152499998Y-64417323D01*
X152500000Y-64417323D01*
X152500002Y-64417323D01*
X152555017Y-64412509D01*
X152720068Y-64398070D01*
X152933450Y-64340894D01*
X153133662Y-64247534D01*
X153314620Y-64120826D01*
X153470826Y-63964620D01*
X153597534Y-63783662D01*
X153637618Y-63697700D01*
X153683790Y-63645261D01*
X153750983Y-63626109D01*
X153817864Y-63646324D01*
X153862382Y-63697701D01*
X153902464Y-63783658D01*
X153902468Y-63783666D01*
X154029170Y-63964615D01*
X154029175Y-63964621D01*
X154185378Y-64120824D01*
X154185384Y-64120829D01*
X154366333Y-64247531D01*
X154366335Y-64247532D01*
X154366338Y-64247534D01*
X154566550Y-64340894D01*
X154779932Y-64398070D01*
X154937123Y-64411822D01*
X154999998Y-64417323D01*
X155000000Y-64417323D01*
X155000002Y-64417323D01*
X155055017Y-64412509D01*
X155220068Y-64398070D01*
X155433450Y-64340894D01*
X155633662Y-64247534D01*
X155814620Y-64120826D01*
X155970826Y-63964620D01*
X156097534Y-63783662D01*
X156137618Y-63697700D01*
X156183790Y-63645261D01*
X156250983Y-63626109D01*
X156317864Y-63646324D01*
X156362382Y-63697701D01*
X156402464Y-63783658D01*
X156402468Y-63783666D01*
X156529170Y-63964615D01*
X156529175Y-63964621D01*
X156685378Y-64120824D01*
X156685384Y-64120829D01*
X156866333Y-64247531D01*
X156866335Y-64247532D01*
X156866338Y-64247534D01*
X157066550Y-64340894D01*
X157279932Y-64398070D01*
X157437123Y-64411822D01*
X157499998Y-64417323D01*
X157500000Y-64417323D01*
X157500002Y-64417323D01*
X157555017Y-64412509D01*
X157720068Y-64398070D01*
X157933450Y-64340894D01*
X158133662Y-64247534D01*
X158314620Y-64120826D01*
X158470826Y-63964620D01*
X158597534Y-63783662D01*
X158637618Y-63697700D01*
X158683790Y-63645261D01*
X158750983Y-63626109D01*
X158817864Y-63646324D01*
X158862382Y-63697701D01*
X158902464Y-63783658D01*
X158902468Y-63783666D01*
X159029170Y-63964615D01*
X159029175Y-63964621D01*
X159185378Y-64120824D01*
X159185384Y-64120829D01*
X159366333Y-64247531D01*
X159366335Y-64247532D01*
X159366338Y-64247534D01*
X159566550Y-64340894D01*
X159779932Y-64398070D01*
X159937123Y-64411822D01*
X159999998Y-64417323D01*
X160000000Y-64417323D01*
X160000002Y-64417323D01*
X160055017Y-64412509D01*
X160220068Y-64398070D01*
X160433450Y-64340894D01*
X160633662Y-64247534D01*
X160814620Y-64120826D01*
X160970826Y-63964620D01*
X161097534Y-63783662D01*
X161137618Y-63697700D01*
X161183790Y-63645261D01*
X161250983Y-63626109D01*
X161317864Y-63646324D01*
X161362382Y-63697701D01*
X161402464Y-63783658D01*
X161402468Y-63783666D01*
X161529170Y-63964615D01*
X161529175Y-63964621D01*
X161685378Y-64120824D01*
X161685384Y-64120829D01*
X161866333Y-64247531D01*
X161866335Y-64247532D01*
X161866338Y-64247534D01*
X162066550Y-64340894D01*
X162279932Y-64398070D01*
X162437123Y-64411822D01*
X162499998Y-64417323D01*
X162500000Y-64417323D01*
X162500002Y-64417323D01*
X162555017Y-64412509D01*
X162720068Y-64398070D01*
X162933450Y-64340894D01*
X163133662Y-64247534D01*
X163314620Y-64120826D01*
X163470826Y-63964620D01*
X163597534Y-63783662D01*
X163637618Y-63697700D01*
X163683790Y-63645261D01*
X163750983Y-63626109D01*
X163817864Y-63646324D01*
X163862382Y-63697701D01*
X163902464Y-63783658D01*
X163902468Y-63783666D01*
X164029170Y-63964615D01*
X164029175Y-63964621D01*
X164185378Y-64120824D01*
X164185384Y-64120829D01*
X164366333Y-64247531D01*
X164366335Y-64247532D01*
X164366338Y-64247534D01*
X164566550Y-64340894D01*
X164779932Y-64398070D01*
X164937123Y-64411822D01*
X164999998Y-64417323D01*
X165000000Y-64417323D01*
X165000002Y-64417323D01*
X165055017Y-64412509D01*
X165220068Y-64398070D01*
X165433450Y-64340894D01*
X165633662Y-64247534D01*
X165814620Y-64120826D01*
X165970826Y-63964620D01*
X166097534Y-63783662D01*
X166137618Y-63697700D01*
X166183790Y-63645261D01*
X166250983Y-63626109D01*
X166317864Y-63646324D01*
X166362382Y-63697701D01*
X166402464Y-63783658D01*
X166402468Y-63783666D01*
X166529170Y-63964615D01*
X166529175Y-63964621D01*
X166685378Y-64120824D01*
X166685384Y-64120829D01*
X166866333Y-64247531D01*
X166866335Y-64247532D01*
X166866338Y-64247534D01*
X167066550Y-64340894D01*
X167279932Y-64398070D01*
X167437123Y-64411822D01*
X167499998Y-64417323D01*
X167500000Y-64417323D01*
X167500002Y-64417323D01*
X167555017Y-64412509D01*
X167720068Y-64398070D01*
X167933450Y-64340894D01*
X168133662Y-64247534D01*
X168314620Y-64120826D01*
X168470826Y-63964620D01*
X168597534Y-63783662D01*
X168637618Y-63697700D01*
X168683790Y-63645261D01*
X168750983Y-63626109D01*
X168817864Y-63646324D01*
X168862382Y-63697701D01*
X168902464Y-63783658D01*
X168902468Y-63783666D01*
X169029170Y-63964615D01*
X169029175Y-63964621D01*
X169185378Y-64120824D01*
X169185384Y-64120829D01*
X169366333Y-64247531D01*
X169366335Y-64247532D01*
X169366338Y-64247534D01*
X169566550Y-64340894D01*
X169779932Y-64398070D01*
X169937123Y-64411822D01*
X169999998Y-64417323D01*
X170000000Y-64417323D01*
X170000002Y-64417323D01*
X170055017Y-64412509D01*
X170220068Y-64398070D01*
X170433450Y-64340894D01*
X170633662Y-64247534D01*
X170814620Y-64120826D01*
X170970826Y-63964620D01*
X171097534Y-63783662D01*
X171137618Y-63697700D01*
X171183790Y-63645261D01*
X171250983Y-63626109D01*
X171317864Y-63646324D01*
X171362382Y-63697701D01*
X171402464Y-63783658D01*
X171402468Y-63783666D01*
X171529170Y-63964615D01*
X171529175Y-63964621D01*
X171685378Y-64120824D01*
X171685384Y-64120829D01*
X171866333Y-64247531D01*
X171866335Y-64247532D01*
X171866338Y-64247534D01*
X172066550Y-64340894D01*
X172279932Y-64398070D01*
X172437123Y-64411822D01*
X172499998Y-64417323D01*
X172500000Y-64417323D01*
X172500002Y-64417323D01*
X172555017Y-64412509D01*
X172720068Y-64398070D01*
X172933450Y-64340894D01*
X173133662Y-64247534D01*
X173314620Y-64120826D01*
X173470826Y-63964620D01*
X173597534Y-63783662D01*
X173637618Y-63697700D01*
X173683790Y-63645261D01*
X173750983Y-63626109D01*
X173817864Y-63646324D01*
X173862382Y-63697701D01*
X173902464Y-63783658D01*
X173902468Y-63783666D01*
X174029170Y-63964615D01*
X174029175Y-63964621D01*
X174185378Y-64120824D01*
X174185384Y-64120829D01*
X174366333Y-64247531D01*
X174366335Y-64247532D01*
X174366338Y-64247534D01*
X174566550Y-64340894D01*
X174779932Y-64398070D01*
X174937123Y-64411822D01*
X174999998Y-64417323D01*
X175000000Y-64417323D01*
X175000002Y-64417323D01*
X175055017Y-64412509D01*
X175220068Y-64398070D01*
X175433450Y-64340894D01*
X175633662Y-64247534D01*
X175814620Y-64120826D01*
X175970826Y-63964620D01*
X176097534Y-63783662D01*
X176190894Y-63583450D01*
X176248070Y-63370068D01*
X176267323Y-63150000D01*
X176248070Y-62929932D01*
X176190894Y-62716550D01*
X176097534Y-62516339D01*
X175970826Y-62335380D01*
X175814620Y-62179174D01*
X175814616Y-62179171D01*
X175814615Y-62179170D01*
X175633666Y-62052468D01*
X175633662Y-62052466D01*
X175633660Y-62052465D01*
X175433450Y-61959106D01*
X175433447Y-61959105D01*
X175433445Y-61959104D01*
X175220070Y-61901930D01*
X175220062Y-61901929D01*
X175000002Y-61882677D01*
X174999998Y-61882677D01*
X174779937Y-61901929D01*
X174779929Y-61901930D01*
X174566554Y-61959104D01*
X174566548Y-61959107D01*
X174366340Y-62052465D01*
X174366338Y-62052466D01*
X174185377Y-62179175D01*
X174029175Y-62335377D01*
X173902466Y-62516338D01*
X173902465Y-62516340D01*
X173862382Y-62602299D01*
X173816209Y-62654738D01*
X173749016Y-62673890D01*
X173682135Y-62653674D01*
X173637618Y-62602299D01*
X173597650Y-62516588D01*
X173597534Y-62516339D01*
X173470826Y-62335380D01*
X173314620Y-62179174D01*
X173314616Y-62179171D01*
X173314615Y-62179170D01*
X173133666Y-62052468D01*
X173133662Y-62052466D01*
X173133660Y-62052465D01*
X172933450Y-61959106D01*
X172933447Y-61959105D01*
X172933445Y-61959104D01*
X172720070Y-61901930D01*
X172720062Y-61901929D01*
X172500002Y-61882677D01*
X172499998Y-61882677D01*
X172279937Y-61901929D01*
X172279929Y-61901930D01*
X172066554Y-61959104D01*
X172066548Y-61959107D01*
X171866340Y-62052465D01*
X171866338Y-62052466D01*
X171685377Y-62179175D01*
X171529175Y-62335377D01*
X171402466Y-62516338D01*
X171402465Y-62516340D01*
X171362382Y-62602299D01*
X171316209Y-62654738D01*
X171249016Y-62673890D01*
X171182135Y-62653674D01*
X171137618Y-62602299D01*
X171097650Y-62516588D01*
X171097534Y-62516339D01*
X170970826Y-62335380D01*
X170814620Y-62179174D01*
X170814616Y-62179171D01*
X170814615Y-62179170D01*
X170633666Y-62052468D01*
X170633662Y-62052466D01*
X170633660Y-62052465D01*
X170433450Y-61959106D01*
X170433447Y-61959105D01*
X170433445Y-61959104D01*
X170220070Y-61901930D01*
X170220062Y-61901929D01*
X170000002Y-61882677D01*
X169999998Y-61882677D01*
X169779937Y-61901929D01*
X169779929Y-61901930D01*
X169566554Y-61959104D01*
X169566548Y-61959107D01*
X169366340Y-62052465D01*
X169366338Y-62052466D01*
X169185377Y-62179175D01*
X169029175Y-62335377D01*
X168902466Y-62516338D01*
X168902465Y-62516340D01*
X168862382Y-62602299D01*
X168816209Y-62654738D01*
X168749016Y-62673890D01*
X168682135Y-62653674D01*
X168637618Y-62602299D01*
X168597650Y-62516588D01*
X168597534Y-62516339D01*
X168470826Y-62335380D01*
X168314620Y-62179174D01*
X168314616Y-62179171D01*
X168314615Y-62179170D01*
X168133666Y-62052468D01*
X168133662Y-62052466D01*
X168133660Y-62052465D01*
X167933450Y-61959106D01*
X167933447Y-61959105D01*
X167933445Y-61959104D01*
X167720070Y-61901930D01*
X167720062Y-61901929D01*
X167500002Y-61882677D01*
X167499998Y-61882677D01*
X167279937Y-61901929D01*
X167279929Y-61901930D01*
X167066554Y-61959104D01*
X167066548Y-61959107D01*
X166866340Y-62052465D01*
X166866338Y-62052466D01*
X166685377Y-62179175D01*
X166529175Y-62335377D01*
X166402466Y-62516338D01*
X166402465Y-62516340D01*
X166362382Y-62602299D01*
X166316209Y-62654738D01*
X166249016Y-62673890D01*
X166182135Y-62653674D01*
X166137618Y-62602299D01*
X166097650Y-62516588D01*
X166097534Y-62516339D01*
X165970826Y-62335380D01*
X165814620Y-62179174D01*
X165814616Y-62179171D01*
X165814615Y-62179170D01*
X165633666Y-62052468D01*
X165633662Y-62052466D01*
X165633660Y-62052465D01*
X165433450Y-61959106D01*
X165433447Y-61959105D01*
X165433445Y-61959104D01*
X165220070Y-61901930D01*
X165220062Y-61901929D01*
X165000002Y-61882677D01*
X164999998Y-61882677D01*
X164779937Y-61901929D01*
X164779929Y-61901930D01*
X164566554Y-61959104D01*
X164566548Y-61959107D01*
X164366340Y-62052465D01*
X164366338Y-62052466D01*
X164185377Y-62179175D01*
X164029175Y-62335377D01*
X163902466Y-62516338D01*
X163902465Y-62516340D01*
X163862382Y-62602299D01*
X163816209Y-62654738D01*
X163749016Y-62673890D01*
X163682135Y-62653674D01*
X163637618Y-62602299D01*
X163597650Y-62516588D01*
X163597534Y-62516339D01*
X163470826Y-62335380D01*
X163314620Y-62179174D01*
X163314616Y-62179171D01*
X163314615Y-62179170D01*
X163133666Y-62052468D01*
X163133662Y-62052466D01*
X163133660Y-62052465D01*
X162933450Y-61959106D01*
X162933447Y-61959105D01*
X162933445Y-61959104D01*
X162720070Y-61901930D01*
X162720062Y-61901929D01*
X162500002Y-61882677D01*
X162499998Y-61882677D01*
X162279937Y-61901929D01*
X162279929Y-61901930D01*
X162066554Y-61959104D01*
X162066548Y-61959107D01*
X161866340Y-62052465D01*
X161866338Y-62052466D01*
X161685377Y-62179175D01*
X161529175Y-62335377D01*
X161402466Y-62516338D01*
X161402465Y-62516340D01*
X161362382Y-62602299D01*
X161316209Y-62654738D01*
X161249016Y-62673890D01*
X161182135Y-62653674D01*
X161137618Y-62602299D01*
X161097650Y-62516588D01*
X161097534Y-62516339D01*
X160970826Y-62335380D01*
X160814620Y-62179174D01*
X160814616Y-62179171D01*
X160814615Y-62179170D01*
X160633666Y-62052468D01*
X160633662Y-62052466D01*
X160633660Y-62052465D01*
X160433450Y-61959106D01*
X160433447Y-61959105D01*
X160433445Y-61959104D01*
X160220070Y-61901930D01*
X160220062Y-61901929D01*
X160000002Y-61882677D01*
X159999998Y-61882677D01*
X159779937Y-61901929D01*
X159779929Y-61901930D01*
X159566554Y-61959104D01*
X159566548Y-61959107D01*
X159366340Y-62052465D01*
X159366338Y-62052466D01*
X159185377Y-62179175D01*
X159029175Y-62335377D01*
X158902466Y-62516338D01*
X158902465Y-62516340D01*
X158862382Y-62602299D01*
X158816209Y-62654738D01*
X158749016Y-62673890D01*
X158682135Y-62653674D01*
X158637618Y-62602299D01*
X158597650Y-62516588D01*
X158597534Y-62516339D01*
X158470826Y-62335380D01*
X158314620Y-62179174D01*
X158314616Y-62179171D01*
X158314615Y-62179170D01*
X158133666Y-62052468D01*
X158133662Y-62052466D01*
X158133660Y-62052465D01*
X157933450Y-61959106D01*
X157933447Y-61959105D01*
X157933445Y-61959104D01*
X157720070Y-61901930D01*
X157720062Y-61901929D01*
X157500002Y-61882677D01*
X157499998Y-61882677D01*
X157279937Y-61901929D01*
X157279929Y-61901930D01*
X157066554Y-61959104D01*
X157066548Y-61959107D01*
X156866340Y-62052465D01*
X156866338Y-62052466D01*
X156685377Y-62179175D01*
X156529175Y-62335377D01*
X156402466Y-62516338D01*
X156402465Y-62516340D01*
X156362382Y-62602299D01*
X156316209Y-62654738D01*
X156249016Y-62673890D01*
X156182135Y-62653674D01*
X156137618Y-62602299D01*
X156097650Y-62516588D01*
X156097534Y-62516339D01*
X155970826Y-62335380D01*
X155814620Y-62179174D01*
X155814616Y-62179171D01*
X155814615Y-62179170D01*
X155633666Y-62052468D01*
X155633662Y-62052466D01*
X155633660Y-62052465D01*
X155433450Y-61959106D01*
X155433447Y-61959105D01*
X155433445Y-61959104D01*
X155220070Y-61901930D01*
X155220062Y-61901929D01*
X155000002Y-61882677D01*
X154999998Y-61882677D01*
X154919183Y-61889747D01*
X154850683Y-61875980D01*
X154800500Y-61827365D01*
X154784567Y-61759336D01*
X154807943Y-61693492D01*
X154820688Y-61678545D01*
X159414416Y-57084819D01*
X159475739Y-57051334D01*
X159502097Y-57048500D01*
X216465331Y-57048500D01*
X216465347Y-57048501D01*
X216472943Y-57048501D01*
X216631054Y-57048501D01*
X216631057Y-57048501D01*
X216783785Y-57007577D01*
X216833904Y-56978639D01*
X216920716Y-56928520D01*
X217032520Y-56816716D01*
X217032520Y-56816714D01*
X217042728Y-56806507D01*
X217042730Y-56806504D01*
X221975160Y-51874073D01*
X222036481Y-51840590D01*
X222103102Y-51844474D01*
X222155019Y-51862298D01*
X222383951Y-51900500D01*
X222383952Y-51900500D01*
X222616048Y-51900500D01*
X222616049Y-51900500D01*
X222844981Y-51862298D01*
X223064503Y-51786936D01*
X223268626Y-51676470D01*
X223451784Y-51533913D01*
X223608979Y-51363153D01*
X223735924Y-51168849D01*
X223829157Y-50956300D01*
X223886134Y-50731305D01*
X223905300Y-50500000D01*
X223905300Y-50499993D01*
X223886135Y-50268702D01*
X223886133Y-50268691D01*
X223829157Y-50043699D01*
X223735924Y-49831151D01*
X223608983Y-49636852D01*
X223608980Y-49636849D01*
X223608979Y-49636847D01*
X223514195Y-49533884D01*
X223483275Y-49471232D01*
X223491135Y-49401806D01*
X223535283Y-49347651D01*
X223562095Y-49333722D01*
X223642326Y-49303798D01*
X223642326Y-49303797D01*
X223642331Y-49303796D01*
X223757546Y-49217546D01*
X223843796Y-49102331D01*
X223894091Y-48967483D01*
X223900500Y-48907873D01*
X223900499Y-47012128D01*
X223894091Y-46952517D01*
X223889580Y-46940423D01*
X223843797Y-46817671D01*
X223843793Y-46817664D01*
X223757547Y-46702455D01*
X223757544Y-46702452D01*
X223642335Y-46616206D01*
X223642328Y-46616202D01*
X223507482Y-46565908D01*
X223507483Y-46565908D01*
X223447883Y-46559501D01*
X223447881Y-46559500D01*
X223447873Y-46559500D01*
X223447864Y-46559500D01*
X221552129Y-46559500D01*
X221552123Y-46559501D01*
X221492516Y-46565908D01*
X221357671Y-46616202D01*
X221357664Y-46616206D01*
X221242455Y-46702452D01*
X221242452Y-46702455D01*
X221156206Y-46817664D01*
X221156203Y-46817670D01*
X221146147Y-46844632D01*
X221104275Y-46900566D01*
X221038810Y-46924982D01*
X220997872Y-46921073D01*
X220957097Y-46910147D01*
X220917357Y-46899499D01*
X220759243Y-46899499D01*
X220751647Y-46899499D01*
X220751631Y-46899500D01*
X184851692Y-46899500D01*
X184784653Y-46879815D01*
X184750119Y-46846625D01*
X184620047Y-46660861D01*
X184620045Y-46660858D01*
X184459141Y-46499954D01*
X184272734Y-46369432D01*
X184272732Y-46369431D01*
X184066497Y-46273261D01*
X184066488Y-46273258D01*
X183846697Y-46214366D01*
X183846693Y-46214365D01*
X183846692Y-46214365D01*
X183846691Y-46214364D01*
X183846686Y-46214364D01*
X183620002Y-46194532D01*
X183619998Y-46194532D01*
X183393313Y-46214364D01*
X183393302Y-46214366D01*
X183173511Y-46273258D01*
X183173502Y-46273261D01*
X182967267Y-46369431D01*
X182967265Y-46369432D01*
X182780858Y-46499954D01*
X182619954Y-46660858D01*
X182489432Y-46847265D01*
X182489431Y-46847267D01*
X182393261Y-47053502D01*
X182393258Y-47053511D01*
X182334366Y-47273302D01*
X182334364Y-47273313D01*
X182314532Y-47499998D01*
X182314532Y-47500001D01*
X182334364Y-47726686D01*
X182334366Y-47726697D01*
X182393258Y-47946488D01*
X182393261Y-47946497D01*
X182489431Y-48152732D01*
X182489432Y-48152734D01*
X182619954Y-48339141D01*
X182780858Y-48500045D01*
X182808753Y-48519577D01*
X182967266Y-48630568D01*
X183173504Y-48726739D01*
X183393308Y-48785635D01*
X183555230Y-48799801D01*
X183619998Y-48805468D01*
X183620000Y-48805468D01*
X183620002Y-48805468D01*
X183676673Y-48800509D01*
X183846692Y-48785635D01*
X184066496Y-48726739D01*
X184272734Y-48630568D01*
X184459139Y-48500047D01*
X184620047Y-48339139D01*
X184750118Y-48153375D01*
X184804693Y-48109752D01*
X184851692Y-48100500D01*
X220538203Y-48100500D01*
X220605242Y-48120185D01*
X220625884Y-48136819D01*
X220813439Y-48324374D01*
X220813449Y-48324385D01*
X220817779Y-48328715D01*
X220817780Y-48328716D01*
X220929584Y-48440520D01*
X221016395Y-48490639D01*
X221016394Y-48490639D01*
X221029824Y-48498392D01*
X221037498Y-48502823D01*
X221085715Y-48553389D01*
X221099500Y-48610211D01*
X221099500Y-48907869D01*
X221099501Y-48907876D01*
X221105908Y-48967483D01*
X221156202Y-49102328D01*
X221156206Y-49102335D01*
X221242452Y-49217544D01*
X221242455Y-49217547D01*
X221357664Y-49303793D01*
X221357673Y-49303798D01*
X221437904Y-49333722D01*
X221493838Y-49375593D01*
X221518256Y-49441057D01*
X221503405Y-49509330D01*
X221485802Y-49533886D01*
X221391019Y-49636849D01*
X221264075Y-49831151D01*
X221170842Y-50043699D01*
X221113866Y-50268691D01*
X221113864Y-50268702D01*
X221094700Y-50499993D01*
X221094700Y-50500006D01*
X221113864Y-50731297D01*
X221113866Y-50731309D01*
X221158319Y-50906848D01*
X221155694Y-50976668D01*
X221125794Y-51024969D01*
X216339584Y-55811181D01*
X216278261Y-55844666D01*
X216251903Y-55847500D01*
X159281057Y-55847500D01*
X159122942Y-55847500D01*
X158970215Y-55888423D01*
X158970214Y-55888423D01*
X158970212Y-55888424D01*
X158970209Y-55888425D01*
X158920096Y-55917359D01*
X158920095Y-55917360D01*
X158876689Y-55942420D01*
X158833285Y-55967479D01*
X158833282Y-55967481D01*
X158721478Y-56079286D01*
X152911679Y-61889084D01*
X152850356Y-61922569D01*
X152791906Y-61921178D01*
X152720076Y-61901932D01*
X152720073Y-61901931D01*
X152720068Y-61901930D01*
X152720065Y-61901929D01*
X152720062Y-61901929D01*
X152500002Y-61882677D01*
X152499998Y-61882677D01*
X152279937Y-61901929D01*
X152279929Y-61901930D01*
X152066554Y-61959104D01*
X152066548Y-61959107D01*
X151866340Y-62052465D01*
X151866338Y-62052466D01*
X151685377Y-62179175D01*
X151529175Y-62335377D01*
X151402466Y-62516338D01*
X151402465Y-62516340D01*
X151362382Y-62602299D01*
X151316209Y-62654738D01*
X151249016Y-62673890D01*
X151182135Y-62653674D01*
X151137618Y-62602299D01*
X151097650Y-62516588D01*
X151097534Y-62516339D01*
X150970826Y-62335380D01*
X150814620Y-62179174D01*
X150814616Y-62179171D01*
X150814615Y-62179170D01*
X150633666Y-62052468D01*
X150633662Y-62052466D01*
X150633660Y-62052465D01*
X150433450Y-61959106D01*
X150433447Y-61959105D01*
X150433445Y-61959104D01*
X150220070Y-61901930D01*
X150220062Y-61901929D01*
X150000002Y-61882677D01*
X149999998Y-61882677D01*
X149779937Y-61901929D01*
X149779929Y-61901930D01*
X149566554Y-61959104D01*
X149566548Y-61959107D01*
X149366340Y-62052465D01*
X149366338Y-62052466D01*
X149185377Y-62179175D01*
X149029175Y-62335377D01*
X148902466Y-62516338D01*
X148902465Y-62516340D01*
X148862382Y-62602299D01*
X148816209Y-62654738D01*
X148749016Y-62673890D01*
X148682135Y-62653674D01*
X148637618Y-62602299D01*
X148597650Y-62516588D01*
X148597534Y-62516339D01*
X148470826Y-62335380D01*
X148314620Y-62179174D01*
X148314616Y-62179171D01*
X148314615Y-62179170D01*
X148133666Y-62052468D01*
X148133662Y-62052466D01*
X148133660Y-62052465D01*
X147933450Y-61959106D01*
X147933447Y-61959105D01*
X147933445Y-61959104D01*
X147720070Y-61901930D01*
X147720062Y-61901929D01*
X147500002Y-61882677D01*
X147499998Y-61882677D01*
X147279937Y-61901929D01*
X147279929Y-61901930D01*
X147066554Y-61959104D01*
X147066548Y-61959107D01*
X146866340Y-62052465D01*
X146866338Y-62052466D01*
X146685377Y-62179175D01*
X146529175Y-62335377D01*
X146402466Y-62516338D01*
X146402465Y-62516340D01*
X146362382Y-62602299D01*
X146316209Y-62654738D01*
X146249016Y-62673890D01*
X146182135Y-62653674D01*
X146137618Y-62602299D01*
X146097650Y-62516588D01*
X146097534Y-62516339D01*
X145970826Y-62335380D01*
X145814620Y-62179174D01*
X145814616Y-62179171D01*
X145814615Y-62179170D01*
X145633666Y-62052468D01*
X145633662Y-62052466D01*
X145633660Y-62052465D01*
X145433450Y-61959106D01*
X145433447Y-61959105D01*
X145433445Y-61959104D01*
X145220070Y-61901930D01*
X145220062Y-61901929D01*
X145000002Y-61882677D01*
X144999998Y-61882677D01*
X144779937Y-61901929D01*
X144779929Y-61901930D01*
X144566554Y-61959104D01*
X144566548Y-61959107D01*
X144366340Y-62052465D01*
X144366338Y-62052466D01*
X144185377Y-62179175D01*
X144029175Y-62335377D01*
X143902466Y-62516338D01*
X143902462Y-62516345D01*
X143868104Y-62590025D01*
X143821931Y-62642464D01*
X143754737Y-62661615D01*
X143687857Y-62641398D01*
X143643341Y-62590023D01*
X143609098Y-62516588D01*
X143609097Y-62516587D01*
X143563741Y-62451811D01*
X143563740Y-62451810D01*
X142893000Y-63122551D01*
X142893000Y-63099840D01*
X142867036Y-63002939D01*
X142816876Y-62916060D01*
X142745940Y-62845124D01*
X142659061Y-62794964D01*
X142562160Y-62769000D01*
X142539448Y-62769000D01*
X143210188Y-62098259D01*
X143210187Y-62098258D01*
X143145411Y-62052901D01*
X143145405Y-62052898D01*
X142945284Y-61959580D01*
X142945270Y-61959575D01*
X142731986Y-61902426D01*
X142731976Y-61902424D01*
X142512001Y-61883179D01*
X142511999Y-61883179D01*
X142292023Y-61902424D01*
X142292013Y-61902426D01*
X142078729Y-61959575D01*
X142078720Y-61959579D01*
X141878590Y-62052901D01*
X141813811Y-62098258D01*
X142484553Y-62769000D01*
X142461840Y-62769000D01*
X142364939Y-62794964D01*
X142278060Y-62845124D01*
X142207124Y-62916060D01*
X142156964Y-63002939D01*
X142131000Y-63099840D01*
X142131000Y-63122553D01*
X141460258Y-62451811D01*
X141414901Y-62516590D01*
X141368658Y-62615758D01*
X141322485Y-62668197D01*
X141255292Y-62687349D01*
X141188411Y-62667133D01*
X141143894Y-62615758D01*
X141097650Y-62516588D01*
X141097534Y-62516339D01*
X140970826Y-62335380D01*
X140814620Y-62179174D01*
X140814616Y-62179171D01*
X140814615Y-62179170D01*
X140633666Y-62052468D01*
X140633662Y-62052466D01*
X140633660Y-62052465D01*
X140433450Y-61959106D01*
X140433447Y-61959105D01*
X140433445Y-61959104D01*
X140220070Y-61901930D01*
X140220062Y-61901929D01*
X140000002Y-61882677D01*
X139999998Y-61882677D01*
X139779937Y-61901929D01*
X139779929Y-61901930D01*
X139566554Y-61959104D01*
X139566548Y-61959107D01*
X139366340Y-62052465D01*
X139366338Y-62052466D01*
X139185377Y-62179175D01*
X139029175Y-62335377D01*
X138902466Y-62516338D01*
X138902465Y-62516340D01*
X138809107Y-62716548D01*
X138809104Y-62716554D01*
X138751930Y-62929929D01*
X138751929Y-62929937D01*
X138732677Y-63149997D01*
X130000500Y-63149997D01*
X130000500Y-49499994D01*
X140994859Y-49499994D01*
X140994859Y-49500005D01*
X141015385Y-49747729D01*
X141015387Y-49747738D01*
X141076412Y-49988717D01*
X141176266Y-50216364D01*
X141276564Y-50369882D01*
X141976212Y-49670234D01*
X141987482Y-49712292D01*
X142059890Y-49837708D01*
X142162292Y-49940110D01*
X142287708Y-50012518D01*
X142329765Y-50023787D01*
X141629942Y-50723609D01*
X141676768Y-50760055D01*
X141676770Y-50760056D01*
X141895385Y-50878364D01*
X141895396Y-50878369D01*
X142130506Y-50959083D01*
X142375707Y-51000000D01*
X142624293Y-51000000D01*
X142869493Y-50959083D01*
X143104603Y-50878369D01*
X143104614Y-50878364D01*
X143323228Y-50760057D01*
X143323231Y-50760055D01*
X143370056Y-50723609D01*
X142670234Y-50023787D01*
X142712292Y-50012518D01*
X142837708Y-49940110D01*
X142940110Y-49837708D01*
X143012518Y-49712292D01*
X143023787Y-49670235D01*
X143723434Y-50369882D01*
X143823731Y-50216369D01*
X143923587Y-49988717D01*
X143984612Y-49747738D01*
X143984614Y-49747729D01*
X144005141Y-49500005D01*
X144005141Y-49499994D01*
X147494859Y-49499994D01*
X147494859Y-49500005D01*
X147515385Y-49747729D01*
X147515387Y-49747738D01*
X147576412Y-49988717D01*
X147676266Y-50216364D01*
X147776564Y-50369882D01*
X148476212Y-49670234D01*
X148487482Y-49712292D01*
X148559890Y-49837708D01*
X148662292Y-49940110D01*
X148787708Y-50012518D01*
X148829765Y-50023787D01*
X148129942Y-50723609D01*
X148176768Y-50760055D01*
X148176770Y-50760056D01*
X148395385Y-50878364D01*
X148395396Y-50878369D01*
X148630506Y-50959083D01*
X148875707Y-51000000D01*
X149124293Y-51000000D01*
X149369493Y-50959083D01*
X149604603Y-50878369D01*
X149604614Y-50878364D01*
X149823228Y-50760057D01*
X149823231Y-50760055D01*
X149870056Y-50723609D01*
X149170234Y-50023787D01*
X149212292Y-50012518D01*
X149337708Y-49940110D01*
X149440110Y-49837708D01*
X149512518Y-49712292D01*
X149523787Y-49670235D01*
X150223434Y-50369882D01*
X150323731Y-50216369D01*
X150423587Y-49988717D01*
X150484612Y-49747738D01*
X150484614Y-49747729D01*
X150505141Y-49500005D01*
X150505141Y-49499994D01*
X160494357Y-49499994D01*
X160494357Y-49500005D01*
X160514890Y-49747812D01*
X160514892Y-49747824D01*
X160575936Y-49988881D01*
X160675826Y-50216606D01*
X160811833Y-50424782D01*
X160811836Y-50424785D01*
X160980256Y-50607738D01*
X161176491Y-50760474D01*
X161176493Y-50760475D01*
X161394332Y-50878364D01*
X161395190Y-50878828D01*
X161614141Y-50953994D01*
X161628964Y-50959083D01*
X161630386Y-50959571D01*
X161875665Y-51000500D01*
X162124335Y-51000500D01*
X162369614Y-50959571D01*
X162604810Y-50878828D01*
X162823509Y-50760474D01*
X163019744Y-50607738D01*
X163188164Y-50424785D01*
X163324173Y-50216607D01*
X163424063Y-49988881D01*
X163485108Y-49747821D01*
X163494303Y-49636852D01*
X163505643Y-49500005D01*
X163505643Y-49499994D01*
X166994357Y-49499994D01*
X166994357Y-49500005D01*
X167014890Y-49747812D01*
X167014892Y-49747824D01*
X167075936Y-49988881D01*
X167175826Y-50216606D01*
X167311833Y-50424782D01*
X167311836Y-50424785D01*
X167480256Y-50607738D01*
X167676491Y-50760474D01*
X167676493Y-50760475D01*
X167894332Y-50878364D01*
X167895190Y-50878828D01*
X168114141Y-50953994D01*
X168128964Y-50959083D01*
X168130386Y-50959571D01*
X168375665Y-51000500D01*
X168624335Y-51000500D01*
X168869614Y-50959571D01*
X169104810Y-50878828D01*
X169323509Y-50760474D01*
X169519744Y-50607738D01*
X169688164Y-50424785D01*
X169824173Y-50216607D01*
X169924063Y-49988881D01*
X169985108Y-49747821D01*
X169994303Y-49636852D01*
X170005643Y-49500005D01*
X170005643Y-49499994D01*
X169985109Y-49252187D01*
X169985107Y-49252175D01*
X169924063Y-49011118D01*
X169824173Y-48783393D01*
X169688166Y-48575217D01*
X169666557Y-48551744D01*
X169519744Y-48392262D01*
X169323509Y-48239526D01*
X169323507Y-48239525D01*
X169323506Y-48239524D01*
X169104811Y-48121172D01*
X169104802Y-48121169D01*
X168869616Y-48040429D01*
X168624335Y-47999500D01*
X168375665Y-47999500D01*
X168130383Y-48040429D01*
X167895197Y-48121169D01*
X167895188Y-48121172D01*
X167676493Y-48239524D01*
X167480257Y-48392261D01*
X167311833Y-48575217D01*
X167175826Y-48783393D01*
X167075936Y-49011118D01*
X167014892Y-49252175D01*
X167014890Y-49252187D01*
X166994357Y-49499994D01*
X163505643Y-49499994D01*
X163485109Y-49252187D01*
X163485107Y-49252175D01*
X163424063Y-49011118D01*
X163324173Y-48783393D01*
X163188166Y-48575217D01*
X163166557Y-48551744D01*
X163019744Y-48392262D01*
X162823509Y-48239526D01*
X162823507Y-48239525D01*
X162823506Y-48239524D01*
X162604811Y-48121172D01*
X162604802Y-48121169D01*
X162369616Y-48040429D01*
X162124335Y-47999500D01*
X161875665Y-47999500D01*
X161630383Y-48040429D01*
X161395197Y-48121169D01*
X161395188Y-48121172D01*
X161176493Y-48239524D01*
X160980257Y-48392261D01*
X160811833Y-48575217D01*
X160675826Y-48783393D01*
X160575936Y-49011118D01*
X160514892Y-49252175D01*
X160514890Y-49252187D01*
X160494357Y-49499994D01*
X150505141Y-49499994D01*
X150484614Y-49252270D01*
X150484612Y-49252261D01*
X150423587Y-49011282D01*
X150323731Y-48783630D01*
X150223434Y-48630116D01*
X149523787Y-49329764D01*
X149512518Y-49287708D01*
X149440110Y-49162292D01*
X149337708Y-49059890D01*
X149212292Y-48987482D01*
X149170235Y-48976212D01*
X149870057Y-48276390D01*
X149870056Y-48276389D01*
X149823229Y-48239943D01*
X149604614Y-48121635D01*
X149604603Y-48121630D01*
X149369493Y-48040916D01*
X149124293Y-48000000D01*
X148875707Y-48000000D01*
X148630506Y-48040916D01*
X148395396Y-48121630D01*
X148395390Y-48121632D01*
X148176761Y-48239949D01*
X148129942Y-48276388D01*
X148129942Y-48276390D01*
X148829765Y-48976212D01*
X148787708Y-48987482D01*
X148662292Y-49059890D01*
X148559890Y-49162292D01*
X148487482Y-49287708D01*
X148476212Y-49329764D01*
X147776564Y-48630116D01*
X147676267Y-48783632D01*
X147576412Y-49011282D01*
X147515387Y-49252261D01*
X147515385Y-49252270D01*
X147494859Y-49499994D01*
X144005141Y-49499994D01*
X143984614Y-49252270D01*
X143984612Y-49252261D01*
X143923587Y-49011282D01*
X143823731Y-48783630D01*
X143723434Y-48630116D01*
X143023787Y-49329764D01*
X143012518Y-49287708D01*
X142940110Y-49162292D01*
X142837708Y-49059890D01*
X142712292Y-48987482D01*
X142670235Y-48976212D01*
X143370057Y-48276390D01*
X143370056Y-48276389D01*
X143323229Y-48239943D01*
X143104614Y-48121635D01*
X143104603Y-48121630D01*
X142869493Y-48040916D01*
X142624293Y-48000000D01*
X142375707Y-48000000D01*
X142130506Y-48040916D01*
X141895396Y-48121630D01*
X141895390Y-48121632D01*
X141676761Y-48239949D01*
X141629942Y-48276388D01*
X141629942Y-48276390D01*
X142329765Y-48976212D01*
X142287708Y-48987482D01*
X142162292Y-49059890D01*
X142059890Y-49162292D01*
X141987482Y-49287708D01*
X141976212Y-49329764D01*
X141276564Y-48630116D01*
X141176267Y-48783632D01*
X141076412Y-49011282D01*
X141015387Y-49252261D01*
X141015385Y-49252270D01*
X140994859Y-49499994D01*
X130000500Y-49499994D01*
X130000500Y-47249999D01*
X174721127Y-47249999D01*
X174721128Y-47250000D01*
X175684314Y-47250000D01*
X175679920Y-47254394D01*
X175627259Y-47345606D01*
X175600000Y-47447339D01*
X175600000Y-47552661D01*
X175627259Y-47654394D01*
X175679920Y-47745606D01*
X175684314Y-47750000D01*
X174721128Y-47750000D01*
X174773730Y-47946317D01*
X174773734Y-47946326D01*
X174869865Y-48152482D01*
X175000342Y-48338820D01*
X175161179Y-48499657D01*
X175347517Y-48630134D01*
X175553673Y-48726265D01*
X175553682Y-48726269D01*
X175749999Y-48778872D01*
X175750000Y-48778871D01*
X175750000Y-47815686D01*
X175754394Y-47820080D01*
X175845606Y-47872741D01*
X175947339Y-47900000D01*
X176052661Y-47900000D01*
X176154394Y-47872741D01*
X176245606Y-47820080D01*
X176250000Y-47815686D01*
X176250000Y-48778872D01*
X176446317Y-48726269D01*
X176446326Y-48726265D01*
X176652482Y-48630134D01*
X176838820Y-48499657D01*
X176999657Y-48338820D01*
X177130134Y-48152482D01*
X177226265Y-47946326D01*
X177226269Y-47946317D01*
X177278872Y-47750000D01*
X176315686Y-47750000D01*
X176320080Y-47745606D01*
X176372741Y-47654394D01*
X176400000Y-47552661D01*
X176400000Y-47447339D01*
X176372741Y-47345606D01*
X176320080Y-47254394D01*
X176315686Y-47250000D01*
X177278872Y-47250000D01*
X177278872Y-47249999D01*
X177226269Y-47053682D01*
X177226265Y-47053673D01*
X177130134Y-46847517D01*
X176999657Y-46661179D01*
X176838820Y-46500342D01*
X176652482Y-46369865D01*
X176446328Y-46273734D01*
X176250000Y-46221127D01*
X176250000Y-47184314D01*
X176245606Y-47179920D01*
X176154394Y-47127259D01*
X176052661Y-47100000D01*
X175947339Y-47100000D01*
X175845606Y-47127259D01*
X175754394Y-47179920D01*
X175750000Y-47184314D01*
X175750000Y-46221127D01*
X175553671Y-46273734D01*
X175347517Y-46369865D01*
X175161179Y-46500342D01*
X175000342Y-46661179D01*
X174869865Y-46847517D01*
X174773734Y-47053673D01*
X174773730Y-47053682D01*
X174721127Y-47249999D01*
X130000500Y-47249999D01*
X130000500Y-43624500D01*
X130020185Y-43557461D01*
X130072989Y-43511706D01*
X130124500Y-43500500D01*
X141628507Y-43500500D01*
X141695546Y-43520185D01*
G37*
%TD.AperFunction*%
%TD*%
M02*
