M48
; DRILL file {KiCad 8.0.4} date 2024-08-01T14:56:48+0200
; FORMAT={-:-/ absolute / inch / decimal}
; #@! TF.CreationDate,2024-08-01T14:56:48+02:00
; #@! TF.GenerationSoftware,Kicad,Pcbnew,8.0.4
; #@! TF.FileFunction,Plated,1,2,PTH
FMAT,2
INCH
; #@! TA.AperFunction,Plated,PTH,ComponentDrill
T1C0.0300
; #@! TA.AperFunction,Plated,PTH,ComponentDrill
T2C0.0315
; #@! TA.AperFunction,Plated,PTH,ComponentDrill
T3C0.0354
; #@! TA.AperFunction,Plated,PTH,ComponentDrill
T4C0.0433
; #@! TA.AperFunction,Plated,PTH,ComponentDrill
T5C0.0472
; #@! TA.AperFunction,Plated,PTH,ComponentDrill
T6C0.0984
%
G90
G05
T1
X5.5118Y-2.4862
X5.5118Y-3.5
X5.6107Y-2.4862
X5.6107Y-3.5
X5.7087Y-2.4862
X5.7087Y-3.5
X5.8071Y-2.4862
X5.8071Y-3.5
X5.9055Y-2.4862
X5.9055Y-3.5
X6.0039Y-2.4862
X6.0039Y-3.5
X6.1024Y-2.4862
X6.1024Y-3.5
X6.2008Y-2.4862
X6.2008Y-3.5
X6.2992Y-2.4862
X6.2992Y-3.5
X6.3976Y-2.4862
X6.3976Y-3.5
X6.4961Y-2.4862
X6.4961Y-3.5
X6.5945Y-2.4862
X6.5945Y-3.5
X6.6929Y-2.4862
X6.6929Y-3.5
X6.7913Y-2.4862
X6.7913Y-3.5
X6.8898Y-2.4862
X6.8898Y-3.5
T2
X5.2362Y-3.6689
X5.2362Y-3.9689
X6.9291Y-1.8701
X7.2291Y-1.8701
T3
X8.7598Y-1.8882
X8.7598Y-1.9882
T4
X5.6102Y-1.7717
X5.6102Y-1.9488
X5.8661Y-1.7717
X5.8661Y-1.9488
X6.378Y-1.7717
X6.378Y-1.9488
X6.6339Y-1.7717
X6.6339Y-1.9488
T5
X5.4882Y-4.1929
X5.5882Y-4.1929
X5.6882Y-4.1929
X5.7882Y-4.1929
X5.8882Y-4.1929
X5.9882Y-4.1929
X6.0882Y-4.1929
X6.1882Y-4.1929
X6.2882Y-4.1929
X6.3882Y-4.1929
X6.4882Y-4.1929
X6.5882Y-4.1929
X6.6882Y-4.1929
X6.7882Y-4.1929
X6.8882Y-4.1929
X6.9882Y-4.1929
T6
X5.2717Y-4.1929
X5.2717Y-5.4134
X8.2244Y-5.4134
X8.2244Y-4.1929
M30
